<?xml version="1.0" encoding="UTF-8" standalone="no"?>
<!-- Created with Inkscape (http://www.inkscape.org/) -->

<svg
   xmlns:dc="http://purl.org/dc/elements/1.1/"
   xmlns:cc="http://creativecommons.org/ns#"
   xmlns:rdf="http://www.w3.org/1999/02/22-rdf-syntax-ns#"
   xmlns:svg="http://www.w3.org/2000/svg"
   xmlns="http://www.w3.org/2000/svg"
   version="1.1"
   width="249.85359"
   height="98.947342"
   id="svg5512">
  <defs
     id="defs5514">
    <filter
       color-interpolation-filters="sRGB"
       id="filter7166">
      <feGaussianBlur
         stdDeviation="0.087649774"
         id="feGaussianBlur7168" />
    </filter>
  </defs>
  <metadata
     id="metadata5517">
    <rdf:RDF>
      <cc:Work
         rdf:about="">
        <dc:format>image/svg+xml</dc:format>
        <dc:type
           rdf:resource="http://purl.org/dc/dcmitype/StillImage" />
        <dc:title></dc:title>
      </cc:Work>
    </rdf:RDF>
  </metadata>
  <text
     x="473.02231"
     y="-254.29396"
     id="text4136"
     xml:space="preserve"
     style="font-size:40px;font-style:normal;font-variant:normal;font-weight:600;font-stretch:normal;line-height:125%;letter-spacing:0px;word-spacing:0px;fill:#000000;fill-opacity:1;stroke:none;font-family:Galette;-inkscape-font-specification:Galette Semi-Bold"><tspan
       x="473.02231"
       y="-254.29396"
       id="tspan4138" /></text>
  <path
     d="m 13.504485,11.584414 c 3.91741,4.131833 9.70764,10.225435 15.364395,16.17763 0.463717,0.317918 1.028961,0.696796 1.712923,1.159223 -3.898764,-4.093961 -8.045507,-8.444273 -14.222449,-14.949143 -0.916133,-0.964773 -1.41823,-1.494526 -2.266593,-2.38771 l -0.588276,0 z m 3.252821,0 c 0.24402,0.285695 0.391142,0.452516 0.640183,0.744024 7.978004,9.338176 12.272079,14.360423 15.554722,18.201966 0.566412,0.381148 1.155037,0.767777 1.401482,0.934321 C 31.129872,27.70712 26.766859,22.617601 18.487531,12.916715 18.046432,12.399862 17.78057,12.094014 17.345583,11.584414 l -0.588277,0 z m 3.010591,0 c 4.077922,5.324774 9.701612,12.654117 15.468211,20.174422 0.112202,-0.09086 0.231573,-0.171362 0.346045,-0.259506 C 31.939744,26.762998 26.89731,20.191854 20.304267,11.584414 l -0.53637,0 z m 2.785662,0 c 7.780476,11.360628 10.932702,15.976481 13.409244,19.603475 0.126846,-0.09213 0.251261,-0.188082 0.380649,-0.276836 C 33.069368,26.140726 28.618621,19.657006 23.089929,11.584414 l -0.53637,0 z m 2.595338,0 c 5.559282,9.137414 8.8952,14.614171 11.609809,19.067078 0.126647,-0.08172 0.251782,-0.163666 0.380649,-0.242232 C 34.291084,25.753045 30.425457,19.424519 25.650662,11.584414 l -0.501765,0 z m 2.456919,0 c 5.096933,9.490823 7.925548,14.751703 9.966096,18.56534 0.129138,-0.07375 0.266781,-0.137144 0.397951,-0.207627 -2.48488,-4.614911 -5.853281,-10.893828 -9.862282,-18.357713 l -0.501765,0 z m 2.301199,0 c 3.405858,7.267332 6.329788,13.53213 8.478102,18.132757 0.136397,-0.06855 0.276847,-0.125241 0.415254,-0.190298 -2.148375,-4.564748 -5.07024,-10.82628 -8.408893,-17.942459 l -0.484463,0 z m 2.214688,0 c 2.796586,6.930422 5.32226,13.176395 7.145829,17.717502 0.14148,-0.06146 0.289166,-0.115219 0.432556,-0.173022 -1.81502,-4.471012 -4.289357,-10.608798 -7.093922,-17.54448 l -0.484463,0 z m 2.110874,0 c 2.314521,6.781485 4.404251,12.922537 5.91737,17.371457 0.149951,-0.05564 0.297997,-0.121365 0.449858,-0.173022 -1.531927,-4.467967 -3.584826,-10.47719 -5.882765,-17.198435 l -0.484463,0 z m 2.058968,0 c 1.871256,6.656188 3.528762,12.586347 4.775421,17.042742 0.158865,-0.04928 0.323698,-0.07652 0.484463,-0.121143 -1.180418,-4.166437 -2.262033,-8.017115 -4.775421,-16.921599 l -0.484463,0 z m 1.989759,0 c 1.456711,6.556805 2.759086,12.444718 3.719983,16.800511 0.162808,-0.04042 0.31989,-0.06799 0.484463,-0.103814 -0.969557,-4.309838 -2.277895,-10.158053 -3.737285,-16.696697 l -0.467161,0 z m 1.955154,0 c 1.066178,6.477685 2.031428,12.287642 2.733755,16.592884 0.154535,-0.02934 0.311219,-0.06157 0.467161,-0.08654 -0.72912,-4.36299 -1.680993,-10.047374 -2.751058,-16.506345 l -0.449858,0 z m 1.92055,0 c 0.695793,6.417224 1.297912,12.079516 1.764829,16.437136 0.159922,-0.02104 0.323211,-0.0526 0.484463,-0.06921 -0.475566,-4.309117 -1.084289,-9.959727 -1.782132,-16.367926 l -0.46716,0 z m 1.903247,0 c 0.309929,5.894834 0.56485,10.950468 0.778601,15.122165 l 0.397952,-2.024335 C 45.052994,21.540432 44.83926,17.555267 44.527415,11.584414 l -0.46716,0 z m 1.885945,0 c -0.0022,3.834898 -0.01102,6.977595 -0.01728,9.62005 l 0.328743,-1.661016 c -0.0017,0.03322 0.08296,0.524493 0.15572,0.934322 0.007,-2.934351 0.01058,-5.406385 0.01727,-8.893356 l -0.484463,0 z m 1.885945,0 c -0.398899,6.878045 -0.541098,9.430085 -0.726695,12.578762 0.171744,0.912618 0.22328,1.235575 0.346045,1.885918 0.232886,-4.108301 0.503703,-8.819995 0.830508,-14.46468 l -0.449858,0 z m 1.903247,0 c -0.730271,6.396018 -1.364579,11.986056 -1.868642,16.350652 0.156295,0.0144 0.312093,0.05038 0.46716,0.06921 0.477293,-4.270251 1.124857,-10.015982 1.851341,-16.419862 l -0.449859,0 z m 1.903247,0 c -1.102775,6.449448 -2.083716,12.201712 -2.820266,16.471741 0.164441,0.02436 0.321551,0.05753 0.484463,0.08654 0.728848,-4.318697 1.702503,-10.098036 2.802964,-16.55828 l -0.467161,0 z m 1.955155,0 c -1.490435,6.517826 -2.828456,12.32219 -3.823797,16.644763 0.163244,0.03377 0.322923,0.08289 0.484463,0.121143 0.990126,-4.373344 2.316037,-10.217406 3.806495,-16.765906 l -0.467161,0 z m 1.989759,0 c -1.893575,6.590744 -3.580985,12.489732 -4.84463,16.86972 0.157437,0.04208 0.311507,0.09208 0.46716,0.138418 1.253364,-4.409111 2.94352,-10.370276 4.84463,-17.008138 l -0.46716,0 z m 2.058967,0 c -2.330106,6.70314 -4.443594,12.728419 -5.986578,17.146556 0.155798,0.05094 0.313334,0.100491 0.467161,0.155693 1.551721,-4.496924 3.642873,-10.547341 5.986578,-17.302249 l -0.467161,0 z m 2.128177,0 c -2.798978,6.824339 -5.325334,12.967716 -7.180434,17.475271 0.144315,0.05653 0.290147,0.112783 0.432557,0.173023 1.841646,-4.508164 4.385242,-10.701206 7.23234,-17.648294 l -0.484463,0 z m 2.197387,0 c -3.39421,7.136388 -6.350392,13.325942 -8.512708,17.85592 0.137598,0.06268 0.279599,0.124245 0.415254,0.190353 2.19687,-4.616351 4.416237,-9.284913 8.581915,-18.046273 l -0.484461,0 z m 2.33581,0 c -3.92923,7.22791 -7.401174,13.618447 -9.948801,18.288504 0.129266,0.0681 0.253327,0.13637 0.380649,0.207627 2.401973,-4.410994 5.295723,-9.730895 10.052613,-18.496131 l -0.484461,0 z m 2.439616,0 c -4.694603,7.626056 -8.655162,14.028054 -11.575212,18.755637 0.133984,0.08023 0.266334,0.158627 0.397952,0.242232 2.494038,-4.058803 5.531189,-9.018929 11.679021,-18.997869 l -0.501761,0 z m 2.578033,0 c -7.28175,10.520487 -10.681129,15.411016 -13.357341,19.25743 0.125484,0.0846 0.257513,0.171749 0.380649,0.259506 2.532579,-3.670457 5.925817,-8.56071 13.51306,-19.516936 l -0.536368,0 z m 2.785664,0 c -6.632425,8.56907 -11.703713,15.096253 -15.364404,19.811102 0.124637,0.09418 0.241346,0.19672 0.363348,0.294111 2.89536,-3.733133 7.365029,-9.508652 15.572026,-20.105213 l -0.57097,0 z m 3.010591,0 c -0.442202,0.512036 -0.710724,0.81268 -1.159252,1.332301 -6.930345,8.028686 -12.207011,14.127217 -16.143003,18.669098 l 1.505295,-1.038135 c 3.844512,-4.466195 8.547626,-9.912057 14.897242,-17.267644 0.567684,-0.657596 0.896364,-1.050039 1.453387,-1.69562 l -0.553669,0 z m 3.270125,0 C 77.3956,12.618009 76.79268,13.237845 75.706074,14.370104 69.752256,20.574108 65.645757,24.848345 61.760455,28.886663 L 63.559889,27.6409 c 4.096756,-4.271025 8.22303,-8.561872 15.41631,-16.056486 l -0.588276,0 z m -66.942407,0.830508 0,0.588276 c 9.167318,8.67687 15.205044,14.399679 19.46503,18.461527 L 29.664784,29.647961 C 28.200908,28.267546 27.281475,27.395568 24.214575,24.491891 18.704,19.274696 15.294754,16.057585 11.445516,12.414922 z M 80.77563,12.691758 C 71.674895,21.223953 67.162656,25.4333 63.040821,29.284642 62.552592,30.009066 62.286507,30.40317 61.79506,31.135955 66.478017,26.724186 72.330278,21.220022 80.77563,13.297364 l 0,-0.605606 z m -69.330114,3.027921 0,0.553672 c 0.511632,0.436625 0.782472,0.670275 1.314971,1.124618 8.785617,7.496552 15.299495,13.064333 19.862981,16.973534 0.09565,-0.118541 0.195485,-0.230106 0.294139,-0.346045 -0.005,-0.0055 -0.02973,-0.01329 -0.03461,-0.01717 -0.102286,0.06478 -0.171367,0.08626 -0.207628,0.05204 L 32.277421,33.489336 C 28.708686,30.445803 22.726178,25.335023 12.362536,16.49853 11.867304,16.076299 11.933949,16.136428 11.445516,15.719956 z m 69.330114,0.224902 c -0.948083,0.800221 -0.824728,0.699951 -1.799431,1.522598 -9.941795,8.391119 -14.713484,12.425118 -18.49611,15.623957 -0.120064,0.17867 -0.540389,0.812071 -0.553672,0.830508 -0.08129,-0.06888 -0.149298,-0.112672 -0.22493,-0.173022 -0.04839,0.04097 -0.194283,0.167098 -0.242231,0.207627 0.09617,0.111786 0.200784,0.214493 0.294138,0.328715 4.681391,-3.966893 11.151657,-9.42776 19.551548,-16.52362 0.598921,-0.505945 0.898072,-0.761963 1.470688,-1.245761 l 0,-0.571002 z m -69.330114,2.751084 0,0.519068 c 9.025611,6.923059 15.808192,12.144683 20.641583,15.866135 0.08482,-0.116659 0.171926,-0.231546 0.259534,-0.346045 -3.61085,-2.769689 -9.884474,-7.588019 -20.901117,-16.039158 z m 69.330114,0.224902 c -10.382252,7.886005 -17.096275,12.984604 -20.728098,15.745046 0.08773,0.113503 0.174568,0.230383 0.259534,0.346045 3.97523,-3.034897 9.744761,-7.428007 20.468564,-15.572024 l 0,-0.519067 z m -69.330114,2.508854 0,0.519068 c 10.801525,7.438638 16.141747,11.121386 20.122515,13.876403 0.08099,-0.124577 0.175486,-0.241014 0.259534,-0.363375 -3.766033,-2.588029 -8.91181,-6.131585 -20.382049,-14.032096 z m 69.330114,0.207627 c -9.859311,6.716982 -15.82522,10.783315 -20.191728,13.75526 0.08805,0.126957 0.174794,0.251311 0.259534,0.38065 4.098619,-2.811823 9.952485,-6.814761 19.932194,-13.616843 l 0,-0.519067 z m -69.330114,2.335776 0,0.501793 c 8.395715,5.168084 14.905779,9.177002 19.655354,12.111574 0.0744,-0.128341 0.147388,-0.254468 0.22493,-0.380649 -3.94122,-2.421208 -9.784181,-6.01537 -19.880284,-12.232718 z m 69.330114,0.207627 c -10.255338,6.246084 -15.661357,9.53794 -19.689962,11.990486 0.07732,0.12524 0.150704,0.25336 0.224929,0.380649 4.017596,-2.454261 9.310591,-5.688315 19.465033,-11.869342 l 0,-0.501793 z m -69.330114,2.162809 0,0.467132 c 8.156584,4.465254 14.553068,7.976531 19.240101,10.554372 0.06459,-0.125683 0.122799,-0.256737 0.190324,-0.380649 C 26.567714,34.625693 20.831064,31.480781 11.445516,26.34326 z m 69.330114,0.173022 c -9.866014,5.337398 -15.1099,8.168987 -19.240104,10.398624 0.07425,0.134819 0.136857,0.278275 0.207627,0.415254 4.776882,-2.589524 11.252996,-6.100745 19.032477,-10.31214 l 0,-0.501738 z m -69.330114,2.041665 0,0.484463 c 7.933261,3.836117 14.23835,6.891611 18.859451,9.135588 0.06139,-0.136259 0.10827,-0.280878 0.173023,-0.415254 -3.658903,-1.764775 -8.42944,-4.077407 -19.032474,-9.204797 z m 69.330114,0.190297 c -8.283879,3.95643 -15.218029,7.272537 -18.824852,8.99717 0.06372,0.131773 0.129848,0.264378 0.190325,0.397979 4.608235,-2.214411 10.885397,-5.225943 18.634527,-8.92796 l 0,-0.467189 z m -69.330114,1.920578 0,0.484463 c 7.578601,3.209414 13.850768,5.864272 18.496104,7.837891 0.05868,-0.150212 0.127643,-0.301641 0.190324,-0.449859 -4.62543,-1.944938 -10.907476,-4.587781 -18.686428,-7.872495 z m 69.330114,0.173022 c -7.594622,3.16562 -13.853472,5.768985 -18.461503,7.682199 0.05951,0.140356 0.09981,0.290345 0.155724,0.432528 4.617155,-1.93392 10.903862,-4.55827 18.305779,-7.647594 l 0,-0.467133 z m -23.011994,0.795904 c -0.07227,0.08338 -0.222842,0.263769 -0.294138,0.346045 0.119648,0.100879 0.246478,0.19013 0.363347,0.29411 0.04263,-0.04928 0.130035,-0.15763 0.173022,-0.207627 -0.158167,-0.190297 -0.271642,-0.360883 -0.242231,-0.432528 z m -22.908178,0.415254 c -0.02403,0.02934 -0.04617,0.05764 -0.06921,0.08648 0.02835,-0.02381 0.05836,-0.0454 0.08651,-0.06921 -0.0033,-0.0055 -0.01417,-0.01384 -0.01728,-0.01716 z m 23.479152,0.380649 c -0.0392,0.04097 -0.116781,0.132549 -0.15572,0.173022 0.109234,0.102652 0.222183,0.206022 0.328743,0.311441 0.02879,-0.0299 0.109339,-0.125407 0.138417,-0.155748 -0.08167,-0.08178 -0.19265,-0.205468 -0.31144,-0.328715 z m -46.889094,0.242232 0,0.467132 c 7.468664,2.72606 13.650422,4.99235 18.201966,6.661394 0.05144,-0.154142 0.100159,-0.297654 0.15572,-0.449858 -3.903199,-1.415795 -9.268884,-3.359516 -15.191374,-5.519446 -1.705044,-0.621773 -1.596164,-0.58667 -3.166312,-1.159222 z m 69.330114,0.173022 c -7.25621,2.604971 -13.545018,4.840643 -18.150061,6.488316 0.05537,0.151152 0.10446,0.296768 0.155724,0.449858 4.524607,-1.637983 10.68372,-3.857322 17.994337,-6.488316 l 0,-0.449858 z m -21.800837,0.259506 c -0.02796,0.02602 -0.12802,0.112617 -0.15572,0.138418 0.116664,0.121531 0.232902,0.238522 0.346045,0.363375 0.03693,-0.03488 0.135766,-0.12059 0.173023,-0.155748 -0.126531,-0.103924 -0.24108,-0.220528 -0.363348,-0.346045 z m -47.529277,1.522598 0,0.449859 c 7.300004,2.259202 13.444872,4.151653 17.959734,5.554049 0.04153,-0.149104 0.07576,-0.302415 0.121116,-0.449858 -4.551488,-1.394368 -10.723596,-3.286099 -18.08085,-5.55405 z m 69.330114,0.138418 c -7.183128,2.179806 -13.339163,4.049667 -17.85592,5.415632 0.04534,0.147443 0.07958,0.300754 0.121111,0.449858 4.482449,-1.371113 10.606152,-3.230122 17.734809,-5.398302 l 0,-0.467188 z m -69.330114,1.71295 0,0.449859 c 7.161619,1.829996 13.268499,3.382659 17.752107,4.533189 0.03361,-0.148716 0.04911,-0.302637 0.08651,-0.449859 C 24.776315,39.870518 18.632737,38.313758 11.445516,36.482377 z M 80.77563,36.63807 c -7.028321,1.755638 -13.138812,3.280672 -17.613692,4.394771 0.03758,0.14855 0.07008,0.299869 0.103815,0.449859 4.436212,-1.116203 10.500334,-2.621526 17.509877,-4.377442 l 0,-0.467188 z m -69.330114,1.661016 0,0.449858 c 7.10386,1.44442 13.147123,2.674402 17.579085,3.581593 0.02697,-0.155249 0.0555,-0.313322 0.08651,-0.467188 -4.475994,-0.899717 -10.578943,-2.130917 -17.665595,-3.564263 z m 69.330114,0.155747 c -6.928725,1.369121 -12.994336,2.573135 -17.423367,3.44312 0.03066,0.153976 0.05989,0.311828 0.08652,0.467189 4.38325,-0.877072 10.38972,-2.081474 17.336852,-3.46045 l 0,-0.449859 z m -69.330114,1.626412 0,0.415254 c 7.321088,1.113766 13.272624,2.021955 17.440667,2.664546 0.01855,-0.149048 0.0469,-0.302028 0.06921,-0.449858 -4.42982,-0.662912 -10.463388,-1.563182 -17.509877,-2.629942 z m 69.330114,0.155693 c -6.901786,1.010894 -12.880829,1.891509 -17.267644,2.526128 0.02264,0.153256 0.03328,0.312714 0.05189,0.467188 4.091007,-0.612859 7.650074,-1.148204 17.215742,-2.560733 l 0,-0.432583 z m -69.330114,1.574532 0,0.432528 c 9.072541,0.922972 12.63269,1.294209 16.523647,1.695621 0.179191,-0.03488 0.809059,-0.165991 0.847811,-0.173023 0.005,-0.06915 0.0103,-0.138473 0.01727,-0.207627 C 24.444124,43.122565 18.492782,42.52388 11.445485,41.81147 z m 69.330114,0.155693 c -8.021022,0.773645 -12.570536,1.2018 -17.181134,1.643741 0.01536,0.155526 0.02337,0.310444 0.03459,0.467133 0.01321,0 0.03863,0 0.05189,0 0.02678,-0.142017 0.06547,-0.240626 0.121117,-0.242232 L 64.598,43.991553 c 4.329246,-0.421787 9.849028,-0.96206 16.177601,-1.574532 l 0,-0.449858 z m -69.330114,1.557202 0,0.449859 c 6.044575,0.311107 9.347571,0.486511 12.959384,0.674815 0.83326,-0.163334 1.060171,-0.217428 1.799434,-0.363375 -4.089382,-0.212444 -8.093389,-0.418576 -14.758818,-0.761299 z m 69.330114,0.173022 c -7.363437,0.340287 -10.668305,0.49609 -14.274353,0.657486 l 1.903246,0.346045 12.371107,-0.570947 0,-0.432584 z m -69.330114,1.539928 0,0.432529 c 1.882009,0 4.066565,0.01716 5.744346,0.01716 1.984156,0 3.366708,-0.0055 5.086862,0 l -1.695621,-0.311441 c 0.02392,0 0.444366,-0.07956 0.674788,-0.121088 -3.2202,-0.0055 -5.952478,-0.01218 -9.810375,-0.01716 z m 60.575176,0.155693 c -0.0858,0 -1.226291,0.207903 -2.560732,0.467188 3.557002,0.0055 6.873741,0.01107 11.31567,0.01716 l 0,-0.449858 c -3.260953,-0.0055 -6.107932,-0.02381 -8.737632,-0.03433 l -0.0173,0 z M 25.391128,46.27545 c -4.079743,0.19755 -8.499612,0.41758 -13.945612,0.67476 l 0,0.432584 c 6.507118,-0.304021 11.622975,-0.551291 15.831558,-0.744024 l -1.885946,-0.36332 z m 41.335076,0.121088 c -0.816537,0.161119 -1.337272,0.272407 -1.799432,0.363375 3.692264,0.184373 6.95294,0.33918 15.848858,0.795903 l 0,-0.432583 C 74.303358,46.789479 70.545789,46.594476 66.726204,46.396538 z m -3.0798,0.103814 c -0.0056,0.06323 -0.01242,0.126514 -0.0173,0.190352 0.0081,3.87e-4 0.02647,-4.43e-4 0.03459,0 -0.0073,-0.06417 -0.01011,-0.128784 -0.01729,-0.190352 z m -34.82943,0.449858 c -4.334527,0.4343 -10.280288,1.038135 -17.371458,1.730225 l 0,0.432584 c 9.232574,-0.88427 13.391458,-1.28092 17.440667,-1.661016 -0.0201,-0.166434 -0.05382,-0.333919 -0.06921,-0.501793 z m 34.777522,0.121144 c -0.01588,0.161284 -0.03166,0.324451 -0.05189,0.484462 4.121651,0.409773 7.728276,0.768885 17.233042,1.730226 l 0,-0.449859 C 74.054536,48.152232 68.020812,47.526472 63.594491,47.071354 z m -34.656407,0.761298 c -4.523112,0.670774 -10.592226,1.560857 -17.492573,2.578008 l 0,0.432584 c 7.005849,-1.025622 13.094934,-1.914543 17.561782,-2.560733 -0.02547,-0.1501 -0.04762,-0.298485 -0.06921,-0.449859 z M 63.49068,47.95374 c -0.02369,0.158129 -0.0413,0.310444 -0.06921,0.467189 4.500965,0.673819 10.528242,1.58245 17.354158,2.612612 l 0,-0.449859 C 74.013876,49.555403 67.943517,48.633207 63.49068,47.95374 z m -34.414172,0.726695 c -4.466334,0.888644 -10.579997,2.098029 -17.630992,3.495054 l 0,0.449858 c 7.232893,-1.425096 13.256856,-2.601316 17.734805,-3.477724 -0.03477,-0.15608 -0.07324,-0.309557 -0.103813,-0.467188 z m 34.258454,0.121144 c -0.03029,0.150266 -0.05236,0.301031 -0.08651,0.449858 4.452564,0.89501 10.547966,2.13435 17.527178,3.546933 l 0,-0.432528 C 73.780249,50.943625 67.741677,49.704119 63.334962,48.801579 z M 29.24953,49.493668 c -4.420506,1.117421 -10.440205,2.653307 -17.804014,4.498585 l 0,0.432529 c 7.221698,-1.803255 13.390972,-3.356083 17.92513,-4.481255 -0.04069,-0.149159 -0.08431,-0.299149 -0.121116,-0.449859 z m 33.912408,0.155693 c -0.03858,0.151872 -0.0959,0.299647 -0.138418,0.449858 4.493392,1.137132 10.622782,2.699151 17.75211,4.515915 l 0,-0.449858 C 73.716627,52.361412 67.622583,50.795075 63.161938,49.649361 z m -33.670177,0.69209 c -4.54006,1.387114 -10.725129,3.276298 -18.046245,5.502115 l 0,0.449858 c 7.558956,-2.290707 13.678178,-4.144954 18.184663,-5.502115 -0.04895,-0.148993 -0.0934,-0.299093 -0.138418,-0.449858 z m 33.427949,0.155748 c -0.0468,0.15154 -0.104969,0.30009 -0.155724,0.449858 4.072359,1.249306 8.068434,2.48416 18.011644,5.553994 l 0,-0.467133 C 73.547345,53.797582 67.419858,51.895996 62.91971,50.497199 z m -33.185717,0.657485 c -4.505556,1.624585 -10.643507,3.844588 -18.288477,6.592129 l 0,0.467189 c 7.606838,-2.728828 13.860491,-4.966714 18.461499,-6.609459 -0.05733,-0.149159 -0.119693,-0.298762 -0.173022,-0.449859 z m 32.891576,0.173023 c -0.05073,0.138916 -0.101588,0.277943 -0.155718,0.415254 4.580509,1.661624 10.794061,3.94159 18.305779,6.678667 l 0,-0.449858 C 73.472025,55.306061 67.215119,53.009707 62.625569,51.327707 z m -32.562834,0.640155 c -4.6019,1.927775 -10.865662,4.553509 -18.617219,7.786012 l 0,0.467189 C 21.820769,55.897217 26.139272,54.104981 30.25306,52.400446 30.189725,52.257322 30.122311,52.11298 30.062735,51.967862 z m 32.251392,0.173023 c -0.06334,0.149768 -0.122956,0.302304 -0.190325,0.449858 4.121017,1.731332 8.361993,3.509063 18.651828,7.855221 l 0,-0.484463 C 73.134776,56.729995 66.896948,54.087152 62.314127,52.140885 z M 30.40878,52.763766 c -4.059905,1.948593 -8.490006,4.082334 -18.963264,9.083709 l 0,0.467132 c 5.699699,-2.720024 11.713794,-5.583449 19.153589,-9.135587 -0.06876,-0.136813 -0.12508,-0.276393 -0.190325,-0.415254 z m 31.541998,0.190352 c -0.06618,0.136536 -0.138017,0.263382 -0.207625,0.397924 4.021964,1.946489 9.737543,4.714018 19.032477,9.204798 l 0,-0.484461 C 73.093057,58.357347 66.669301,55.240229 61.950778,52.954118 z m -31.144046,0.605551 c -4.255555,2.310639 -9.356491,5.073795 -19.361216,10.485165 l 0,0.484461 c 10.46863,-5.668771 15.800569,-8.558606 19.568843,-10.588977 -0.07198,-0.126846 -0.138756,-0.251809 -0.207627,-0.380649 z m 30.728794,0.173023 c -0.07331,0.133379 -0.148273,0.266759 -0.224929,0.397979 3.700945,2.022841 8.577078,4.696855 19.465033,10.658184 l 0,-0.501793 C 72.821479,59.931824 66.317796,56.360364 61.535526,53.732692 z M 31.239288,54.320968 C 27.43636,56.650044 22.313571,59.782499 11.445516,66.39794 l 0,0.484461 c 10.54987,-6.42564 15.88239,-9.656261 20.036004,-12.180783 -0.08039,-0.126182 -0.165016,-0.252253 -0.242232,-0.38065 z m 29.84638,0.190353 c -0.07937,0.128286 -0.159657,0.254578 -0.242232,0.380649 3.932487,2.422149 9.933297,6.112483 19.932194,12.267266 l 0,-0.501736 C 72.364917,61.481662 65.840694,57.448938 61.085668,54.511321 z m -29.361917,0.553671 c -4.019525,2.739569 -9.441369,6.429574 -20.278235,13.807197 l 0,0.536342 C 22.703245,61.736516 28.164953,58.008921 31.965983,55.428312 31.88224,55.310214 31.80461,55.18525 31.723751,55.064992 z m 28.860151,0.190298 c -0.08698,0.125683 -0.169368,0.257402 -0.259533,0.380649 4.019226,2.763377 9.579805,6.581277 20.451261,14.066754 l 0,-0.536395 C 72.089392,63.189686 65.417481,58.589115 60.583902,55.25529 z m -28.358385,0.536397 c -4.797086,3.643715 -11.620213,8.828578 -20.780001,15.779651 l 0,0.570944 c 11.287566,-8.575431 17.132609,-13.028286 21.056836,-16.00455 -0.09162,-0.116271 -0.188126,-0.227449 -0.276835,-0.346045 z m 27.839318,0.190297 c -0.0931,0.120922 -0.180669,0.245 -0.276836,0.363375 5.162762,3.971821 12.583474,9.653157 20.987631,16.09109 l 0,-0.536394 C 69.524929,63.265656 63.956724,58.97973 60.064835,55.981984 z m -27.285646,0.501793 c -3.737535,3.170104 -9.078853,7.707556 -19.949493,16.886992 -0.540107,0.45606 -0.852145,0.72714 -1.38418,1.176553 l 0,0.536343 c 0.672751,-0.567789 1.079262,-0.908964 1.76483,-1.48799 10.281051,-8.682742 15.141715,-12.785339 18.876753,-15.935345 0.213595,-0.318472 0.706336,-1.052807 0.743996,-1.107344 -0.01849,-0.02215 -0.03344,-0.04707 -0.05188,-0.06921 z m 27.268343,0.657485 0.847811,1.314971 c 3.692818,3.152662 9.585169,8.197834 19.430428,16.59283 0.24173,0.206132 0.209712,0.175902 0.449859,0.380651 l 0,-0.553675 C 80.199739,74.384544 79.890315,74.127311 79.287636,73.613002 70.820748,66.387641 64.613591,61.058879 60.047532,57.141262 z m -2.664546,1.626411 c -0.05827,0.04595 -0.115933,0.09208 -0.173022,0.138419 3.911825,4.566084 9.41734,11.004395 16.731281,19.568814 0.523758,0.613361 0.834786,0.971915 1.349572,1.574536 l 0.553675,0 C 66.922567,69.606136 61.59973,63.357842 58.144285,59.304016 57.98392,59.189572 57.406235,58.785059 57.382986,58.767673 z m -22.510225,0.121089 -1.487994,1.02086 c -3.310199,3.841433 -7.793757,9.039417 -16.194905,18.77291 -0.458927,0.531746 -0.724806,0.843356 -1.176553,1.36691 l 0.570975,0 c 0.508614,-0.588832 0.815033,-0.940693 1.332273,-1.539929 9.134502,-10.582 13.84037,-16.023984 16.956204,-19.620751 z m 0.484463,0.121143 c -2.989967,3.863361 -7.738995,9.997158 -15.84886,20.468535 -0.170514,0.220194 -0.263033,0.352076 -0.432557,0.571002 l 0.553672,0 c 0.07897,-0.101986 0.128458,-0.157301 0.207628,-0.259565 C 28.44025,68.681444 32.807265,63.05509 35.720571,59.304016 35.595801,59.210006 35.479364,59.10713 35.357224,59.009905 z m 21.47209,0.207627 c -0.117965,0.0903 -0.243034,0.172192 -0.363347,0.259506 3.638079,4.732954 8.731995,11.37497 15.485516,20.191754 0.113601,0.14827 0.180965,0.232872 0.294141,0.38065 l 0.55367,0 C 72.737312,79.968603 72.705908,79.92309 72.643575,79.841811 63.31351,67.67692 59.609877,62.854219 56.829314,59.217532 z m -25.936071,0.224902 c -1.392739,1.316078 -2.384028,2.255937 -5.415604,5.104193 -6.040322,5.675082 -9.877469,9.278818 -14.032123,13.184311 l 0,0.622883 c 1.230957,-1.155405 2.040143,-1.915595 3.408544,-3.200947 6.443179,-6.052021 10.722449,-10.048479 14.810724,-13.876402 0.45864,-0.679964 0.747285,-1.116812 1.228459,-1.834038 z m 5.190675,0.121143 c -2.633009,3.815528 -6.45829,9.349304 -14.170542,20.485865 l 0.553672,0 C 28.620453,71.159849 33.22026,64.530459 36.48187,59.840413 c -0.135755,-0.0913 -0.264932,-0.181881 -0.397952,-0.276836 z m 20.001399,0.190297 c -0.123978,0.08504 -0.254395,0.160344 -0.380649,0.242231 3.317586,4.837048 7.870656,11.48277 13.737991,20.053337 l 0.536369,0 C 63.134579,70.043925 59.02252,64.033204 56.085317,59.753874 z m -19.222798,0.32877 c -2.191649,3.566812 -5.171468,8.417862 -12.284596,19.966798 l 0.519067,0 c 5.142716,-8.35934 9.183685,-14.923123 12.146179,-19.724566 -0.128773,-0.07724 -0.254058,-0.161783 -0.38065,-0.242232 z m 18.444197,0.173023 c -0.125406,0.07657 -0.253182,0.15143 -0.380649,0.224901 2.884819,4.726422 6.825159,11.22011 11.903952,19.568874 l 0.519068,0 C 60.499296,68.798494 57.573992,63.986034 55.306716,60.255667 z m 6.868994,0.224901 1.090043,1.678346 c 2.054757,1.940899 3.826426,3.611992 6.315323,5.969249 4.875416,4.617569 7.693203,7.290198 11.194554,10.606303 l 0,-0.588276 C 71.967248,69.798977 66.328577,64.448016 62.17571,60.480568 z m -24.517287,0.08654 C 35.54101,64.47332 32.572231,69.930754 27.069447,80.049442 l 0.519067,0 c 4.435045,-8.156699 7.924629,-14.568662 10.485163,-19.257433 -0.138468,-0.0732 -0.279023,-0.148107 -0.415254,-0.224901 z M 54.493511,60.7228 c -0.140113,0.07558 -0.272877,0.153146 -0.415254,0.224957 2.56674,4.762908 6.055333,11.240647 10.277545,19.101685 l 0.501762,0 C 59.404858,69.896477 56.534562,64.542587 54.493511,60.7228 z m 5.778951,0.103813 c 3.32587,3.489296 7.176861,7.529993 15.589331,16.385257 1.049744,1.105017 1.68561,1.772026 2.699149,2.837572 l 0.605583,0 C 78.015994,78.837286 77.286375,78.059319 76.086719,76.796618 68.656012,68.975334 65.541113,65.712766 62.262225,62.26273 61.547446,61.750357 61.044264,61.376521 60.272462,60.826613 z m -21.800834,0.173023 c -2.225811,4.696411 -5.264634,11.085178 -9.049075,19.049806 l 0.501764,0 c 3.679007,-7.73696 6.728987,-14.143887 8.979867,-18.859453 -0.143639,-0.06639 -0.291059,-0.120147 -0.432556,-0.190353 z m 15.191375,0.155748 c -0.14189,0.06683 -0.288602,0.127234 -0.432556,0.190297 2.178759,4.628585 5.130612,10.934358 8.772239,18.703761 l 0.519073,0 C 58.9239,72.376932 55.888936,65.910707 53.663003,61.155384 z m -14.326262,0.242232 c -1.921995,4.706707 -4.554284,11.107046 -7.647594,18.651826 l 0.484463,0 c 3.099383,-7.554858 5.68785,-13.853316 7.595687,-18.478802 -0.144005,-0.05731 -0.290462,-0.112007 -0.432556,-0.173024 z m -8.183964,0.01719 -1.799434,1.228432 c -3.758541,3.921547 -7.441904,7.771673 -13.184313,13.755313 -1.412965,1.472324 -2.239625,2.341534 -3.495054,3.65075 l 0.605579,0 c 1.645701,-1.716161 1.464595,-1.527419 3.218217,-3.356635 7.930825,-8.272695 11.361072,-11.851237 14.655005,-15.277859 z m 21.645114,0.103815 c -0.148362,0.06035 -0.299493,0.116657 -0.449859,0.173019 1.882745,4.634344 4.44814,10.96049 7.439967,18.35766 l 0.467161,0 C 57.181627,72.432686 54.652918,66.146792 52.797891,61.518591 z M 40.201853,61.743517 C 38.605894,66.361309 36.425224,72.638456 33.851928,80.0493 l 0.467161,0 c 2.542882,-7.310519 4.728846,-13.564967 6.332623,-18.150034 -0.150012,-0.05037 -0.301696,-0.101321 -0.449859,-0.155749 z m 11.69632,0.103815 c -0.149624,0.05147 -0.298423,0.1083 -0.449858,0.155753 1.564804,4.546364 3.678236,10.739737 6.176903,18.046215 l 0.484463,0 C 55.629402,72.783185 53.470076,66.471378 51.898173,61.847386 z M 41.10157,62.037688 c -1.302469,4.574603 -3.097617,10.830099 -5.15607,18.011613 l 0.449859,0 c 2.032518,-7.080524 3.836387,-13.322236 5.15607,-17.873196 -0.150721,-0.04151 -0.300799,-0.09274 -0.449859,-0.138417 z m 9.896887,0.103816 c -0.148922,0.04209 -0.299343,0.08272 -0.449859,0.121085 0.0028,0.01 -0.0028,0.0072 0,0.01714 1.282946,4.544152 3.047427,10.831702 5.00035,17.769437 l 0.467161,0 C 53.999946,72.872855 52.265153,66.677652 50.998457,62.14131 z m -8.99717,0.155692 c -1.023844,4.532522 -2.424939,10.7708 -4.014122,17.752105 l 0.467161,0 c 1.594619,-6.986011 3.000077,-13.15907 4.031424,-17.648295 -0.164573,-0.03601 -0.321655,-0.06334 -0.484463,-0.10381 z m 8.08015,0.08654 c -0.161223,0.03653 -0.321578,0.07187 -0.484463,0.103816 0.997751,4.437234 2.355282,10.510743 3.927611,17.561754 l 0.484463,0 C 52.476484,73.158798 51.086114,66.921573 50.081437,62.383731 z m -7.163131,0.103816 c -0.70602,4.20303 -1.396676,8.359949 -2.958684,17.561754 l 0.46716,0 c 1.181166,-6.90241 2.226753,-13.01799 2.99329,-17.457938 -0.168073,-0.02715 -0.335332,-0.07203 -0.501766,-0.103816 z m 6.22881,0.06921 c -0.161982,0.02715 -0.320997,0.06367 -0.484463,0.08648 0.749617,4.476715 1.762792,10.605806 2.889475,17.406062 l 0.449859,0 C 50.850942,73.050082 49.866474,66.993853 49.147116,62.556729 z m -5.277186,0.08648 c -0.496998,4.440501 -1.174349,10.535153 -1.955154,17.406059 l 0.467161,0 c 1.097056,-9.585338 1.512177,-13.073084 2.00706,-17.336853 -0.1729,-0.01829 -0.3477,-0.04596 -0.519067,-0.06921 z m 4.30826,0.05204 c -0.114433,0.01274 -0.23061,0.01053 -0.346045,0.01714 l -0.08651,0.467186 c 0.484463,4.378994 1.131661,10.257603 1.85134,16.869666 l 0.467161,0 C 49.330331,73.280245 48.660316,67.17031 48.17819,62.695147 z m -3.373939,0.622889 c -0.229253,4.092348 -0.415552,7.4961 -0.951623,16.731296 l 0.449858,0 C 44.722618,72.801124 44.9387,69.072309 45.167599,65.134924 45.018345,64.378943 44.863743,63.622962 44.804251,63.318171 z m 2.560733,1.85136 -0.397952,2.110873 c 0.211736,3.881184 0.427646,7.787175 0.692091,12.769063 l 0.46716,0 C 47.81966,74.181043 47.575784,69.352357 47.364984,65.169532 z m -1.609109,2.941382 c -0.0028,3.698805 -0.01096,7.250555 -0.01727,11.938554 l 0.484463,0 c 0.0033,-2.385884 -1.1e-5,-5.020201 0,-7.111252 6e-6,-0.876521 -0.0011,-1.441155 0,-2.249295 -0.04623,-0.302527 -0.216602,-1.291496 -0.46716,-2.578007 z"
     id="path8284-6-9-1"
     style="fill:#000000" />
  <g
     transform="matrix(0.11635553,0,0,0.11635553,-23.036715,35.355766)"
     id="g3115-7-9-8-4-68"
     style="fill:#000000">
    <path
       d="m 594.04775,350.76742 c -0.4382,-1.0946 -2.7655,-50.7114 -6.1435,-70.4153 -3.3778,-19.7039 -6.6413,-37.081 -7.2522,-38.6157 -0.8947,-2.2479 -2.6171,-2.9368 -8.8572,-3.5426 -18.7273,-1.8178 -49.5083,-14.313 -66.1246,-26.8422 -4.3763,-3.3 -8.5813,-5.7603 -9.3445,-5.4674 -0.763,0.2928 -15.5952,10.4979 -32.9601,22.6782 -17.3649,12.1802 -31.8432,21.8749 -32.1742,21.5442 -0.3309,-0.331 9.5733,-15.0302 22.0093,-32.665 12.4359,-17.6348 22.6109,-32.387 22.6109,-32.783 0,-0.3959 -3.8164,-6.4928 -8.4808,-13.5488 -12.6889,-19.1951 -20.0938,-37.6719 -23.7333,-59.2193 -1.5612,-9.2433 -2.1589,-10.6126 -5.014,-11.4876 -1.7826,-0.546203 -19.36269,-3.782503 -39.06659,-7.191603 -33.9487,-5.873602 -71.0933,-5.868502 -69.773,-6.867902 0.3041,-0.2302 50.6661,-4.0454 71.0999,-7.5065 20.4337,-3.4614 38.19699,-6.5973 39.47419,-6.9689 1.5144,-0.4407 2.3219,-1.9987 2.3219,-4.48 0,-2.0926 0.8678,-7.8739 1.9285,-12.8476 4.6352,-21.7357 14.4892,-43.2714 27.6755,-60.4847995 2.1075,-2.7509 3.5057,-5.8510995 3.1073,-6.8891995 -0.3983,-1.038 -10.6797,-15.981701 -22.8475,-33.208001 -12.1677,-17.2264 -21.9023,-31.5313 -21.6325,-31.7889 0.2697,-0.2574 15.3493,9.9554 33.5101,22.6951 l 33.0196,23.1631 3.469,-3.1036 c 15.1848,-13.5855 44.8062,-26.6888 68.7683,-30.4201 l 10.898,-1.697 1.2334,-6.0174 c 0.6785,-3.3095 3.8323,-21.0939 7.0085,-39.520695 3.1762,-18.4267 6.9116,-58.9469 7.3292,-58.9469 0.4177,0 1.8894,36.6391 4.2424,50.3223 2.353,13.6833 5.4941,31.481195 6.9802,39.550895 l 2.7022,14.6722 10.4883,1.5287 c 11.382,1.6589 30.2508,7.5474 42.0088,13.1099 4.0669,1.9239 12.6234,6.9956 19.0145,11.2705 6.3911,4.2749 11.9791,7.7725 12.418,7.7725 0.4389,0 15.21,-10.1643 32.8251,-22.5874 17.615,-12.4231 32.2692,-22.3456 32.5646,-22.0501 0.2955,0.2954 -9.2322,14.4901 -21.1728,31.5438 -11.9404,17.0534 -22.1439,31.734701 -22.6742,32.624701 -0.5679,0.953 2.1238,6.1277995 6.5464,12.5854995 12.5409,18.3117995 21.2663,39.5450995 24.9332,60.6756995 1.0476,6.0376 2.4105,11.4165 3.0283,11.9531 0.6178,0.5367 5.0043,1.6303 9.7479,2.4307 4.7436,0.8004 21.7606,3.6681 37.8156,6.3726 16.0551,2.7045 64.6214,5.3082 65.1659,5.786 0.5445,0.4779 -50.5619,3.7354 -70.8103,7.239102 -20.2485,3.5037 -38.143,6.6718 -39.7659,7.040003 -2.1771,0.4942 -3.1592,1.9387 -3.7464,5.5104 -4.1969,25.5325 -14.991,52.882 -27.6936,70.1677 -3.3432,4.5496 -6.0786,8.573 -6.0786,8.941 0,0.3677 7.252,10.9755 16.1156,23.5726 8.8638,12.5971 19.4231,27.6179 23.4653,33.3794 4.0423,5.7615 6.7601,10.2397 6.0399,9.9514 -0.7206,-0.2882 -16.0954,-10.8927 -34.1665,-23.5651 l -32.8565,-23.0413 -4.8896,3.8501 c -18.0356,14.2017 -46.6328,26.313 -69.5758,29.4663 -4.1973,0.577 -7.9361,1.3538 -8.3086,1.7262 -0.3724,0.3724 -3.6601,17.6374 -7.3061,38.3667 -8.0235,45.6194 -8.1035,74.8096 -9.1169,72.2793 z m 0.2352,-134.6814 c 0.2853,19.2744 0.9437,77.4942 1.5535,85.8876 1.9493,-10.2407 6.5172,-53.1087 11.0826,-85.709 -4.1412,0.1155 -7.8295,0.2597 -12.6361,-0.1786 z m -14.9761,16.9394 c 0,-0.8523 -0.6355,-5.1984 -1.4119,-9.6579 l -1.412,-8.108 -12.1883,-3.0324 c -6.7038,-1.6678 -13.0317,-3.1434 -14.0624,-3.279 -1.9564,-0.2573 -8.6823,14.287 -7.4953,16.208 1.2159,1.9673 25.3068,8.3595 34.9113,9.2632 0.9123,0.086 1.6586,-0.5414 1.6586,-1.3939 z m 46.6258,-1.031 c 15.9792,-3.3205 23.1427,-5.9218 22.6409,-8.2208 -0.8202,-3.7578 -6.1033,-15.7355 -6.9405,-15.7355 -0.4814,0 -4.2298,1.1542 -8.3299,2.5648 -4.1001,1.4108 -10.0974,2.9611 -13.3272,3.4455 -5.6756,0.8511 -5.9009,1.0654 -6.7206,6.3915 -0.4664,3.0309 -1.1969,7.4513 -1.6235,9.8231 -0.4515,2.5102 -0.2204,4.3124 0.5528,4.3124 0.7308,0 6.9173,-1.1615 13.748,-2.581 z m -86.7634,-16.6913 c 1.642,-4.0296 2.9855,-8.1063 2.9855,-9.0593 0,-0.953 -3.0966,-3.1781 -6.8813,-4.9449 -3.7846,-1.7666 -9.2263,-4.9072 -12.0926,-6.9787 l -5.2114,-3.7666 -8.3188,5.6412 -8.3188,5.6411 3.4939,2.8521 c 7.2334,5.9046 27.7893,17.9171 30.6947,17.9374 0.3648,0 2.0068,-3.2926 3.6488,-7.3223 z m 122.7877,4.5106 c 3.0725,-1.5512 10.5771,-6.0582 16.6768,-10.0156 l 11.0905,-7.1953 -8.2123,-5.7153 -8.2124,-5.715 -10.7194,6.4426 c -5.8956,3.5434 -11.5197,6.4423 -12.4979,6.4423 -0.9781,0 -1.7803,0.4479 -1.7823,0.9952 0,1.4279 6.9345,17.5809 7.5535,17.5809 0.2845,0 3.0309,-1.2689 6.1035,-2.8198 z m -174.4814,-16.4197 24.0126,-17.2492 -3.9165,-3.9652 -3.9164,-3.9653 -21.5514,21.6903 c -11.8532,11.9295 -20.8964,21.476 -20.0962,21.2144 0.8004,-0.2615 12.2608,-8.2378 25.4679,-17.725 z m 227.0153,-6.3025 c -9.541,-13.3184 -17.9022,-24.7974 -18.5802,-25.5089 -0.7862,-0.8248 -2.4411,0.1128 -4.568,2.588 l -3.3353,3.8814 21.5976,21.6273 c 11.8786,11.8952 21.7407,21.6275 21.9155,21.6275 0.1749,0 -7.4884,-10.8969 -17.0296,-24.2153 z m 4.422,-27.148 c 5.504,-8.2416 12.9833,-21.8238 12.9833,-23.5771 0,-0.8102 -14.2843,-7.3252 -16.0606,-7.3252 -0.624,0 -2.4137,2.507 -3.9767,5.571 -1.5633,3.064 -4.9213,8.7023 -7.4625,12.5297 l -4.6204,6.9587 5.6177,8.0085 c 3.0896,4.4046 6.0417,7.7463 6.5601,7.4259 0.5185,-0.3205 3.6499,-4.6367 6.9591,-9.5915 z m -233.1645,1.3655 c 3.9776,-5.9905 4.701,-7.9657 3.5239,-9.6198 -1.7795,-2.5009 -11.9373,-20.2029 -12.4778,-21.7453 -0.2096,-0.5984 -4.1398,0.5422 -8.7336,2.5347 -7.569,3.2825 -8.2769,3.924 -7.5453,6.8384 1.5109,6.0204 16.7618,29.5301 19.1562,29.5301 0.5893,0 3.3239,-3.3921 6.0766,-7.5381 z m -18.3653,-35.1827 6.8305,-2.657 -3.0769,-9.4875 c -1.6923,-5.218 -3.4334,-11.6409 -3.8694,-14.2729 -0.7923,-4.7835 -0.7961,-4.7859 -10.2351,-6.3446 -5.1935,-0.8576 -9.6682,-1.334 -9.944,-1.0582 -0.8761,0.8761 3.3972,21.115 6.3005,29.8393 2.2424,6.7384 3.2279,8.2265 4.9798,7.5194 1.2012,-0.4847 5.2578,-2.077 9.0146,-3.5385 z m 271.5506,-9.0269 c 1.7715,-6.203 3.6256,-14.4535 4.1202,-18.3343 l 0.8993,-7.0558 -6.3342,0.9497 c -13.1477,1.9717 -12.4431,1.2622 -16.4306,16.5471 -1.9893,7.6253 -3.5284,13.9574 -3.4205,14.0713 1.192,1.2565 16.3505,6.5194 17.0318,5.9131 0.5023,-0.447 2.3626,-5.888 4.134,-12.0911 z m -271.729,-40.824205 c -63.38319,0.1181 -57.58869,1.7737 -53.09219,2.6289 52.96369,11.472005 53.75779,14.496605 53.09219,-2.6289 z m 303.1705,-3.6646 c -15.7271,-1.6859 -29.2819,-2.5969 -43.1356,-3.7904 -1.0147,6.7708 -0.079,7.6443 0.093,11.2673 14.0567,9e-4 52.7353,-4.0149 68.8282,-4.7154 z m -177.7099,-125.1636 1.9005,-63.705895 -9.8881,64.572795 c 15.9857,-0.1846 1.8722,0.029 7.9876,-0.8669 z m 150.5107,106.9581 c -0.8275,-6.3276 -6.7259,-29.5118 -8.0557,-31.6635 -0.3036,-0.491 -4.4539,0.6854 -9.223,2.6143 -7.3631,2.9781 -8.5558,3.9076 -7.9055,6.1609 0.4213,1.4594 2.0356,7.729 3.5873,13.9321 1.5518,6.203 2.9393,11.4512 3.0836,11.6627 0.1441,0.2112 4.3682,1.2001 9.3869,2.1972 5.0187,0.9972 9.3302,1.8692 9.581,1.9378 0.2511,0.069 0.046,-3.0101 -0.4546,-6.8415 z m -283.5512,4.2451 6.5006,-1.394 2.7877,-10.8795 c 1.5332,-5.9836 3.1856,-12.2246 3.672,-13.8689 0.7804,-2.6381 0,-3.379 -6.6069,-6.3026 -4.1204,-1.8221 -8.0067,-3.3131 -8.6364,-3.3131 -2.3467,0 -4.8707,8.4906 -10.1571,34.1668 -0.7223,3.5087 1.9223,3.847 12.4401,1.5913 z m 136.5415,-97.2886 c -74.0968,-1.3609 -113.2494,42.6399 -114.2825,112.728 -1.6106,67.838005 44.7612,115.626005 112.862,115.930005 67.813,2.6213 112.0987,-41.2328 116.5147,-102.175403 -2.9955,-87.256102 -48.6109,-121.098502 -115.0942,-126.482602 z m -119.0279,60.4155 c 0,-0.6133 2.986,-6.0834 6.6356,-12.1554 l 6.6355,-11.0403998 -4.0546,-6.3187 c -6.6613,-10.3805997 -6.8895,-10.3966997 -13.5891,-0.9505 -3.2611,4.598 -7.8029,12.0981998 -10.0927,16.6672998 l -4.1633,8.3072 6.9921,3.194 c 7.303,3.3359 11.6365,4.1913 11.6365,2.2965 z m 245.8872,-1.7555 c 3.7841,-1.5788 7.3766,-3.2991 7.983,-3.8228 1.4401,-1.2436 -2.954,-9.8713 -12.0045,-23.5708998 l -7.2834,-11.0247997 -5.9156,8.12970002 -5.9156,8.12989968 5.8935,9.5292998 c 3.2415,5.2411 6.3034,10.8727 6.8046,12.5147 1.125,3.6855 1.8605,3.6936 10.438,0.1154 z m -241.8471,-57.2833 c -11.8784,-11.7965 -21.08,-20.5056 -20.448,-19.3536 0.6319,1.152 8.7995,12.647 18.1501,25.5446 l 17.0011,23.4500002 3.4469,-4.0963997 3.4468,-4.0963 z m 226.4362,0.7768 c 10.3044,-10.7642 19.5354,-20.3928 20.5133,-21.397 1.3469,-1.3829 -45.1366,31.495201 -47.8741,33.861901 -0.8809,0.7615 5.4985,7.1062995 7.145,7.1062995 0.8141,0 9.9113,-8.8070995 20.2158,-19.5712005 z m -178.8779,1.085 c 5.989,-3.5995 11.5086,-6.7511 12.2658,-7.0035 0.8227,-0.2743 -0.065,-4.0607 -2.2068,-9.41 l -3.5834,-8.9512 -10.0956,5.4456 c -11.2572,6.072 -22.7679,14.1239 -22.7679,15.9264 0,1.1468 13.098,10.5371 14.6976,10.5371 0.4407,0 5.7013,-2.9449 11.6903,-6.5444 z m 153.098,1.1124 7.6571,-5.432 -5.6668,-4.2599 c -10.5088,-7.8998 -26.7329,-16.6858 -28.1435,-15.2407 -0.8497,0.8702 -7.4327,16.1634 -7.0631,16.4088 0.1918,0.1273 4.5283,2.4753 9.6368,5.2173 5.1085,2.7421 10.1622,5.8302 11.2309,6.8621 2.8379,2.740901 3.9069,2.433101 12.3486,-3.5556 z m -124.4211,-13.9207 c 3.6489,-1.1412 9.2786,-2.4795 12.5105,-2.974 6.4643,-0.9891 6.9217,-1.7548 8.6792,-14.5345 l 0.8932,-6.4935 -4.4071,0.5405 c -6.6634,0.8174 -25.3033,5.3709 -29.9032,7.3051 l -4.065,1.7091 3.311,8.2754 c 1.8208,4.5516 3.994,8.2691 4.8289,8.261 0.8349,-0.013 4.5037,-0.948 8.1525,-2.0891 z m 89.1229,-6.3811 c 3.8771,-9.207 4.242,-8.7739 -10.8167,-12.8407 -13.3903,-3.6163 -24.5683,-5.2015 -24.5683,-3.4843 0,0.7059 0.7032,5.0994 1.5624,9.7632 1.3765,7.47 1.969,8.5691 4.9758,9.2289 1.8773,0.412 7.593,1.8346 12.7013,3.1615 5.1085,1.3271 10.0901,2.3179 11.07,2.2026 0.9802,-0.1154 3.2641,-3.7295 5.0755,-8.0312 z"
       id="path4466-2-4-8-5-5-7-9-5-1"
       style="fill:#000000" />
    <g
       transform="translate(448.59396,-60.236733)"
       id="g3032-0-3-7-7-5"
       style="fill:#000000">
      <g
         transform="translate(-451.17391,-70.82263)"
         id="g4413-9-5-7-7-0"
         style="fill:#000000">
        <path
           d="m 534.12054,161.88159 0,10.40612 47.25268,0 -19.71898,19.71898 -8.90796,8.86746 12.59261,0 c 20.11218,0 36.40116,16.32948 36.40116,36.44165 0,20.11218 -16.28898,36.40117 -36.40116,36.40117 -20.11217,0 -36.44165,-16.28899 -36.44165,-36.40117 l -10.40612,0 c 0,25.8585 20.98928,46.8073 46.84777,46.8073 25.85849,0 46.80728,-20.9488 46.80728,-46.8073 0,-21.99252 -15.15229,-40.48031 -35.59135,-45.51157 l 29.96314,-29.92264 z"
           id="path4996-4-0-4-8-9-7-2-6-0-9-9-2-3-1-8-2-8"
           style="color:#000000;fill:#000000;fill-opacity:1;fill-rule:evenodd;stroke:none;stroke-width:19.99983215;marker:none;visibility:visible;display:inline;overflow:visible;enable-background:accumulate" />
        <g
           transform="matrix(-1,0,0,-1,1130.6373,475.18252)"
           id="g4409-68-5-8-6-3"
           style="fill:#000000">
          <path
             d="m 565.33889,208.68886 c -15.80241,0 -28.62694,12.82454 -28.62694,28.62694 0,12.13086 7.56029,22.4873 18.22083,26.6429 l 0,-11.74231 c -4.72379,-3.28183 -7.81471,-8.71082 -7.81471,-14.90059 0,-10.05608 8.16474,-18.22082 18.22082,-18.22082 10.05608,0 18.18034,8.16474 18.18034,18.22082 0,6.17974 -3.07517,11.61703 -7.77422,14.90059 l 0,11.74231 c 10.64945,-4.1556 18.18033,-14.51204 18.18033,-26.6429 0,-15.8024 -12.78404,-28.62694 -28.58645,-28.62694 z"
             id="path4996-4-0-4-2-1-9-8-5-8-9-47-1-5-3-6"
             style="color:#000000;fill:#000000;fill-opacity:1;fill-rule:evenodd;stroke:none;stroke-width:20;marker:none;visibility:visible;display:inline;overflow:visible;enable-background:accumulate" />
          <path
             d="m 565.33889,232.0925 c -2.87317,0 -5.2233,2.35013 -5.2233,5.2233 l 0,31.17786 10.40612,0 0,-31.17786 c 0,-2.87317 -2.30965,-5.2233 -5.18282,-5.2233 z"
             id="rect5023-1-6-7-7-5-2-9-1-8-8-8-6-9-2-50"
             style="color:#000000;fill:#000000;fill-opacity:1;fill-rule:evenodd;stroke:none;stroke-width:20;marker:none;visibility:visible;display:inline;overflow:visible;enable-background:accumulate" />
        </g>
        <path
           d="m 630.85289,149.49143 c -5.72232,0.0544 -10.36388,0.85328 -11.49937,1.53864 -2.27103,1.37086 -2.80747,4.65767 -2.10552,5.42576 0.70195,0.76784 11.43046,7.65845 16.11531,9.92023 12.61445,6.09045 -1.28767,29.39594 -12.14722,25.22572 -7.69621,-2.95537 -16.42692,-11.75721 -17.8969,-11.82329 -1.46996,-0.0648 -3.36351,0.9263 -3.84662,3.4822 -0.48303,2.55591 3.00841,14.89689 11.7828,24.49689 10.52926,11.52022 26.92634,-1.20851 26.92634,9.31286 l 0,48.87231 a 13.017768,13.017768 0 0 0 26.03553,0 l 0,-62.4367 0,-14.57666 c 0,-5.46709 6.70282,-27.38877 -15.46745,-36.56312 -5.37441,-2.22388 -12.17459,-2.92922 -17.8969,-2.87484 z"
           id="path5018-1-3-2-1-4-7-5-6-89-1-7-3-1"
           style="fill:#000000;fill-opacity:1;stroke:none" />
      </g>
      <path
         d="M 146.87871,20 C 76.80785,20 20,76.8078 20,146.8787 c 0,70.0708 56.80785,126.87868 126.87871,126.87868 70.07082,0 126.87872,-56.80788 126.87872,-126.87868 C 273.75743,76.8078 216.94953,20 146.87871,20 z m 0,17.3855 c 60.46032,0 109.45402,49.0329 109.45402,109.4932 0,60.4603 -48.9937,109.454 -109.45402,109.454 -60.47222,0.3888 -108.64533,-55.933 -109.49316,-109.454 0,-60.4603 49.03291,-109.4932 109.49322,-109.4932 z"
         id="path7438-70-0-9-0-2-8-0-2-7-3"
         style="color:#000000;fill:#000000;fill-opacity:1;fill-rule:evenodd;stroke:none;stroke-width:10.41600037;marker:none;visibility:visible;display:inline;overflow:visible;enable-background:accumulate" />
    </g>
  </g>
  <text
     x="46.015358"
     y="85.23172"
     id="text3150-0-3-2-6-83"
     xml:space="preserve"
     style="font-size:5.50315237px;font-style:normal;font-variant:normal;font-weight:600;font-stretch:normal;text-align:center;line-height:125%;letter-spacing:0px;word-spacing:0px;text-anchor:middle;fill:#000000;fill-opacity:1;stroke:none;font-family:Galette;-inkscape-font-specification:Galette Semi-Bold"><tspan
       x="46.015358"
       y="85.23172"
       id="tspan3154-2-2-1-9-9"
       style="font-size:5.50315237px;font-style:normal;font-variant:normal;font-weight:bold;font-stretch:normal;font-family:Cantarell;-inkscape-font-specification:Cantarell Bold">Hackerspace Magdeburg</tspan></text>
  <text
     x="-70.497757"
     y="91.304306"
     transform="matrix(0,-1,1,0,0,0)"
     id="text4081-6"
     xml:space="preserve"
     style="font-size:11.0734396px;font-style:normal;font-variant:normal;font-weight:normal;font-stretch:normal;line-height:125%;letter-spacing:0px;word-spacing:0px;fill:#000000;fill-opacity:1;stroke:none;font-family:Cantarell;-inkscape-font-specification:Cantarell"><tspan
       x="-70.497757"
       y="91.304306"
       id="tspan4083-8"
       style="font-size:11.0734396px">Embassy</tspan></text>
  <rect
     width="227.01244"
     height="76.105881"
     ry="1.485644"
     x="11.427993"
     y="11.428023"
     id="rect3221-7-8"
     style="fill:none;stroke:#000000;stroke-width:1.56946397;stroke-linecap:round;stroke-linejoin:round;stroke-miterlimit:4;stroke-opacity:1;stroke-dasharray:none" />
  <path
     d="m 81.123461,10.94376 0,76.607113"
     id="path4014-3-9"
     style="fill:none;stroke:#000000;stroke-width:0.98091489;stroke-linecap:butt;stroke-linejoin:miter;stroke-miterlimit:4;stroke-opacity:1;stroke-dasharray:none" />
  <path
     d="m 11.045256,80.113394 69.966276,0"
     id="path4012-8-4-2"
     style="fill:none;stroke:#000000;stroke-width:0.98091489;stroke-linecap:butt;stroke-linejoin:miter;stroke-miterlimit:4;stroke-opacity:1;stroke-dasharray:none" />
  <path
     d="m 95.253323,87.701292 0,-76.523237"
     id="path4012-8-4-2-6"
     style="fill:none;stroke:#000000;stroke-width:0.98091489;stroke-linecap:butt;stroke-linejoin:miter;stroke-miterlimit:4;stroke-opacity:1;stroke-dasharray:none" />
  <text
     x="-103.21742"
     y="101.1983"
     id="text3560"
     xml:space="preserve"
     style="font-size:40px;font-style:normal;font-variant:normal;font-weight:600;font-stretch:normal;line-height:125%;letter-spacing:0px;word-spacing:0px;fill:#000000;fill-opacity:1;stroke:none;font-family:Galette;-inkscape-font-specification:Galette Semi-Bold"><tspan
       x="-103.21742"
       y="101.1983"
       id="tspan3562" /></text>
  <g
     transform="translate(4.8799213,7.5674213)"
     id="g3122">
    <text
       x="92.258804"
       y="41.690807"
       id="text4647-90"
       xml:space="preserve"
       style="font-size:6px;font-style:normal;font-variant:normal;font-weight:normal;font-stretch:normal;line-height:125%;letter-spacing:0px;word-spacing:0px;fill:#000000;fill-opacity:1;stroke:none;font-family:Cantarell;-inkscape-font-specification:Cantarell"><tspan
         x="92.258804"
         y="41.690807"
         id="tspan4649-9"
         style="font-size:6px">Entry</tspan></text>
    <path
       d="m 90.733535,44.310637 142.931695,0"
       id="path4051-1-0-6-8"
       style="fill:none;stroke:#000000;stroke-width:1.05640471px;stroke-linecap:butt;stroke-linejoin:miter;stroke-opacity:1" />
    <path
       d="m 233.41602,8.2554104 0,36.3160006"
       id="path3037"
       style="fill:none;stroke:#000000;stroke-width:1px;stroke-linecap:butt;stroke-linejoin:miter;stroke-opacity:1" />
  </g>
  <text
     x="97.113487"
     y="84.831284"
     id="text4651-71"
     xml:space="preserve"
     style="font-size:6px;font-style:normal;font-variant:normal;font-weight:600;font-stretch:normal;line-height:125%;letter-spacing:0px;word-spacing:0px;fill:#000000;fill-opacity:1;stroke:none;font-family:Galette;-inkscape-font-specification:Galette Semi-Bold"><tspan
       x="97.113487"
       y="84.831284"
       id="tspan4653-3"
       style="font-size:6px;font-style:normal;font-variant:normal;font-weight:normal;font-stretch:normal;fill:#000000;font-family:Cantarell;-inkscape-font-specification:Cantarell">Exit</tspan></text>
  <path
     d="m 95.845639,87.493716 142.931701,0"
     id="path4051-1-0-6-8-4"
     style="fill:none;stroke:#000000;stroke-width:1.05640471px;stroke-linecap:butt;stroke-linejoin:miter;stroke-opacity:1" />
  <path
     d="m 238.29467,51.43849 0,36.316"
     id="path3037-7"
     style="fill:none;stroke:#000000;stroke-width:1px;stroke-linecap:butt;stroke-linejoin:miter;stroke-opacity:1" />
</svg>
