<?xml version="1.0" encoding="UTF-8" standalone="no"?>
<!-- Created with Inkscape (http://www.inkscape.org/) -->

<svg
   xmlns:dc="http://purl.org/dc/elements/1.1/"
   xmlns:cc="http://creativecommons.org/ns#"
   xmlns:rdf="http://www.w3.org/1999/02/22-rdf-syntax-ns#"
   xmlns:svg="http://www.w3.org/2000/svg"
   xmlns="http://www.w3.org/2000/svg"
   version="1.2"
   width="155.9055"
   height="166.53543"
   id="svg5512">
  <defs
     id="defs5514" />
  <metadata
     id="metadata5517">
    <rdf:RDF>
      <cc:Work
         rdf:about="">
        <dc:format>image/svg+xml</dc:format>
        <dc:type
           rdf:resource="http://purl.org/dc/dcmitype/StillImage" />
        <dc:title></dc:title>
      </cc:Work>
    </rdf:RDF>
  </metadata>
  <flowRoot
     transform="translate(-410.22862,-323.76781)"
     id="flowRoot3030"
     xml:space="preserve"
     style="font-size:40px;font-style:normal;font-variant:normal;font-weight:600;font-stretch:normal;line-height:125%;letter-spacing:0px;word-spacing:0px;fill:#000000;fill-opacity:1;stroke:none;font-family:Galette;-inkscape-font-specification:Galette Semi-Bold"><flowRegion
       id="flowRegion3032"><rect
         width="419.58395"
         height="110.6595"
         x="393.7634"
         y="527.45337"
         id="rect3034" /></flowRegion><flowPara
       id="flowPara3036" /></flowRoot>  <g
     transform="matrix(0.34165378,0,0,0.34165378,0.6850247,110.95291)"
     id="g3085">
    <g
       transform="translate(3.2783813,-323.76781)"
       id="g3089">
      <path
         d="m 271.06748,171.54555 c -8.25115,-3.47332 -12.27727,-6.2217 -17.30332,-11.81188 -19.71997,-21.93335 -12.53204,-56.5727 14.3658,-69.230177 5.12979,-2.41396 8.1823,-3.12807 14.87208,-3.47919 9.35873,-0.49121 21.78172,1.56902 17.17331,2.84802 -2.15624,0.59844 -1.6406,0.94189 3.75,2.49777 5.1733,1.49316 6.25,2.1749 6.25,3.95735 0,1.72547 -1.06081,2.48782 -5.33789,3.836047 -7.35855,2.31958 -8.02635,2.03907 -2.27198,-0.954317 l 4.89013,-2.54383 -4.39013,-2.53422 c -5.27821,-3.04687 -12.89013,-4.1066 -12.89013,-1.79456 0,0.83025 -0.73796,1.50955 -1.6399,1.50955 -1.39364,0 -1.55303,0.84176 -1.06139,5.60528 0.31818,3.082897 0.78803,5.814797 1.04411,6.070867 0.25608,0.25608 3.70181,-0.49819 7.65718,-1.67615 3.95537,-1.17796 7.42907,-1.90426 7.71933,-1.614 1.42489,1.42488 -1.16809,3.47668 -7.73423,6.12 l -7.23345,2.91196 0.64895,6.98246 c 0.35692,3.84035 0.85754,7.19106 1.11249,7.446 0.25495,0.25495 3.37127,-0.77225 6.92517,-2.28268 6.23547,-2.65011 6.51793,-2.92678 8.07064,-7.90498 0.88496,-2.83732 2.20553,-6.28376 2.9346,-7.65876 0.72906,-1.375 1.63829,-3.9625 2.02049,-5.75 0.54171,-2.533457 1.2066,-3.249997 3.01572,-3.249997 1.95016,0 2.50742,0.77789 3.4893,4.870807 0.87803,3.66003 1.81246,5.16422 3.7591,6.05117 1.89495,0.8634 2.7758,0.88071 3.28026,0.0645 0.39086,-0.63243 1.72071,1.18672 3.06946,4.19883 2.03389,4.54219 2.38288,6.91362 2.40099,16.31472 0.0204,10.59194 -0.11267,11.28027 -3.58688,18.55492 -4.49141,9.40455 -11.76455,16.81112 -20.8047,21.18638 -5.97563,2.89208 -7.60856,3.21737 -17.58724,3.50344 -9.73471,0.27907 -11.64505,0.0438 -16.60787,-2.0453 z m 19.37362,-4.53832 c 1.49177,-0.58998 0.92978,-1.5239 -3.62195,-6.01909 l -5.38769,-5.32077 -0.68137,3.83938 c -0.37476,2.11165 -0.90196,4.59301 -1.17156,5.51412 -0.338,1.15479 0.22187,1.81106 1.80332,2.11382 3.58143,0.68563 7.12953,0.63571 9.05925,-0.12746 z m -14.53008,-13.75878 c -0.52388,-0.52387 -11.76787,3.41976 -13.03702,4.57251 -0.78064,0.70905 2.24825,3.07395 7.30135,5.70075 2.4527,1.27501 2.53508,1.19458 4.35417,-4.2505 1.01979,-3.05255 1.64146,-5.76279 1.3815,-6.02276 z m 32.09426,6.83828 3.32992,-2.46432 -2.76701,-2.88814 c -1.52186,-1.58849 -3.07532,-2.88815 -3.45212,-2.88815 -0.37681,0 -0.96738,1.6875 -1.31238,3.75 -0.345,2.0625 -0.9234,4.83287 -1.28533,6.15637 -0.73985,2.70546 -0.19703,2.54067 5.48692,-1.66576 z m -9.37059,-5.6755 1.17386,-7.48274 -6.78824,-6.73622 c -3.73352,-3.70492 -6.98137,-6.53596 -7.21743,-6.29118 -0.55994,0.5806 -3.82769,18.10218 -3.43099,18.39685 0.1669,0.12398 3.41256,2.55143 7.21257,5.39435 3.80001,2.84292 7.12675,4.95131 7.39275,4.68531 0.26599,-0.266 1.01186,-3.85087 1.65748,-7.96637 z m -25.87654,-3.19329 5.08279,-0.6108 2.75494,-8.45944 c 1.51521,-4.6527 2.60221,-8.61219 2.41555,-8.79885 -0.5727,-0.5727 -17.01788,-2.65428 -17.46189,-2.21027 -0.51655,0.51655 -3.37095,16.5602 -3.37282,18.95754 -0.002,1.94088 1.99984,2.15306 10.58143,1.12182 z m -13.26921,-9.67264 c 1.47752,-5.11545 2.68641,-9.81581 2.68641,-10.44522 0,-0.646 -2.06865,-1.3075 -4.75,-1.51893 l -4.75,-0.37454 5.25,-0.18025 c 6.19711,-0.21277 6.09682,0.17577 3.58484,-13.88768 -1.46847,-8.22129 -1.8819,-9.25371 -3.5,-8.74015 -1.1349,0.3602 -1.85704,0.0798 -1.89303,-0.73503 -0.032,-0.72457 -2.42571,3.63261 -5.31936,9.68261 -4.99945,10.45277 -5.15823,11.02733 -3.19181,11.54948 1.51499,0.40228 1.98987,1.22215 1.77264,3.06042 -0.59937,5.07199 4.36342,20.89011 6.55408,20.89011 0.47839,0 2.0787,-4.18537 3.55623,-9.30082 z m 60.44982,4.34542 1.35431,-3.31904 -4.21348,0.67376 c -6.08185,0.97253 -6.59824,1.6346 -3.32035,4.25706 3.57182,2.85762 4.44919,2.62878 6.17952,-1.61178 z m -6.70758,-6.17567 c 3.54429,-1.17209 6.7769,-2.42732 7.18357,-2.7894 0.40667,-0.36208 -2.1695,-3.54138 -5.72483,-7.0651 l -6.46421,-6.40676 -9.09651,2.90707 c -5.00308,1.59888 -9.25023,3.15578 -9.4381,3.45977 -0.35004,0.56637 15.34638,12.02549 16.47221,12.02549 0.34304,0 3.52357,-0.95898 7.06787,-2.13107 z m 9.49056,-15.40814 c -0.79259,-5.28537 -1.38406,-5.76195 -5.40938,-4.35872 l -3.09274,1.07814 4.22787,4.90856 c 4.6012,5.34201 5.28066,5.08322 4.27425,-1.62798 z m -38.07487,-3.03945 c 0.38748,-3.61826 0.55241,-6.71896 0.3665,-6.89046 -0.63895,-0.5894 -22.2063,-9.49594 -22.43166,-9.26347 -0.12399,0.12792 1.16876,5.29508 2.87278,11.48258 l 3.09824,11.25 7.69481,0 7.69482,0 z m 31.37926,-5.51918 c 1.73207,-0.6038 3.14922,-1.33818 3.14922,-1.63196 0,-0.29378 -0.9367,-2.04976 -2.08156,-3.90218 -1.14486,-1.85242 -1.80402,-3.36803 -1.46482,-3.36803 0.33921,0 0.0917,-0.9811 -0.55007,-2.18022 -1.01412,-1.8949 -1.31318,-1.98039 -2.28519,-0.65322 -0.914,1.24797 -1.07202,12.83344 -0.17503,12.83344 0.14202,0 1.67537,-0.49402 3.40745,-1.09783 z M 285.73262,94.379423 c -0.80456,-5.36519 0.39192,-5.43761 -14.55727,0.88116 -7.4675,3.15639 -9.99624,4.63412 -8.75574,5.116637 0.95934,0.37315 1.50933,1.05857 1.22221,1.52315 -0.53298,0.86237 0.44112,1.09914 13.53353,3.28968 l 7.5,1.25485 0.8754,-3.72032 c 0.48147,-2.04618 0.56331,-5.801497 0.18187,-8.345157 z m 36.19273,5.695507 c -3.63381,-1.208677 -4.74956,-2.067417 -4.74812,-3.654387 10e-4,-1.66098 1.14352,-2.41061 5.72992,-3.76117 3.15043,-0.9277 5.84916,-1.56564 5.99717,-1.41763 0.14801,0.14801 -1.8296,1.42324 -4.39468,2.83385 l -4.66378,2.56473 4.91474,2.55634 c 5.51906,2.870647 4.2948,3.249877 -2.83525,0.878267 z M 310.26988,89.596113 c -2.23293,-7.76562 -2.17381,-8.28891 0.39543,-3.5 1.40161,2.6125 2.75612,4.75 3.01004,4.75 0.25392,0 1.57434,-2.1375 2.93427,-4.75 2.92514,-5.61933 3.18825,-4.90066 0.88311,2.41211 -1.35003,4.28278 -2.1094,5.33789 -3.84171,5.33789 -1.68175,0 -2.42927,-0.93962 -3.38114,-4.25 z"
         id="path3029-7-9-9"
         style="fill:#ffffff" />
      <path
         d="m 212.76681,153.69261 c -13.57912,-2.66185 -26.73772,-13.13077 -33.369,-26.54824 -4.13348,-8.36353 -4.21135,-8.76039 -4.21135,-21.4625 0,-12.236758 0.19528,-13.353649 3.58655,-20.512887 1.97259,-4.16432 6.14517,-10.276862 9.27238,-13.583434 5.51276,-5.82893 16.91997,-13.013824 20.66158,-13.013824 1.01137,0 2.12528,-0.746469 2.4754,-1.65883 0.48899,-1.274326 2.86245,-0.105755 10.23939,5.04129 5.28157,3.685073 9.97329,6.700122 10.42604,6.700122 0.45274,0 1.16986,-2.520646 1.59357,-5.601434 0.43119,-3.135112 1.35462,-5.601434 2.09725,-5.601434 0.72975,0 4.99296,1.756945 9.4738,3.904322 19.52013,9.354777 30.70332,30.744234 27.14204,51.912989 -4.7361,28.15188 -30.9537,45.99763 -59.38765,40.42386 z m 21.88138,-45.75203 c -3.30581,-6.7358 -6.24706,-12.911381 -6.53611,-13.72351 -0.28904,-0.81213 -0.87691,-1.152216 -1.30639,-0.755758 -0.70254,0.648546 12.39617,26.726188 13.42447,26.726188 0.23574,0 -2.27615,-5.51111 -5.58197,-12.24692 z m -18.54338,-1.56077 c 2.57236,-6.659713 4.38648,-12.399121 4.03138,-12.75423 -0.35511,-0.355108 -0.89334,0.05669 -1.19607,0.915051 -0.30272,0.858385 -2.33095,6.601999 -4.50718,12.763569 -2.17623,6.16158 -3.95692,11.41293 -3.95711,11.66966 -9.8e-4,1.471 1.45168,-1.7793 5.62898,-12.59405 z m -5.91267,-12.829615 c 1.56002,-2.019282 2.58494,-3.922852 2.27763,-4.230158 -0.3073,-0.307306 -3.43146,3.361354 -6.94258,8.152575 -4.18039,5.704508 -4.96655,7.164598 -2.27764,4.230158 2.25843,-2.46463 5.38259,-6.13329 6.94259,-8.152575 z m 40.61368,6.03819 c 0,-0.939125 -15.87239,-13.194536 -16.40234,-12.664596 -0.31085,0.310857 3.12647,3.35024 7.63851,6.754198 8.62309,6.505403 8.76383,6.600313 8.76383,5.910398 z M 227.49346,89.099543 c 4.09893,-4.394718 6.07136,-8.454358 4.38137,-9.017694 -0.877,-0.292327 -0.96012,-0.885452 -0.24487,-1.747289 0.59556,-0.717588 1.24676,-2.778882 1.44712,-4.58064 0.35042,-3.151064 0.003,-3.417389 -9.09253,-6.987654 -9.93573,-3.899685 -11.21375,-3.73423 -11.25133,1.456698 -0.0137,1.882227 1.71542,3.124782 8.40968,6.043544 4.63476,2.020784 8.22775,3.873246 7.98443,4.116572 -0.24332,0.243327 -3.56985,-0.427097 -7.39226,-1.489825 -7.58317,-2.108312 -8.965,-1.534467 -9.00185,3.738208 -0.014,1.990547 0.88315,2.641625 4.74407,3.443145 l 4.76122,0.988418 -3.73072,0.866665 -3.7307,0.866665 3.7307,2.637055 c 4.80297,3.394961 5.53312,3.367839 8.98567,-0.333868 z M 190.99034,56.799667 c -0.37401,-0.974627 -0.68001,-1.881657 -0.68001,-2.01562 0,-0.443085 8.36999,0.567852 10.08259,1.217786 1.22293,0.464112 0.91793,0.870339 -1.12029,1.492143 -4.65233,1.41928 -7.56493,1.175114 -8.28229,-0.694309 z m 29.84781,-7.346058 -8.12209,-4.533071 -0.071,3.184661 -0.071,3.184662 -1.12655,-2.800717 c -0.61959,-1.540394 -0.81526,-4.313105 -0.43482,-6.161576 0.38044,-1.848474 1.10406,-5.629442 1.60801,-8.402152 l 0.9163,-5.041302 0.14969,4.454809 c 0.13267,3.948788 1.06907,5.38038 8.24372,12.603227 4.45173,4.48164 7.85459,8.125059 7.56193,8.096492 -0.29265,-0.02857 -4.18703,-2.091833 -8.65418,-4.585033 z m 26.04666,0.262899 c 3.0808,-1.77952 5.74636,-3.100876 5.92345,-2.93634 0.17711,0.164525 -0.2819,1.624618 -1.02003,3.244631 -1.13192,2.484315 -2.05938,2.944058 -5.92346,2.936351 l -4.58139,-0.0089 5.60143,-3.2355 z m -14.82245,-5.861497 c -1.14558,-4.99146 -1.10135,-6.861981 0.26128,-11.049882 l 1.6403,-5.041302 -0.67008,5.331546 c -0.37729,3.001943 -0.17561,5.938977 0.46154,6.721721 0.63154,0.775844 0.8122,3.302875 0.40881,5.718347 l -0.72284,4.32815 z m -35.37654,2.705055 c -3.41299,-0.51308 -4.51899,-2.167845 -3.94344,-5.900056 0.33538,-2.174814 0.76848,-1.979884 4.79711,2.159095 2.43563,2.502361 3.94802,4.474222 3.36086,4.381899 -0.58717,-0.09231 -2.48371,-0.38074 -4.21453,-0.640938 z m 3.23675,-13.662973 c -3.96799,-4.063594 -4.1938,-4.655643 -3.45152,-9.049185 0.43683,-2.585611 1.1553,-4.274657 1.5966,-3.753454 1.37512,1.624158 7.12174,16.129623 6.59769,16.653682 -0.27335,0.273361 -2.4076,-1.459611 -4.74277,-3.851043 z"
         id="path3029-7-6-3"
         style="fill:#ffffff" />
      <path
         d="m 32.640693,334.64013 c -11.78954,-6.39694 -16.36913,-24.2704 -9.25802,-36.13266 1.94232,-3.24002 15.28539,-14.62986 29.65127,-25.31077 23.11166,-17.18327 27.19307,-19.41979 35.43914,-19.41979 6.53001,0 8.84086,-0.77422 7.72065,-2.58675 -0.93119,-1.50668 0.94379,-4.61406 4.490547,-7.44216 l 6.08926,-4.8554 -3.51184,-11.82564 c 26.67697,12.08283 26.21674,27.56895 33.75533,48.47377 -3.14071,-2.28604 -4.90081,-1.94021 -10.2488,2.01374 -4.80719,3.55412 -7.09887,4.13176 -8.96967,2.26096 -1.87081,-1.87081 -2.51282,-1.10797 -2.51282,2.98575 0,8.72635 -5.47405,14.50124 -33.704337,35.55664 -28.55392,21.29672 -35.46287,23.5953 -48.94071,16.28231 z m 40.87278,-24.47499 c 26.839407,-19.74496 30.675207,-23.73099 30.675207,-31.87666 0,-8.95823 -7.246157,-14.47299 -17.971647,-13.67751 -3.58436,0.26584 -37.91063,24.97709 -49.16543,35.39384 -7.98179,7.38749 -8.0829,16.25562 -0.25554,22.41262 3.2163,2.52994 7.63934,4.5999 9.82898,4.5999 2.18962,0 14.28943,-7.58348 26.88843,-16.85219 z"
         id="path3029-9"
         style="fill:#000000" />
      <g
         transform="translate(-375.95382,-34.167437)"
         id="g4413-0-3">
        <path
           d="m 534.12054,161.88159 0,10.40612 47.25268,0 -19.71898,19.71898 -8.90796,8.86746 12.59261,0 c 20.11218,0 36.40116,16.32948 36.40116,36.44165 0,20.11218 -16.28898,36.40117 -36.40116,36.40117 -20.11217,0 -36.44165,-16.28899 -36.44165,-36.40117 l -10.40612,0 c 0,25.8585 20.98928,46.8073 46.84777,46.8073 25.85849,0 46.80728,-20.9488 46.80728,-46.8073 0,-21.99252 -15.15229,-40.48031 -35.59135,-45.51157 l 29.96314,-29.92264 z"
           id="path4996-4-0-4-8-9-7-2-6-0-9-9-2-2-5"
           style="color:#000000;fill:#000000;fill-opacity:1;fill-rule:evenodd;stroke:none;stroke-width:19.99983215;marker:none;visibility:visible;display:inline;overflow:visible;enable-background:accumulate" />
        <g
           transform="matrix(-1,0,0,-1,1130.6373,475.18252)"
           id="g4409-1-0">
          <path
             d="m 565.33889,208.68886 c -15.80241,0 -28.62694,12.82454 -28.62694,28.62694 0,12.13086 7.56029,22.4873 18.22083,26.6429 l 0,-11.74231 c -4.72379,-3.28183 -7.81471,-8.71082 -7.81471,-14.90059 0,-10.05608 8.16474,-18.22082 18.22082,-18.22082 10.05608,0 18.18034,8.16474 18.18034,18.22082 0,6.17974 -3.07517,11.61703 -7.77422,14.90059 l 0,11.74231 c 10.64945,-4.1556 18.18033,-14.51204 18.18033,-26.6429 0,-15.8024 -12.78404,-28.62694 -28.58645,-28.62694 z"
             id="path4996-4-0-4-2-1-9-8-5-8-9-7-0"
             style="color:#000000;fill:#000000;fill-opacity:1;fill-rule:evenodd;stroke:none;stroke-width:20;marker:none;visibility:visible;display:inline;overflow:visible;enable-background:accumulate" />
          <path
             d="m 565.33889,232.0925 c -2.87317,0 -5.2233,2.35013 -5.2233,5.2233 l 0,31.17786 10.40612,0 0,-31.17786 c 0,-2.87317 -2.30965,-5.2233 -5.18282,-5.2233 z"
             id="rect5023-1-6-7-7-5-2-9-1-8-8-5-8"
             style="color:#000000;fill:#000000;fill-opacity:1;fill-rule:evenodd;stroke:none;stroke-width:20;marker:none;visibility:visible;display:inline;overflow:visible;enable-background:accumulate" />
        </g>
        <path
           d="m 188.8125,81.5625 c -5.72232,0.0544 -10.36451,0.84589 -11.5,1.53125 -2.07036,1.249728 -2.68688,4.081809 -2.25,5.15625 1.67385,0.292137 3.43257,0.575661 5.96875,1 l 7.21875,1.21875 0.84375,-3.5625 c 0.31089,-1.321231 0.42917,-3.390774 0.375,-5.34375 -0.21749,-1.37e-4 -0.44166,-0.002 -0.65625,0 z m 1.9375,0 c 0.0403,0.631843 0.0945,1.28626 0.1875,2.1875 0.30598,2.964722 0.75373,5.597496 1,5.84375 0.24626,0.246263 3.57125,-0.492195 7.375,-1.625 3.80375,-1.132805 7.12711,-1.841634 7.40625,-1.5625 1.37027,1.37026 -1.12306,3.364257 -7.4375,5.90625 l -6.9375,2.78125 0.40625,4.1875 c 3.02235,2.15828 3.93385,5.60504 3.4375,9.25 1.20707,-0.39788 2.79117,-1.02373 4.5,-1.75 5.99644,-2.54852 6.28806,-2.80638 7.78125,-7.59375 0.85103,-2.728557 2.11138,-6.052708 2.8125,-7.375 0.51815,-0.97721 1.09835,-2.592783 1.53125,-4.0625 -1.65272,-1.16266 -3.55323,-2.218456 -5.75,-3.15625 -6.24986,1.9437 -6.86983,1.697259 -2.125,-0.8125 -4.4247,-1.49675 -9.54196,-2.122283 -14.1875,-2.21875 z m 24.1875,7.8125 c -0.54624,3.19104 -0.54131,11.09375 0.1875,11.09375 0.13657,0 1.61556,-0.481836 3.28125,-1.0625 1.22604,-0.427399 2.27483,-0.905581 2.75,-1.25 -1.24225,-3.10716 -3.19153,-6.14568 -6.21875,-8.78125 z m 7.03125,13.4375 c -0.6096,0.0674 -1.376,0.31889 -2.34375,0.65625 l -2.96875,1.03125 4.0625,4.71875 c 0.94177,1.0934 1.69169,1.87123 2.3125,2.46875 0.13851,-2.73203 0.10268,-5.78238 -0.5,-8.875 -0.17125,-0.014 -0.35965,-0.0224 -0.5625,0 z m -11.0625,4 -8.75,2.8125 c -2.73188,0.87305 -5.1309,1.70991 -6.8125,2.34375 -0.27165,0.7653 -0.60098,1.53775 -0.96875,2.28125 3.53331,2.98895 13.64667,10.25 14.53125,10.25 0.32989,0 3.40406,-0.90409 6.8125,-2.03125 2.98881,-0.98839 5.63369,-1.99045 6.53125,-2.46875 0.026,-0.3094 0.0521,-0.66716 0.0937,-1.03125 -0.73526,-1.19131 -2.71234,-3.48462 -5.21875,-5.96875 l -6.21875,-6.1875 z m -50.09375,5.03125 c -0.46762,0.0457 -0.94799,0.20492 -1.40625,0.46875 l 2.6875,-0.0937 c -0.36171,-0.22686 -0.63914,-0.36721 -0.8125,-0.375 -0.14841,-0.007 -0.31288,-0.0152 -0.46875,0 z M 159.125,112.5 c -0.78243,0.55004 -1.46094,1.44853 -1.71875,2.8125 -0.32315,1.70993 1.18612,7.81293 4.8125,14.53125 0.56832,-1.55051 1.18826,-3.46376 1.8125,-5.625 1.04159,-3.60619 1.936,-6.95778 2.34375,-8.75 -1.30712,-1.03556 -2.54188,-1.99131 -3.40625,-2.625 -0.31113,-0.0399 -0.60356,-0.0987 -0.9375,-0.125 L 159.125,112.5 z m 9.90625,5.03125 c -0.98286,4.78005 -2.40495,13.23722 -2.40625,14.90625 -0.002,1.86648 1.90362,2.08546 10.15625,1.09375 l 4.90625,-0.59375 2.625,-8.125 c 0.13217,-0.40586 0.25021,-0.76357 0.375,-1.15625 -1.83338,0.6158 -3.73041,0.69155 -5.53125,0 -3.42298,-1.31444 -7.02256,-3.78049 -10.125,-6.125 z m 22.5625,1 c -1.04144,1.26441 -2.2309,2.37906 -3.46875,3.28125 -1.06303,5.17947 -2.34837,12.56087 -2.09375,12.75 0.14684,0.10908 3.09947,2.32311 6.34375,4.75 0.3863,-0.19515 0.76143,-0.40796 1.15625,-0.59375 3.08051,-1.44962 5.43017,-2.26812 8.25,-2.78125 l 1.03125,-6.53125 -6.53125,-6.46875 c -1.76828,-1.75474 -3.436,-3.31216 -4.6875,-4.40625 z m 30.5625,6.90625 -2.75,0.4375 c -5.84872,0.93525 -6.33974,1.57181 -3.1875,4.09375 3.4349,2.74807 4.27349,2.51551 5.9375,-1.5625 l 0,-2.96875 z m -14.25,8.6875 c -0.19085,0 -0.41906,0.46667 -0.65625,1.1875 0.38591,-0.0247 0.74406,-0.0409 1.15625,-0.0625 0.34883,-0.0183 0.7062,-0.0199 1.0625,-0.0312 -0.74364,-0.65329 -1.35215,-1.09375 -1.5625,-1.09375 z m -28.28125,1.3125 c -1.33243,0.005 -8.0891,2.32774 -11.03125,3.71875 0.19713,0.2246 0.391,0.43442 0.59375,0.65625 2.47747,2.71064 5.28784,4.07436 8.125,4.71875 0.3188,-0.74358 0.68867,-1.75686 1.1875,-3.25 0.98069,-2.93553 1.56249,-5.5625 1.3125,-5.8125 -0.0315,-0.0315 -0.0803,-0.0316 -0.1875,-0.0312 z m 5.5,2.375 -0.65625,3.6875 c -0.20965,1.18134 -0.42665,2.38589 -0.65625,3.4375 1.53754,-1.28309 3.15955,-2.50092 4.90625,-3.59375 L 185.125,137.8125 z m 24.03125,0.84375 c -0.63614,0.0385 -1.53797,0.31137 -2.8125,0.78125 -0.31379,1.61863 -0.68053,3.27906 -0.9375,4.21875 -0.71148,2.60175 -0.18481,2.45144 5.28125,-1.59375 l 0.3125,-0.25 c -0.28308,-2.11801 -0.36049,-3.24603 -1.84375,-3.15625 z m 13,1.9375 c -2.65314,3.20629 -5.73041,5.96773 -9.15625,8.25 0.3054,2.56318 0.68399,4.68399 0.90625,4.90625 0.25608,0.25608 3.70088,-0.50954 7.65625,-1.6875 0.20585,-0.0613 0.39089,-0.0975 0.59375,-0.15625 l 0,-11.3125 z m -21.375,1.09375 c -0.93029,0.39459 -2.00565,0.83785 -3.125,1.3125 1.37343,0.87452 2.30481,1.38269 2.4375,1.25 0.1313,-0.1313 0.38853,-1.11325 0.6875,-2.5625 z m 10.34375,8.34375 c -0.99696,0.5903 -2.0141,1.14885 -3.0625,1.65625 -1.73675,0.84055 -3.08354,1.45227 -4.40625,1.90625 l 6.40625,1.0625 0.875,-3.71875 c 0.064,-0.272 0.13777,-0.5807 0.1875,-0.90625 z m 11.03125,6.28125 c -0.20591,0.085 -0.37937,0.1637 -0.59375,0.25 l -7.21875,2.9375 0.625,6.96875 c 0.35692,3.84035 0.87005,7.18256 1.125,7.4375 0.2337,0.2337 2.88704,-0.63185 6.0625,-1.9375 l 0,-15.65625 z m -26.03125,0.15625 0,19.59375 5.53125,0 7.6875,0 0.71875,-6.5625 c 0.38748,-3.61826 0.52966,-6.73475 0.34375,-6.90625 -0.38116,-0.3516 -7.97829,-3.5596 -14.28125,-6.125 z m 26.03125,18.90625 c -3.88132,1.29229 -6.90598,2.40299 -7.0625,2.65625 -0.16569,0.26808 3.28478,3.00259 7.0625,5.78125 l 0,-8.4375 z m -26.03125,4.3125 0,18.3125 a 13.017768,13.017768 0 0 0 0.15625,1.65625 c 0.60878,-0.0667 1.18307,-0.1356 1.875,-0.21875 L 203.25,198.84375 206,190.375 c 1.51521,-4.6527 2.59291,-8.62584 2.40625,-8.8125 -0.36849,-0.36849 -7.26084,-1.33185 -12.28125,-1.875 z m 15.09375,2.4375 c -0.55994,0.5806 -3.8342,18.11158 -3.4375,18.40625 0.1669,0.12398 3.41874,2.53208 7.21875,5.375 0.87392,0.65381 1.70761,1.25633 2.5,1.8125 A 13.017768,13.017768 0 0 0 222.15625,198 l 0,-5.875 -3.75,-3.71875 c -3.73352,-3.70492 -6.95144,-6.52603 -7.1875,-6.28125 z m -10.125,19.3125 c -0.5826,0.002 -2.18901,0.42537 -4.0625,1.03125 a 13.017768,13.017768 0 0 0 3.03125,4.59375 c 0.93056,-2.86398 1.49707,-5.34667 1.25,-5.59375 -0.0327,-0.0327 -0.10731,-0.0316 -0.21875,-0.0312 z m 5.75,2.46875 -0.6875,3.8125 c -0.15096,0.85059 -0.32638,1.74933 -0.5,2.59375 a 13.017768,13.017768 0 0 0 7.46875,-0.1875 c -0.32498,-0.32696 -0.52699,-0.5317 -0.90625,-0.90625 l -5.375,-5.3125 z"
           transform="translate(442.05265,67.943934)"
           id="path5018-1-3-2-1-4-7-5-6-6-9"
           style="fill:#000000;fill-opacity:1;stroke:none" />
      </g>
      <path
         d="M 211.75508,57.182747 C 146.5366,62.46146 95.223833,116.94872 95.223833,183.5265 c 0,70.0708 56.804137,126.875 126.874997,126.875 70.07082,0 126.875,-56.8042 126.875,-126.875 0,-65.56082 -49.73673,-119.4829 -113.53125,-126.156253 l 0,17.59375 c 54.14758,6.600234 96.125,52.631003 96.125,108.562503 0,60.4603 -49.00843,109.46875 -109.46875,109.46875 -60.47222,0.3888 -108.65217,-55.94775 -109.5,-109.46875 0,-56.96629 43.55275,-103.716096 99.15625,-108.937503 l 0,-17.40625 z"
         id="path3785"
         style="color:#000000;fill:#000000;fill-opacity:1;fill-rule:evenodd;stroke:none;stroke-width:10.41600037;marker:none;visibility:visible;display:inline;overflow:visible;enable-background:accumulate" />
      <path
         d="m 191.15707,56.88725 c -0.37147,-0.968046 -0.6754,-1.868946 -0.6754,-2.00202 0,-0.440082 8.31347,0.564034 10.01451,1.209577 1.21469,0.460967 0.91175,0.864455 -1.11272,1.482075 -4.62092,1.40969 -7.51385,1.167176 -8.22639,-0.689632 z m 29.64634,-7.296469 -8.06726,-4.502465 -0.0706,3.163162 -0.0706,3.163164 -1.11894,-2.781801 c -0.61542,-1.530016 -0.80979,-4.284002 -0.4319,-6.119999 0.37787,-1.835977 1.0966,-5.591438 1.59716,-8.345424 l 0.91012,-5.007267 0.14867,4.424733 c 0.13177,3.922135 1.06185,5.344058 8.18807,12.518145 4.42169,4.451382 7.80157,8.070208 7.5109,8.041837 -0.29068,-0.02845 -4.15878,-2.07771 -8.59577,-4.554085 z m 25.87083,0.261121 c 3.05999,-1.767493 5.70754,-3.079944 5.88346,-2.91651 0.17591,0.163412 -0.28,1.613652 -1.01314,3.222738 -1.12428,2.467531 -2.04548,2.924178 -5.88347,2.916522 l -4.55047,-0.0086 5.56362,-3.21366 z m -14.7224,-5.82192 c -1.13783,-4.957775 -1.09391,-6.815664 0.25951,-10.975297 l 1.62923,-5.007267 -0.66555,5.295551 c -0.37475,2.981689 -0.17444,5.898895 0.45842,6.676366 0.62729,0.770596 0.80672,3.280571 0.40605,5.679725 l -0.71796,4.298931 z m -35.13773,2.686786 c -3.38994,-0.509614 -4.48848,-2.153208 -3.91682,-5.860225 0.33313,-2.160127 0.7633,-1.966516 4.76472,2.144525 2.41921,2.485474 3.92137,4.444023 3.33818,4.352323 -0.58321,-0.09165 -2.46694,-0.378175 -4.18608,-0.636623 z m 3.21491,-13.570726 c -3.94121,-4.036162 -4.1655,-4.624225 -3.42822,-8.98811 0.43388,-2.56814 1.14749,-4.245795 1.58582,-3.728118 1.36583,1.613203 7.07366,16.020742 6.55315,16.541263 -0.2715,0.271516 -2.39135,-1.449748 -4.71075,-3.825035 z"
         id="path3029-7-6-3-0-3-2-7"
         style="fill:#000000" />
      <path
         d="m 234.50508,86.924508 c -0.31085,0.310857 3.11296,3.377292 7.625,6.78125 8.62309,6.505402 8.78125,6.596172 8.78125,5.90625 0,-0.939125 -15.8763,-13.21744 -16.40625,-12.6875 z m -22.03125,2.40625 c -0.6093,0.167385 -3.55208,3.66448 -6.84375,8.15625 -4.18039,5.704512 -4.97016,7.153182 -2.28125,4.218752 2.25843,-2.464633 5.3775,-6.136967 6.9375,-8.156252 1.56002,-2.019282 2.58856,-3.911444 2.28125,-4.21875 -0.0192,-0.01921 -0.0531,-0.01116 -0.0937,0 z m 14.78125,3.96875 c -0.12002,0.01118 -0.23638,0.08839 -0.34375,0.1875 -0.70254,0.648546 12.37795,26.718752 13.40625,26.718752 0.23574,0 -2.25668,-5.5142 -5.5625,-12.25 -3.30581,-6.73581 -6.2422,-12.906623 -6.53125,-13.718752 -0.21678,-0.609098 -0.60868,-0.971038 -0.96875,-0.9375 z m -7.3125,0.21875 c -0.31538,0.0062 -0.6792,0.387479 -0.90625,1.03125 -0.30272,0.858385 -2.32377,6.619672 -4.5,12.781252 -2.17623,6.16158 -3.96856,11.39951 -3.96875,11.65625 -9.8e-4,1.471 1.4477,-1.77901 5.625,-12.59375 2.57236,-6.659716 4.38635,-12.394893 4.03125,-12.750002 -0.0888,-0.08878 -0.17612,-0.127081 -0.28125,-0.125 z"
         id="rect3811-8"
         style="fill:#000000;fill-opacity:1;stroke:none" />
      <path
         d="m 211.03107,71.676294 c -0.0824,-1.96875 -0.16838,-13.872678 0.18174,-14.785039 0.48899,-1.274326 2.86245,-0.105755 10.23939,5.04129 5.28157,3.685073 9.97329,6.700122 10.42604,6.700122 0.45274,0 1.16986,-2.520646 1.59357,-5.601434 0.43119,-3.135112 1.35462,-5.601434 2.09725,-5.601434 0.72975,0 0.25843,8.220379 -0.11222,12.782584 0.37965,1.066418 0.0409,3.584098 0.007,4.746285 -0.93081,-0.11332 -1.498,-0.139581 -1.89651,-0.14362 -0.30553,1.554707 -0.80553,3.145664 -1.36151,4.234652 2.05051,1.853572 0.70208,3.524286 -0.97118,6.504247 -1.15639,1.909357 -5.67107,6.72163 -7.31095,6.792212 -2.09481,0.4377 -6.40836,-3.23493 -9.74232,-5.675558 -0.74085,-0.590677 -1.01828,-1.314723 -1.42562,-2.7564 -0.36085,-1.237142 -0.3755,-4.15457 -0.2746,-5.901452 0.074,-1.280865 0.12695,-2.131327 0.12615,-3.247447 -4e-5,-0.05754 4.4e-4,-0.11404 0.002,-0.169337 0.0106,-0.08769 -0.2656,-0.04761 -1.05268,0.01631 -0.72689,-1.083895 -0.58356,-2.132123 -0.52507,-2.935984 z m 16.49283,17.40161 c 4.09893,-4.394718 6.07136,-8.454358 4.38137,-9.017694 -0.877,-0.292327 -0.96012,-0.885452 -0.24487,-1.747289 0.59556,-0.717588 1.24676,-2.778882 1.44712,-4.58064 0.35042,-3.151065 0.003,-3.41739 -9.09253,-6.987655 -9.93573,-3.899685 -11.21375,-3.73423 -11.25133,1.456698 -0.0137,1.882227 1.71542,3.124782 8.40968,6.043545 4.63476,2.020784 8.22775,3.873246 7.98443,4.116572 -0.24332,0.243327 -3.56985,-0.427097 -7.39226,-1.489825 -7.58317,-2.108312 -8.965,-1.534467 -9.00185,3.738208 -0.014,1.990547 0.88315,2.641625 4.74407,3.443145 l 4.76122,0.988418 -3.73072,0.866665 -3.7307,0.866665 3.7307,2.637055 c 4.80297,3.394961 5.53312,3.367839 8.98567,-0.333868 z"
         id="path3029-7-6-3-1-5-0"
         style="fill:#000000" />
      <path
         d="m 321.92535,99.824927 c -3.63381,-1.20868 -4.74956,-2.06742 -4.74812,-3.65439 10e-4,-1.66098 1.14352,-2.41061 5.72992,-3.76117 3.15043,-0.9277 5.84916,-1.56564 5.99717,-1.41763 0.14801,0.14801 -1.8296,1.42324 -4.39468,2.83385 l -4.66378,2.56473 4.91474,2.55634 c 5.51906,2.870653 4.2948,3.249883 -2.83525,0.87827 z m -11.65547,-10.47882 c -2.23293,-7.765616 -2.17381,-8.288906 0.39543,-3.5 1.40161,2.6125 2.75612,4.75 3.01004,4.75 0.25392,0 1.57434,-2.1375 2.93427,-4.75 2.92514,-5.619326 3.18825,-4.900656 0.88311,2.41211 -1.35003,4.28278 -2.1094,5.33789 -3.84171,5.33789 -1.68175,0 -2.42927,-0.93962 -3.38114,-4.25 z"
         id="path3029-7-9-9-8"
         style="fill:#000000" />
    </g>
    <text
       x="225.27228"
       y="25.708281"
       id="text3018"
       xml:space="preserve"
       style="font-size:40px;font-style:normal;font-variant:normal;font-weight:600;font-stretch:normal;text-align:center;line-height:125%;letter-spacing:0px;word-spacing:0px;text-anchor:middle;fill:#000000;fill-opacity:1;stroke:none;font-family:Galette;-inkscape-font-specification:Galette Semi-Bold"><tspan
         x="225.27228"
         y="25.708281"
         id="tspan3020">Netz39</tspan><tspan
         x="225.27228"
         y="75.708282"
         id="tspan3022">Hackerspace Magdeburg</tspan><tspan
         x="225.27228"
         y="126.67972"
         id="tspan3024">outpost on <tspan
   id="tspan3028"
   style="text-align:center;text-anchor:middle;font-family:Frankfurter Medium;-inkscape-font-specification:Frankfurter Medium">OHM</tspan><tspan
   id="tspan3026"
   style="font-style:normal;font-variant:normal;font-weight:bold;font-stretch:normal;text-align:center;text-anchor:middle;font-family:DicotLight;-inkscape-font-specification:DicotLight Bold">2013</tspan></tspan></text>
    <rect
       width="424.1947"
       height="472.14716"
       ry="15.830722"
       x="12.5"
       y="-318.11179"
       id="rect3105"
       style="fill:none;stroke:#000000;stroke-width:5;stroke-miterlimit:4;stroke-opacity:1;stroke-dasharray:none" />
  </g>
</svg>
