<?xml version="1.0" encoding="UTF-8" standalone="no"?>
<!-- Created with Inkscape (http://www.inkscape.org/) -->

<svg
   xmlns:dc="http://purl.org/dc/elements/1.1/"
   xmlns:cc="http://creativecommons.org/ns#"
   xmlns:rdf="http://www.w3.org/1999/02/22-rdf-syntax-ns#"
   xmlns:svg="http://www.w3.org/2000/svg"
   xmlns="http://www.w3.org/2000/svg"
   xmlns:sodipodi="http://sodipodi.sourceforge.net/DTD/sodipodi-0.dtd"
   xmlns:inkscape="http://www.inkscape.org/namespaces/inkscape"
   version="1.1"
   width="166.53543"
   height="226.77165"
   id="svg5512"
   inkscape:version="0.48.3.1 r9886"
   sodipodi:docname="netz39-logo.since_2013-07-11.Field_Office_Edit.No7.svg">
  <sodipodi:namedview
     pagecolor="#ffffff"
     bordercolor="#666666"
     borderopacity="1"
     objecttolerance="10"
     gridtolerance="10"
     guidetolerance="10"
     inkscape:pageopacity="0"
     inkscape:pageshadow="2"
     inkscape:window-width="1280"
     inkscape:window-height="972"
     id="namedview36"
     showgrid="false"
     units="mm"
     inkscape:zoom="4.2836074"
     inkscape:cx="210.65175"
     inkscape:cy="459.12004"
     inkscape:window-x="0"
     inkscape:window-y="26"
     inkscape:window-maximized="1"
     inkscape:current-layer="svg5512" />
  <defs
     id="defs5514">
    <filter
       color-interpolation-filters="sRGB"
       id="filter7166">
      <feGaussianBlur
         id="feGaussianBlur7168"
         stdDeviation="0.087649774" />
    </filter>
  </defs>
  <metadata
     id="metadata5517">
    <rdf:RDF>
      <cc:Work
         rdf:about="">
        <dc:format>image/svg+xml</dc:format>
        <dc:type
           rdf:resource="http://purl.org/dc/dcmitype/StillImage" />
        <dc:title />
      </cc:Work>
    </rdf:RDF>
  </metadata>
  <text
     x="468.1424"
     y="-261.86139"
     id="text4136"
     xml:space="preserve"
     style="font-size:40px;font-style:normal;font-variant:normal;font-weight:600;font-stretch:normal;line-height:125%;letter-spacing:0px;word-spacing:0px;fill:#000000;fill-opacity:1;stroke:none;font-family:Galette;-inkscape-font-specification:Galette Semi-Bold"
     sodipodi:linespacing="125%"><tspan
       x="468.1424"
       y="-261.86139"
       id="tspan4138" /></text>
  <g
     transform="matrix(0.8614407,0,0,0.8614407,-246.69971,-455.02747)"
     id="g3115-7-9-8-4-68"
     style="fill:#999999">
    <path
       d="m 594.04775,350.76742 c -0.4382,-1.0946 -2.7655,-50.7114 -6.1435,-70.4153 -3.3778,-19.7039 -6.6413,-37.081 -7.2522,-38.6157 -0.8947,-2.2479 -2.6171,-2.9368 -8.8572,-3.5426 -18.7273,-1.8178 -49.5083,-14.313 -66.1246,-26.8422 -4.3763,-3.3 -8.5813,-5.7603 -9.3445,-5.4674 -0.763,0.2928 -15.5952,10.4979 -32.9601,22.6782 -17.3649,12.1802 -31.8432,21.8749 -32.1742,21.5442 -0.3309,-0.331 9.5733,-15.0302 22.0093,-32.665 12.4359,-17.6348 22.6109,-32.387 22.6109,-32.783 0,-0.3959 -3.8164,-6.4928 -8.4808,-13.5488 -12.6889,-19.1951 -20.0938,-37.6719 -23.7333,-59.2193 -1.5612,-9.2433 -2.1589,-10.6126 -5.014,-11.4876 -1.7826,-0.546203 -19.36269,-3.782503 -39.06659,-7.191603 -33.9487,-5.873602 -71.0933,-5.868502 -69.773,-6.867902 0.3041,-0.2302 50.6661,-4.0454 71.0999,-7.5065 20.4337,-3.4614 38.19699,-6.5973 39.47419,-6.9689 1.5144,-0.4407 2.3219,-1.9987 2.3219,-4.48 0,-2.0926 0.8678,-7.8739 1.9285,-12.8476 4.6352,-21.7357 14.4892,-43.2714 27.6755,-60.4847995 2.1075,-2.7509 3.5057,-5.8510995 3.1073,-6.8891995 -0.3983,-1.038 -10.6797,-15.981701 -22.8475,-33.208001 -12.1677,-17.2264 -21.9023,-31.5313 -21.6325,-31.7889 0.2697,-0.2574 15.3493,9.9554 33.5101,22.6951 l 33.0196,23.1631 3.469,-3.1036 c 15.1848,-13.5855 44.8062,-26.6888 68.7683,-30.4201 l 10.898,-1.697 1.2334,-6.0174 c 0.6785,-3.3095 3.8323,-21.0939 7.0085,-39.520695 3.1762,-18.4267 6.9116,-58.9469 7.3292,-58.9469 0.4177,0 1.8894,36.6391 4.2424,50.3223 2.353,13.6833 5.4941,31.481195 6.9802,39.550895 l 2.7022,14.6722 10.4883,1.5287 c 11.382,1.6589 30.2508,7.5474 42.0088,13.1099 4.0669,1.9239 12.6234,6.9956 19.0145,11.2705 6.3911,4.2749 11.9791,7.7725 12.418,7.7725 0.4389,0 15.21,-10.1643 32.8251,-22.5874 17.615,-12.4231 32.2692,-22.3456 32.5646,-22.0501 0.2955,0.2954 -9.2322,14.4901 -21.1728,31.5438 -11.9404,17.0534 -22.1439,31.734701 -22.6742,32.624701 -0.5679,0.953 2.1238,6.1277995 6.5464,12.5854995 12.5409,18.3117995 21.2663,39.5450995 24.9332,60.6756995 1.0476,6.0376 2.4105,11.4165 3.0283,11.9531 0.6178,0.5367 5.0043,1.6303 9.7479,2.4307 4.7436,0.8004 21.7606,3.6681 37.8156,6.3726 16.0551,2.7045 64.6214,5.3082 65.1659,5.786 0.5445,0.4779 -50.5619,3.7354 -70.8103,7.239102 -20.2485,3.5037 -38.143,6.6718 -39.7659,7.040003 -2.1771,0.4942 -3.1592,1.9387 -3.7464,5.5104 -4.1969,25.5325 -14.991,52.882 -27.6936,70.1677 -3.3432,4.5496 -6.0786,8.573 -6.0786,8.941 0,0.3677 7.252,10.9755 16.1156,23.5726 8.8638,12.5971 19.4231,27.6179 23.4653,33.3794 4.0423,5.7615 6.7601,10.2397 6.0399,9.9514 -0.7206,-0.2882 -16.0954,-10.8927 -34.1665,-23.5651 l -32.8565,-23.0413 -4.8896,3.8501 c -18.0356,14.2017 -46.6328,26.313 -69.5758,29.4663 -4.1973,0.577 -7.9361,1.3538 -8.3086,1.7262 -0.3724,0.3724 -3.6601,17.6374 -7.3061,38.3667 -8.0235,45.6194 -8.1035,74.8096 -9.1169,72.2793 z m 0.2352,-134.6814 c 0.2853,19.2744 0.9437,77.4942 1.5535,85.8876 1.9493,-10.2407 6.5172,-53.1087 11.0826,-85.709 -4.1412,0.1155 -7.8295,0.2597 -12.6361,-0.1786 z m -14.9761,16.9394 c 0,-0.8523 -0.6355,-5.1984 -1.4119,-9.6579 l -1.412,-8.108 -12.1883,-3.0324 c -6.7038,-1.6678 -13.0317,-3.1434 -14.0624,-3.279 -1.9564,-0.2573 -8.6823,14.287 -7.4953,16.208 1.2159,1.9673 25.3068,8.3595 34.9113,9.2632 0.9123,0.086 1.6586,-0.5414 1.6586,-1.3939 z m 46.6258,-1.031 c 15.9792,-3.3205 23.1427,-5.9218 22.6409,-8.2208 -0.8202,-3.7578 -6.1033,-15.7355 -6.9405,-15.7355 -0.4814,0 -4.2298,1.1542 -8.3299,2.5648 -4.1001,1.4108 -10.0974,2.9611 -13.3272,3.4455 -5.6756,0.8511 -5.9009,1.0654 -6.7206,6.3915 -0.4664,3.0309 -1.1969,7.4513 -1.6235,9.8231 -0.4515,2.5102 -0.2204,4.3124 0.5528,4.3124 0.7308,0 6.9173,-1.1615 13.748,-2.581 z m -86.7634,-16.6913 c 1.642,-4.0296 2.9855,-8.1063 2.9855,-9.0593 0,-0.953 -3.0966,-3.1781 -6.8813,-4.9449 -3.7846,-1.7666 -9.2263,-4.9072 -12.0926,-6.9787 l -5.2114,-3.7666 -8.3188,5.6412 -8.3188,5.6411 3.4939,2.8521 c 7.2334,5.9046 27.7893,17.9171 30.6947,17.9374 0.3648,0 2.0068,-3.2926 3.6488,-7.3223 z m 122.7877,4.5106 c 3.0725,-1.5512 10.5771,-6.0582 16.6768,-10.0156 l 11.0905,-7.1953 -8.2123,-5.7153 -8.2124,-5.715 -10.7194,6.4426 c -5.8956,3.5434 -11.5197,6.4423 -12.4979,6.4423 -0.9781,0 -1.7803,0.4479 -1.7823,0.9952 0,1.4279 6.9345,17.5809 7.5535,17.5809 0.2845,0 3.0309,-1.2689 6.1035,-2.8198 z m -174.4814,-16.4197 24.0126,-17.2492 -3.9165,-3.9652 -3.9164,-3.9653 -21.5514,21.6903 c -11.8532,11.9295 -20.8964,21.476 -20.0962,21.2144 0.8004,-0.2615 12.2608,-8.2378 25.4679,-17.725 z m 227.0153,-6.3025 c -9.541,-13.3184 -17.9022,-24.7974 -18.5802,-25.5089 -0.7862,-0.8248 -2.4411,0.1128 -4.568,2.588 l -3.3353,3.8814 21.5976,21.6273 c 11.8786,11.8952 21.7407,21.6275 21.9155,21.6275 0.1749,0 -7.4884,-10.8969 -17.0296,-24.2153 z m 4.422,-27.148 c 5.504,-8.2416 12.9833,-21.8238 12.9833,-23.5771 0,-0.8102 -14.2843,-7.3252 -16.0606,-7.3252 -0.624,0 -2.4137,2.507 -3.9767,5.571 -1.5633,3.064 -4.9213,8.7023 -7.4625,12.5297 l -4.6204,6.9587 5.6177,8.0085 c 3.0896,4.4046 6.0417,7.7463 6.5601,7.4259 0.5185,-0.3205 3.6499,-4.6367 6.9591,-9.5915 z m -233.1645,1.3655 c 3.9776,-5.9905 4.701,-7.9657 3.5239,-9.6198 -1.7795,-2.5009 -11.9373,-20.2029 -12.4778,-21.7453 -0.2096,-0.5984 -4.1398,0.5422 -8.7336,2.5347 -7.569,3.2825 -8.2769,3.924 -7.5453,6.8384 1.5109,6.0204 16.7618,29.5301 19.1562,29.5301 0.5893,0 3.3239,-3.3921 6.0766,-7.5381 z m -18.3653,-35.1827 6.8305,-2.657 -3.0769,-9.4875 c -1.6923,-5.218 -3.4334,-11.6409 -3.8694,-14.2729 -0.7923,-4.7835 -0.7961,-4.7859 -10.2351,-6.3446 -5.1935,-0.8576 -9.6682,-1.334 -9.944,-1.0582 -0.8761,0.8761 3.3972,21.115 6.3005,29.8393 2.2424,6.7384 3.2279,8.2265 4.9798,7.5194 1.2012,-0.4847 5.2578,-2.077 9.0146,-3.5385 z m 271.5506,-9.0269 c 1.7715,-6.203 3.6256,-14.4535 4.1202,-18.3343 l 0.8993,-7.0558 -6.3342,0.9497 c -13.1477,1.9717 -12.4431,1.2622 -16.4306,16.5471 -1.9893,7.6253 -3.5284,13.9574 -3.4205,14.0713 1.192,1.2565 16.3505,6.5194 17.0318,5.9131 0.5023,-0.447 2.3626,-5.888 4.134,-12.0911 z m -271.729,-40.824205 c -63.38319,0.1181 -57.58869,1.7737 -53.09219,2.6289 52.96369,11.472005 53.75779,14.496605 53.09219,-2.6289 z m 303.1705,-3.6646 c -15.7271,-1.6859 -29.2819,-2.5969 -43.1356,-3.7904 -1.0147,6.7708 -0.079,7.6443 0.093,11.2673 14.0567,9e-4 52.7353,-4.0149 68.8282,-4.7154 z m -177.7099,-125.1636 1.9005,-63.705895 -9.8881,64.572795 c 15.9857,-0.1846 1.8722,0.029 7.9876,-0.8669 z m 150.5107,106.9581 c -0.8275,-6.3276 -6.7259,-29.5118 -8.0557,-31.6635 -0.3036,-0.491 -4.4539,0.6854 -9.223,2.6143 -7.3631,2.9781 -8.5558,3.9076 -7.9055,6.1609 0.4213,1.4594 2.0356,7.729 3.5873,13.9321 1.5518,6.203 2.9393,11.4512 3.0836,11.6627 0.1441,0.2112 4.3682,1.2001 9.3869,2.1972 5.0187,0.9972 9.3302,1.8692 9.581,1.9378 0.2511,0.069 0.046,-3.0101 -0.4546,-6.8415 z m -283.5512,4.2451 6.5006,-1.394 2.7877,-10.8795 c 1.5332,-5.9836 3.1856,-12.2246 3.672,-13.8689 0.7804,-2.6381 0,-3.379 -6.6069,-6.3026 -4.1204,-1.8221 -8.0067,-3.3131 -8.6364,-3.3131 -2.3467,0 -4.8707,8.4906 -10.1571,34.1668 -0.7223,3.5087 1.9223,3.847 12.4401,1.5913 z m 136.5415,-97.2886 c -74.0968,-1.3609 -113.2494,42.6399 -114.2825,112.728 -1.6106,67.838005 44.7612,115.626005 112.862,115.930005 67.813,2.6213 112.0987,-41.2328 116.5147,-102.175403 -2.9955,-87.256102 -48.6109,-121.098502 -115.0942,-126.482602 z m -119.0279,60.4155 c 0,-0.6133 2.986,-6.0834 6.6356,-12.1554 l 6.6355,-11.0403998 -4.0546,-6.3187 c -6.6613,-10.3805997 -6.8895,-10.3966997 -13.5891,-0.9505 -3.2611,4.598 -7.8029,12.0981998 -10.0927,16.6672998 l -4.1633,8.3072 6.9921,3.194 c 7.303,3.3359 11.6365,4.1913 11.6365,2.2965 z m 245.8872,-1.7555 c 3.7841,-1.5788 7.3766,-3.2991 7.983,-3.8228 1.4401,-1.2436 -2.954,-9.8713 -12.0045,-23.5708998 l -7.2834,-11.0247997 -5.9156,8.12970002 -5.9156,8.12989968 5.8935,9.5292998 c 3.2415,5.2411 6.3034,10.8727 6.8046,12.5147 1.125,3.6855 1.8605,3.6936 10.438,0.1154 z m -241.8471,-57.2833 c -11.8784,-11.7965 -21.08,-20.5056 -20.448,-19.3536 0.6319,1.152 8.7995,12.647 18.1501,25.5446 l 17.0011,23.4500002 3.4469,-4.0963997 3.4468,-4.0963 z m 226.4362,0.7768 c 10.3044,-10.7642 19.5354,-20.3928 20.5133,-21.397 1.3469,-1.3829 -45.1366,31.495201 -47.8741,33.861901 -0.8809,0.7615 5.4985,7.1062995 7.145,7.1062995 0.8141,0 9.9113,-8.8070995 20.2158,-19.5712005 z m -178.8779,1.085 c 5.989,-3.5995 11.5086,-6.7511 12.2658,-7.0035 0.8227,-0.2743 -0.065,-4.0607 -2.2068,-9.41 l -3.5834,-8.9512 -10.0956,5.4456 c -11.2572,6.072 -22.7679,14.1239 -22.7679,15.9264 0,1.1468 13.098,10.5371 14.6976,10.5371 0.4407,0 5.7013,-2.9449 11.6903,-6.5444 z m 153.098,1.1124 7.6571,-5.432 -5.6668,-4.2599 c -10.5088,-7.8998 -26.7329,-16.6858 -28.1435,-15.2407 -0.8497,0.8702 -7.4327,16.1634 -7.0631,16.4088 0.1918,0.1273 4.5283,2.4753 9.6368,5.2173 5.1085,2.7421 10.1622,5.8302 11.2309,6.8621 2.8379,2.740901 3.9069,2.433101 12.3486,-3.5556 z m -124.4211,-13.9207 c 3.6489,-1.1412 9.2786,-2.4795 12.5105,-2.974 6.4643,-0.9891 6.9217,-1.7548 8.6792,-14.5345 l 0.8932,-6.4935 -4.4071,0.5405 c -6.6634,0.8174 -25.3033,5.3709 -29.9032,7.3051 l -4.065,1.7091 3.311,8.2754 c 1.8208,4.5516 3.994,8.2691 4.8289,8.261 0.8349,-0.013 4.5037,-0.948 8.1525,-2.0891 z m 89.1229,-6.3811 c 3.8771,-9.207 4.242,-8.7739 -10.8167,-12.8407 -13.3903,-3.6163 -24.5683,-5.2015 -24.5683,-3.4843 0,0.7059 0.7032,5.0994 1.5624,9.7632 1.3765,7.47 1.969,8.5691 4.9758,9.2289 1.8773,0.412 7.593,1.8346 12.7013,3.1615 5.1085,1.3271 10.0901,2.3179 11.07,2.2026 0.9802,-0.1154 3.2641,-3.7295 5.0755,-8.0312 z"
       id="path4466-2-4-8-5-5-7-9-5-1"
       style="fill:#999999"
       inkscape:connector-curvature="0" />
    <g
       transform="translate(448.59396,-60.236733)"
       id="g3032-0-3-7-7-5"
       style="fill:#999999">
      <g
         transform="translate(-451.17391,-70.82263)"
         id="g4413-9-5-7-7-0"
         style="fill:#999999">
        <path
           d="m 534.12054,161.88159 0,10.40612 47.25268,0 -19.71898,19.71898 -8.90796,8.86746 12.59261,0 c 20.11218,0 36.40116,16.32948 36.40116,36.44165 0,20.11218 -16.28898,36.40117 -36.40116,36.40117 -20.11217,0 -36.44165,-16.28899 -36.44165,-36.40117 l -10.40612,0 c 0,25.8585 20.98928,46.8073 46.84777,46.8073 25.85849,0 46.80728,-20.9488 46.80728,-46.8073 0,-21.99252 -15.15229,-40.48031 -35.59135,-45.51157 l 29.96314,-29.92264 z"
           id="path4996-4-0-4-8-9-7-2-6-0-9-9-2-3-1-8-2-8"
           style="color:#000000;fill:#999999;fill-opacity:1;fill-rule:evenodd;stroke:none;stroke-width:19.99983215;marker:none;visibility:visible;display:inline;overflow:visible;enable-background:accumulate"
           inkscape:connector-curvature="0" />
        <g
           transform="matrix(-1,0,0,-1,1130.6373,475.18252)"
           id="g4409-68-5-8-6-3"
           style="fill:#999999">
          <path
             d="m 565.33889,208.68886 c -15.80241,0 -28.62694,12.82454 -28.62694,28.62694 0,12.13086 7.56029,22.4873 18.22083,26.6429 l 0,-11.74231 c -4.72379,-3.28183 -7.81471,-8.71082 -7.81471,-14.90059 0,-10.05608 8.16474,-18.22082 18.22082,-18.22082 10.05608,0 18.18034,8.16474 18.18034,18.22082 0,6.17974 -3.07517,11.61703 -7.77422,14.90059 l 0,11.74231 c 10.64945,-4.1556 18.18033,-14.51204 18.18033,-26.6429 0,-15.8024 -12.78404,-28.62694 -28.58645,-28.62694 z"
             id="path4996-4-0-4-2-1-9-8-5-8-9-47-1-5-3-6"
             style="color:#000000;fill:#999999;fill-opacity:1;fill-rule:evenodd;stroke:none;stroke-width:20;marker:none;visibility:visible;display:inline;overflow:visible;enable-background:accumulate"
             inkscape:connector-curvature="0" />
          <path
             d="m 565.33889,232.0925 c -2.87317,0 -5.2233,2.35013 -5.2233,5.2233 l 0,31.17786 10.40612,0 0,-31.17786 c 0,-2.87317 -2.30965,-5.2233 -5.18282,-5.2233 z"
             id="rect5023-1-6-7-7-5-2-9-1-8-8-8-6-9-2-50"
             style="color:#000000;fill:#999999;fill-opacity:1;fill-rule:evenodd;stroke:none;stroke-width:20;marker:none;visibility:visible;display:inline;overflow:visible;enable-background:accumulate"
             inkscape:connector-curvature="0" />
        </g>
        <path
           d="m 630.85289,149.49143 c -5.72232,0.0544 -10.36388,0.85328 -11.49937,1.53864 -2.27103,1.37086 -2.80747,4.65767 -2.10552,5.42576 0.70195,0.76784 11.43046,7.65845 16.11531,9.92023 12.61445,6.09045 -1.28767,29.39594 -12.14722,25.22572 -7.69621,-2.95537 -16.42692,-11.75721 -17.8969,-11.82329 -1.46996,-0.0648 -3.36351,0.9263 -3.84662,3.4822 -0.48303,2.55591 3.00841,14.89689 11.7828,24.49689 10.52926,11.52022 26.92634,-1.20851 26.92634,9.31286 l 0,48.87231 a 13.017768,13.017768 0 0 0 26.03553,0 l 0,-62.4367 0,-14.57666 c 0,-5.46709 6.70282,-27.38877 -15.46745,-36.56312 -5.37441,-2.22388 -12.17459,-2.92922 -17.8969,-2.87484 z"
           id="path5018-1-3-2-1-4-7-5-6-89-1-7-3-1"
           style="fill:#999999;fill-opacity:1;stroke:none"
           inkscape:connector-curvature="0" />
      </g>
      <path
         d="M 146.87871,20 C 76.80785,20 20,76.8078 20,146.8787 c 0,70.0708 56.80785,126.87868 126.87871,126.87868 70.07082,0 126.87872,-56.80788 126.87872,-126.87868 C 273.75743,76.8078 216.94953,20 146.87871,20 z m 0,17.3855 c 60.46032,0 109.45402,49.0329 109.45402,109.4932 0,60.4603 -48.9937,109.454 -109.45402,109.454 -60.47222,0.3888 -108.64533,-55.933 -109.49316,-109.454 0,-60.4603 49.03291,-109.4932 109.49322,-109.4932 z"
         id="path7438-70-0-9-0-2-8-0-2-7-3"
         style="color:#000000;fill:#999999;fill-opacity:1;fill-rule:evenodd;stroke:none;stroke-width:10.41600037;marker:none;visibility:visible;display:inline;overflow:visible;enable-background:accumulate"
         inkscape:connector-curvature="0" />
    </g>
  </g>
  <text
     x="264.52884"
     y="-93.530266"
     id="text3150-0-3-2-6-83"
     xml:space="preserve"
     style="font-size:36.8921051px;font-style:normal;font-variant:normal;font-weight:600;font-stretch:normal;text-align:center;line-height:125%;letter-spacing:0px;word-spacing:0px;text-anchor:middle;fill:#000000;fill-opacity:1;stroke:none;font-family:Galette;-inkscape-font-specification:Galette Semi-Bold"
     sodipodi:linespacing="125%"><tspan
       x="264.52884"
       y="-93.530266"
       id="tspan3154-2-2-1-9-9"
       style="font-size:36.8921051px;font-style:normal;font-variant:normal;font-weight:bold;font-stretch:normal;font-family:Cantarell;-inkscape-font-specification:Cantarell Bold">Hackerspace Magdeburg</tspan></text>
  <text
     x="16.947723"
     y="57.93718"
     id="text4647-90"
     xml:space="preserve"
     style="font-size:32.79298019px;font-style:normal;font-variant:normal;font-weight:normal;font-stretch:normal;line-height:125%;letter-spacing:0px;word-spacing:0px;fill:#000000;fill-opacity:1;stroke:none;font-family:Cantarell;-inkscape-font-specification:Cantarell"
     sodipodi:linespacing="125%"><tspan
       x="16.947723"
       y="57.93718"
       id="tspan4649-9">Entry</tspan></text>
  <text
     x="17.351528"
     y="204.19853"
     id="text4651-71"
     xml:space="preserve"
     style="font-size:32.79298019px;font-style:normal;font-variant:normal;font-weight:600;font-stretch:normal;line-height:125%;letter-spacing:0px;word-spacing:0px;fill:#000000;fill-opacity:1;stroke:none;font-family:Galette;-inkscape-font-specification:Galette Semi-Bold"
     sodipodi:linespacing="125%"><tspan
       x="17.351528"
       y="204.19853"
       id="tspan4653-3"
       style="font-size:32.79298019px;font-style:normal;font-variant:normal;font-weight:normal;font-stretch:normal;fill:#000000;font-family:Cantarell;-inkscape-font-specification:Cantarell">Exit</tspan></text>
  <text
     x="194.85295"
     y="599.82654"
     transform="matrix(0,-1,1,0,0,0)"
     id="text4081-6"
     xml:space="preserve"
     style="font-size:81.98245239px;font-style:normal;font-variant:normal;font-weight:normal;font-stretch:normal;line-height:125%;letter-spacing:0px;word-spacing:0px;fill:#000000;fill-opacity:1;stroke:none;font-family:Cantarell;-inkscape-font-specification:Cantarell"
     sodipodi:linespacing="125%"><tspan
       x="194.85295"
       y="599.82654"
       id="tspan4083-8"
       style="font-size:81.98245239px">Embassy</tspan></text>
  <g
     id="g3712"
     transform="matrix(4.0991227,0,0,4.0991227,-17.804416,-658.54562)">
    <rect
       width="151.41495"
       height="207.53595"
       ry="2.6832564"
       x="6.4074497"
       y="6.4327393"
       id="rect3221-7-8"
       style="fill:none;stroke:#000000;stroke-width:2.83464575;stroke-linecap:round;stroke-linejoin:round;stroke-miterlimit:4;stroke-opacity:1;stroke-dasharray:none" />
    <path
       d="m 132.28608,5.5581 0,135.7101"
       id="path4014-3-9"
       style="fill:none;stroke:#000000;stroke-width:1.77165353;stroke-linecap:butt;stroke-linejoin:miter;stroke-miterlimit:4;stroke-opacity:1;stroke-dasharray:none"
       inkscape:connector-curvature="0" />
    <path
       d="m 5.71618,130.487 126.36774,0"
       id="path4012-8-4-2"
       style="fill:none;stroke:#000000;stroke-width:1.77165353;stroke-linecap:butt;stroke-linejoin:miter;stroke-miterlimit:4;stroke-opacity:1;stroke-dasharray:none"
       inkscape:connector-curvature="0" />
    <path
       d="m 6.50062,177.3987 151.23855,0"
       id="path4051-1-0-6-8"
       style="fill:none;stroke:#000000;stroke-width:1px;stroke-linecap:butt;stroke-linejoin:miter;stroke-opacity:1"
       inkscape:connector-curvature="0" />
    <path
       d="m 6.263161,141.0856 151.933609,0"
       id="path4012-8-4-2-6"
       style="fill:none;stroke:#000000;stroke-width:1.77165353;stroke-linecap:butt;stroke-linejoin:miter;stroke-miterlimit:4;stroke-opacity:1;stroke-dasharray:none"
       inkscape:connector-curvature="0" />
  </g>
  <text
     x="-108.09734"
     y="93.630898"
     id="text3560"
     xml:space="preserve"
     style="font-size:40px;font-style:normal;font-variant:normal;font-weight:600;font-stretch:normal;line-height:125%;letter-spacing:0px;word-spacing:0px;fill:#000000;fill-opacity:1;stroke:none;font-family:Galette;-inkscape-font-specification:Galette Semi-Bold"
     sodipodi:linespacing="125%"><tspan
       x="-108.09734"
       y="93.630898"
       id="tspan3562" /></text>
  <path
     d="m 23.833861,-631.01918 c 29.002637,30.5901 71.870731,75.70422 113.750649,119.77143 3.43313,2.35371 7.61793,5.15875 12.68166,8.58235 -28.86459,-30.30976 -59.565088,-62.51738 -105.296216,-110.67632 -6.782612,-7.14273 -10.499901,-11.06477 -16.780775,-17.67746 z m 24.082339,0 c 1.806606,2.11514 2.895825,3.35021 4.739611,5.50839 59.065319,69.13538 90.856599,106.31771 115.159729,134.75864 4.19344,2.82186 8.55134,5.68426 10.3759,6.91728 -23.86762,-27.8195 -56.16929,-65.49989 -117.465481,-137.32061 -3.265691,-3.82651 -5.234004,-6.09087 -8.454441,-9.8637 z m 22.288977,0 c 30.190983,39.42206 71.826103,93.68501 114.519233,149.36178 0.83069,-0.67268 1.71447,-1.2687 2.56196,-1.92126 -26.96665,-35.06555 -64.29843,-83.71516 -113.110168,-147.44052 z m 20.62371,0 c 57.602913,84.10865 80.940503,118.28221 99.275633,145.13474 0.93911,-0.68208 1.86022,-1.39245 2.81814,-2.04955 -24.23974,-35.31722 -57.19096,-83.31958 -98.122747,-143.08519 z m 19.214643,0 c 41.15826,67.64903 65.8558,108.19632 85.95348,141.16353 0.93761,-0.60503 1.86405,-1.21171 2.81812,-1.79337 -21.08721,-34.47239 -49.70647,-81.32579 -85.05677,-139.37016 z m 18.18985,0 c 37.73526,70.2655 58.67697,109.21455 73.78421,137.4489 0.95609,-0.54601 1.97512,-1.01535 2.94624,-1.53717 -18.39686,-34.16659 -43.3349,-80.6527 -73.01562,-135.91173 z m 17.03699,0 c 25.21534,53.80383 46.86271,100.18541 62.76781,134.24625 1.00981,-0.50747 2.04964,-0.92722 3.07434,-1.40886 -15.90555,-33.79522 -37.53763,-80.15262 -62.25543,-132.83739 z m 16.39647,0 c 20.7046,51.30952 39.40348,97.55172 52.90432,131.17191 1.04746,-0.45499 2.14084,-0.85303 3.20245,-1.28096 -13.43757,-33.10124 -31.75637,-78.54248 -52.52003,-129.89095 z m 15.62791,0 c 17.13561,50.20687 32.60696,95.67227 43.80937,128.60996 1.11018,-0.41196 2.20623,-0.89853 3.33054,-1.28097 -11.34166,-33.07869 -26.54034,-77.56812 -43.55317,-127.32899 z m 15.24362,0 c 13.8539,49.27924 26.12525,93.18331 35.35494,126.17631 1.17614,-0.36482 2.39649,-0.56651 3.58672,-0.89689 -8.73923,-30.84631 -16.747,-59.35488 -35.35492,-125.27942 z m 14.73121,0 c 10.7848,48.54342 20.42697,92.13475 27.54099,124.38294 1.20535,-0.29925 2.36831,-0.50335 3.58674,-0.76858 -7.17815,-31.90798 -16.86444,-75.20539 -27.66908,-123.61436 z m 14.47504,0 c 7.89347,47.95766 15.03972,90.97183 20.23941,122.84577 1.1441,-0.21725 2.30412,-0.45583 3.45863,-0.64069 -5.39806,-32.30149 -12.44525,-74.38596 -20.3675,-122.20508 z m 14.21883,0 c 5.15134,47.51005 9.60911,89.43095 13.06596,121.6927 1.18399,-0.15585 2.39289,-0.38943 3.58674,-0.51241 -3.52088,-31.90264 -8.02756,-73.73705 -13.19407,-121.18029 z m 14.09073,0 c 2.29457,43.64254 4.18188,81.07204 5.76439,111.95727 l 2.94625,-14.9872 c -1.36087,-23.26048 -2.94325,-52.76474 -5.25199,-96.97007 z m 13.96265,0 2.30596,58.92489 1.28076,-58.92489 z m 13.96262,0 -2.81814,107.08956 6.14868,-107.08956 z m 14.09073,0 -10.37589,121.5648 13.70644,-121.5648 z m 14.09073,0 -17.29316,122.58957 20.75182,-122.58957 z m 14.47504,0 -24.72282,124.12674 28.18146,-124.12674 z m 14.73122,0 -32.40869,125.92011 35.86733,-125.92011 z m 15.24362,0 -40.86312,128.09758 44.32175,-128.09758 z m 15.756,0 -49.95806,130.65953 53.54478,-130.65953 z m 16.2684,0 -59.94967,133.60597 63.5364,-133.60597 z m 17.29324,0 -70.83805,136.9365 74.42476,-136.9365 z m 18.06173,0 -82.75109,140.65114 86.46588,-140.65114 z m 19.08653,0 -96.07321,144.49407 100.04422,-144.49407 z m 20.62373,0 -111.06066,148.84938 115.28784,-148.84938 z m 22.28898,0 -116.95315,140.39494 121.05224,-140.39494 z m 24.21042,0 -109.77966,118.87455 114.135,-118.87455 z m -495.6095755,6.14867 0,4.35533 C 76.460685,-556.27579 121.16112,-513.90685 152.70003,-483.83487 l -9.22303,-13.45044 c -10.83784,-10.21995 -17.64488,-16.67565 -40.35074,-38.17308 -40.797669,-38.62562 -66.038099,-62.44358 -94.5360155,-89.41212 z m 513.2870255,2.04956 -140.52308,136.55202 140.52308,-132.06839 z m -513.2870255,22.41729 0,4.09913 c 3.7878765,3.23256 5.7930435,4.9624 9.7354165,8.32612 65.044508,55.5009 113.270149,96.72208 147.056019,125.66394 0.70817,-0.87763 1.44728,-1.70359 2.17766,-2.56195 -0.0368,-0.0409 -0.22013,-0.0983 -0.25622,-0.12716 -0.75727,0.4796 -1.26872,0.63864 -1.53717,0.38531 l -2.94624,-4.22742 c -26.4212,-22.53286 -70.712835,-60.37063 -147.440293,-125.79182 -3.666461,-3.12599 -3.17305,-2.68082 -6.7891725,-5.76417 z m 513.2870255,1.66506 -154.35761,133.09359 154.35761,-128.86616 z m -513.2870255,20.36772 0,3.84292 c 66.8213115,51.25502 117.0362955,89.91345 152.8204155,117.46529 0.62794,-0.86369 1.27286,-1.71426 1.92147,-2.56197 C 136.59912,-480.13008 90.152207,-515.8027 8.5902445,-578.37088 z m 513.2870255,1.66506 -151.53946,119.13077 151.53946,-115.28784 z m -513.2870255,18.57437 0,3.84292 c 79.9693295,55.07212 119.5057755,82.33744 148.9774955,102.73426 0.59957,-0.92232 1.2992,-1.78434 1.92145,-2.69024 -27.8819,-19.16055 -65.978779,-45.39535 -150.8989455,-103.88694 z m 513.2870255,1.53715 -147.56842,104.65552 147.56842,-100.81258 z m -513.2870255,17.29296 0,3.71506 c 62.1578625,38.26202 110.3552655,67.94213 145.5188555,89.66829 0.55079,-0.95017 1.09118,-1.88395 1.66527,-2.81813 -29.17891,-17.92547 -72.437405,-44.53492 -147.1841255,-90.56522 z m 513.2870255,1.53718 -144.1098,91.58998 144.1098,-87.87493 z m -513.2870255,16.01242 0,3.45843 c 60.3874535,33.05859 107.7439655,59.05442 142.4445155,78.13952 0.4782,-0.93052 0.90914,-1.90077 1.40907,-2.81815 -31.89606,-17.46062 -74.367474,-40.74405 -143.8535855,-78.7798 z m 513.2870255,1.28096 -140.90735,80.0608 140.90735,-76.34618 z m -513.2870255,15.11553 0,3.58672 c 58.7340695,28.40077 105.4139355,51.02218 139.6263655,67.63552 0.45447,-1.00879 0.80157,-2.07947 1.28098,-3.07434 -27.08877,-13.06553 -62.407551,-30.18717 -140.9073455,-68.1479 z m 513.2870255,1.40886 -137.96114,69.55719 137.96114,-66.09835 z m -513.2870255,14.21903 0,3.58674 c 56.1083395,23.76097 102.5444655,43.41628 136.9363055,58.02801 0.43443,-1.1121 0.94501,-2.23322 1.40909,-3.33054 -34.24449,-14.3994 -80.753751,-33.96576 -138.3453955,-58.28421 z m 513.2870255,1.28098 -135.52724,60.07756 135.52724,-56.61912 z m -339.971,8.96683 c -0.17791,0.21726 -0.34185,0.42672 -0.51238,0.64028 0.20988,-0.17622 0.43204,-0.33613 0.64048,-0.51238 -0.0245,-0.0409 -0.10487,-0.10239 -0.12788,-0.12701 z m -173.3160255,4.61153 0,3.45843 c 55.2944155,20.18242 101.0612055,36.96095 134.7586555,49.31776 0.38081,-1.14119 0.74153,-2.20368 1.15288,-3.33054 -28.89742,-10.48186 -68.622392,-24.87224 -112.469678,-40.86333 -12.62333,-4.60331 -11.817238,-4.34344 -23.4418575,-8.58232 z m 513.2870255,1.28095 -133.22147,51.36694 133.22147,-48.0364 z m -513.2870255,13.19386 0,3.33054 c 54.0457415,16.72606 99.5394055,30.73686 132.9652855,41.11953 0.30744,-1.10391 0.56089,-2.23894 0.89668,-3.33053 -33.69704,-10.32324 -79.392376,-24.32872 -133.8619655,-41.11954 z m 513.2870255,1.02479 -131.30003,43.42528 131.30003,-39.96647 z m -513.2870255,12.68186 0,3.33053 c 53.0212065,13.54841 98.2336255,25.04359 131.4281155,33.56157 0.2488,-1.10103 0.36358,-2.24057 0.64049,-3.33055 -33.37375,-8.47739 -78.857857,-20.00288 -132.0686055,-33.56155 z m 513.2870255,1.15268 -129.63475,35.86732 129.63475,-32.40851 z m -513.2870255,12.29736 0,3.33054 c 52.5935855,10.69379 97.3350155,19.79999 130.1471455,26.5164 0.19964,-1.1494 0.41089,-2.31969 0.64048,-3.45884 -33.13812,-6.66108 -78.321439,-15.7763 -130.7876255,-26.3881 z m 513.2870255,1.15308 -128.35375,28.95004 128.35375,-25.6195 z m -513.2870255,12.04117 0,3.07434 c 54.2018365,8.2458 98.2641655,14.96959 129.1223655,19.72703 0.13733,-1.10348 0.3472,-2.23608 0.51238,-3.33054 -32.79625,-4.90788 -77.465913,-11.57305 -129.6347455,-19.47083 z m 513.2870255,1.15268 -127.45722,22.16108 127.4571,-18.95844 0,-3.20264 z m -513.2870255,11.65709 0,3.20223 c 67.1687545,6.83324 93.5264055,9.58169 122.3331855,12.55355 1.32664,-0.25822 5.98989,-1.22891 6.27679,-1.28097 0.0369,-0.51199 0.0762,-1.02519 0.12789,-1.53717 -32.50235,-3.23092 -76.563247,-7.66331 -128.7380667,-12.93764 z m 513.2870255,1.15266 -119.77144,14.98763 119.77121,-11.65709 0,-3.33054 z m -513.2870255,11.52878 0,3.33054 c 44.7511455,2.3033 69.2049515,3.6019 95.9450855,4.99601 6.16906,-1.20925 7.849,-1.60973 13.32215,-2.69025 -30.275832,-1.57284 -59.919583,-3.09894 -109.2672355,-5.6363 z m 513.2870255,1.28097 -91.58976,7.42967 91.58976,-4.22701 z m -513.2870255,11.40091 0,3.20222 c 13.9334915,0 30.1069045,0.12715 42.5283955,0.12715 14.689739,0 24.925492,-0.0409 37.660687,0 l -12.553561,-2.30577 c 0.177093,0 3.289873,-0.58904 4.995806,-0.89648 -23.840827,-0.0409 -44.069301,-0.0902 -72.6313275,-0.12701 z m 429.5112155,4.6115 83.77581,0.12716 0,-3.33053 -83.77581,3.20345 z m -326.26457,3.07434 c -30.204465,1.46257 -62.927065,3.09156 -103.2466455,4.99561 l 0,3.20264 c 48.1755925,-2.25083 86.0509505,-4.0815 117.2092855,-5.5084 z m 292.70302,3.58674 117.33736,5.89248 0,-3.20264 z m -267.33969,1.40887 c -32.09077,3.21534 -76.110342,7.68584 -128.6099755,12.80975 l 0,3.20264 C 20.758931,-355.975 138.00739,-360.74611 137.20022,-369.18773 z m 257.09202,4.48361 127.58519,12.80977 0,-3.33054 z m -256.19534,2.04957 c -33.48697,4.96609 -78.419787,11.55583 -129.5066555,19.08634 l 0,3.20264 C 19.860581,-343.36889 139.14882,-355.29383 138.0969,-362.65455 z m 255.29848,4.35532 128.48189,19.34253 0,-3.33054 z m -254.2737,1.92125 c -33.0666,6.57909 -78.329236,15.53281 -130.5314355,25.87572 l 0,3.33053 c 11.5187485,-3.6973 132.0314155,-21.55169 130.5314355,-29.20625 z m 252.99274,4.22743 129.76285,26.2598 0,-3.20224 z m -251.71177,1.79337 c -32.72731,8.27284 -77.294281,19.64382 -131.8124055,33.30536 l 0,3.20224 C 19.881822,-318.07752 142.226,-342.94273 140.40265,-350.35718 z m 250.04647,4.4832 131.42815,33.43367 0,-3.33052 z m -248.2531,1.79337 c -33.61244,10.26953 -79.403733,24.25616 -133.6057755,40.73503 l 0,3.33054 C 19.671189,-304.85343 144.41327,-336.65401 142.19602,-344.08061 z m 246.33167,4.48363 133.34958,41.11911 0,-3.45842 z m -244.53831,1.53716 c -33.35697,12.02764 -78.799435,28.46349 -135.3991355,48.80498 l 0,3.45884 C 19.851625,-291.35368 146.63173,-330.62172 143.98938,-338.05982 z m 242.36065,4.35533 135.52724,49.44566 0,-3.33054 z m -239.92679,1.66505 c -34.07027,14.27233 -80.444177,33.71201 -137.8329955,57.64392 l 0,3.45884 C 19.428259,-277.1782 149.48484,-324.61871 146.42324,-332.03944 z m 237.36481,4.61152 138.08922,58.1563 0,-3.58673 z m -234.80286,1.28097 c -30.0576,14.42645 -62.855945,30.22366 -140.3949455,67.25144 l 0,3.45839 C 27.137853,-265.33299 151.81227,-320.09999 148.98519,-326.14695 z m 231.98473,4.35532 140.90735,68.14789 0,-3.58672 z m -229.03849,1.53717 c -31.5061,17.10688 -69.270985,37.56395 -143.3411855,77.62712 l 0,3.58672 c 8.5877765,-6.47506 146.9577455,-74.44865 143.3411855,-81.21384 z m 225.83604,4.22743 144.1098,78.90807 0,-3.71504 z m -222.6336,1.40886 c -28.15506,17.24337 -66.081743,40.43457 -146.5436255,89.4121 l 0,3.58672 c 9.5284805,-7.62473 150.5504655,-86.36372 146.5436255,-92.99882 z m 219.17498,4.22743 147.56842,90.82094 0,-3.71461 z m -215.58824,1.28097 c -29.75865,20.28247 -69.899391,47.60149 -150.1303655,102.22186 l 0,3.97082 c 8.1101785,-7.5948 154.5289255,-99.63279 150.1303655,-106.19268 z m 211.74531,4.22702 151.41135,104.1435 0,-3.97121 z m -208.03048,1.15309 c -35.51533,26.97631 -86.030503,65.36254 -153.8451955,116.82496 l 0,4.227 C 16.755915,-190.95385 167.2014,-297.39252 162.43544,-303.72966 z m 204.05945,4.09912 155.38238,119.13071 0,-3.97121 z m -199.96032,1.02478 -157.9443255,133.73383 0,3.97082 158.3286055,-137.19226 c -0.13691,-0.16398 -0.24759,-0.34844 -0.38407,-0.51239 z m 208.15858,14.60313 147.18412,125.6635 0,-4.09915 z m -27.28481,3.33053 133.862,156.53523 4.09915,0 z m -176.39037,7.42967 -128.609968,149.10556 4.227224,0 z m 14.60313,-6.66108 -120.539825,155.76664 4.099122,0 z m 273.10409,155.76664 4.09911,0 -120.81129,-151.74 z M 152.57193,-276.70128 8.5902445,-141.30197 l 0,4.61153 z m 38.42927,0.89689 -104.911922,151.66752 4.099123,0 z m 145.26264,3.20224 101.70953,148.46528 3.97101,0 z m -139.49826,0.64068 -90.94927,147.8246 3.84292,0 z m 133.7339,2.94604 88.13115,144.87856 3.84295,0 z m 61.74304,12.42564 129.63475,122.71747 0,-4.35532 z m -189.58443,-11.78494 -78.39573,144.23786 3.84293,0 z m 121.5646,2.81814 76.09002,141.41972 3.71481,0 z m 45.85893,-0.89689 135.39917,142.31661 4.48344,0 z m -161.40296,1.28099 -66.99503,141.03562 3.71482,0 z m 109.26724,2.56195 64.94546,138.47367 3.84297,0 z m -102.86236,0.38449 -56.61913,138.08918 3.58673,0 z m -73.9123,9.222 -123.486068,128.86616 4.483415,0 z m 170.24168,-7.04515 55.08197,135.9113 3.45862,0 z m -89.9245,0.38407 -47.01181,135.52723 3.45864,0 z m 83.26342,1.92169 45.73084,133.60554 3.58674,0 z m -76.60235,0.25617 -38.17307,133.34937 3.33054,0 z m 69.94128,1.66506 c 0,0 -0.0205,0.0532 0,0.12686 l 37.0202,131.55642 3.45864,0 z m -63.2802,0.2562 -29.71863,131.42811 3.45862,0 z m 56.23485,1.40928 29.07815,130.01883 3.58672,0 z m -49.44569,0 -21.90468,130.01883 3.45865,0 z m 42.52841,1.15268 21.3923,128.86615 3.33054,0 z m -35.48303,0 -14.47502,128.86615 3.45862,0 z m 29.33434,0.51216 13.06597,128.35378 3.45862,0 z m -22.41707,4.48471 -7.04537,123.87052 3.33054,0 z m 16.01221,29.33448 c 0,0 3.16607,57.65252 5.12389,94.53604 l 3.45864,0 z m -9.09473,94.53604 3.58673,0 0,-69.30102 z"
     id="path8284-6-9-1"
     style="fill:#800000"
     inkscape:connector-curvature="0"
     sodipodi:nodetypes="cccscccscccccccccccccccccccccccccccccccccccccccccccccccccccccccccccccccccccccccccccccccccccccccccccccccccccccccccccccccccccccccccccccccccscccccccccccccccccccccccccccccccccccccccccccccccccccccccccccccccccccccccccccccccccccccccccccccccccccccccccccccccccccccccccccccccccccccccccccccccccccccscccccccccccccccccccccccccccccccccccccccccccccccccccccccccccccccccccccccccccccccccccccccccccccccccccccccccccccccccccccccccccccccccccccccccccccccccccccccccccccccccccccccccccccccccccccccccccccccccccccccccccccccccccccccccccccccccccccccccccccccccccccccccc" />
</svg>
