<?xml version="1.0" encoding="UTF-8" standalone="no"?>
<!-- Created with Inkscape (http://www.inkscape.org/) -->

<svg
   xmlns:dc="http://purl.org/dc/elements/1.1/"
   xmlns:cc="http://creativecommons.org/ns#"
   xmlns:rdf="http://www.w3.org/1999/02/22-rdf-syntax-ns#"
   xmlns:svg="http://www.w3.org/2000/svg"
   xmlns="http://www.w3.org/2000/svg"
   xmlns:sodipodi="http://sodipodi.sourceforge.net/DTD/sodipodi-0.dtd"
   xmlns:inkscape="http://www.inkscape.org/namespaces/inkscape"
   version="1.1"
   width="166.53543"
   height="226.77165"
   id="svg5512"
   inkscape:version="0.48.3.1 r9886"
   sodipodi:docname="netz39-logo.since_2013-07-11.Field_Office_Edit.No7.svg">
  <sodipodi:namedview
     pagecolor="#ffffff"
     bordercolor="#666666"
     borderopacity="1"
     objecttolerance="10"
     gridtolerance="10"
     guidetolerance="10"
     inkscape:pageopacity="0"
     inkscape:pageshadow="2"
     inkscape:window-width="1680"
     inkscape:window-height="892"
     id="namedview36"
     showgrid="false"
     units="mm"
     inkscape:zoom="2.1418037"
     inkscape:cx="83.992585"
     inkscape:cy="123.39332"
     inkscape:window-x="0"
     inkscape:window-y="27"
     inkscape:window-maximized="1"
     inkscape:current-layer="svg5512" />
  <defs
     id="defs5514">
    <filter
       color-interpolation-filters="sRGB"
       id="filter7166">
      <feGaussianBlur
         id="feGaussianBlur7168"
         stdDeviation="0.087649774" />
    </filter>
  </defs>
  <metadata
     id="metadata5517">
    <rdf:RDF>
      <cc:Work
         rdf:about="">
        <dc:format>image/svg+xml</dc:format>
        <dc:type
           rdf:resource="http://purl.org/dc/dcmitype/StillImage" />
        <dc:title></dc:title>
      </cc:Work>
    </rdf:RDF>
  </metadata>
  <text
     x="468.1424"
     y="-261.86139"
     id="text4136"
     xml:space="preserve"
     style="font-size:40px;font-style:normal;font-variant:normal;font-weight:600;font-stretch:normal;line-height:125%;letter-spacing:0px;word-spacing:0px;fill:#000000;fill-opacity:1;stroke:none;font-family:Galette;-inkscape-font-specification:Galette Semi-Bold"
     sodipodi:linespacing="125%"><tspan
       x="468.1424"
       y="-261.86139"
       id="tspan4138" /></text>
  <path
     d="M 7.6237883,3.9072522 C 15.098198,11.790778 26.145941,23.417356 36.939016,34.774128 c 0.88477,0.606588 1.963254,1.329486 3.268252,2.211795 C 32.768436,29.174656 24.856462,20.874273 13.070873,8.4629976 11.322893,6.6222125 10.364893,5.6114446 8.7462182,3.9072522 l -1.1224299,0 z m 6.2063757,0 c 0.465589,0.5451052 0.746297,0.8633999 1.221468,1.419597 C 30.273641,23.144064 38.466725,32.726499 44.73,40.056152 c 1.080713,0.727229 2.203808,1.464916 2.674025,1.782683 C 41.252982,34.669333 32.928365,24.958545 17.131429,6.4492791 16.289812,5.4631254 15.782548,4.8795674 14.952594,3.9072522 l -1.12243,0 z m 5.7442,0 C 27.355028,14.066907 38.085014,28.051275 49.087669,42.399997 49.30175,42.226641 49.529511,42.07304 49.747922,41.90486 42.798216,32.867952 33.177265,20.330225 20.597756,3.9072522 l -1.023392,0 z m 5.315036,0 C 39.734527,25.583302 45.748966,34.390337 50.474201,41.310632 50.716223,41.134847 50.953608,40.951772 51.200479,40.78243 44.953535,31.680659 36.461521,19.309738 25.912792,3.9072522 l -1.023392,0 z m 4.951897,0 C 40.448392,21.341415 46.813315,31.791053 51.992782,40.287187 52.234424,40.131262 52.473182,39.974914 52.71906,39.82501 47.284566,30.940964 39.90896,18.866153 30.798664,3.9072522 l -0.957367,0 z m 4.687796,0 C 44.254027,22.015718 49.651018,32.053464 53.544377,39.329874 53.790772,39.18916 54.053395,39.068202 54.303667,38.933722 49.562523,30.128483 43.135622,18.148326 35.486459,3.9072522 l -0.957366,0 z m 4.390682,0 C 45.418142,17.773303 50.996994,29.726521 55.095971,38.504505 55.356216,38.373722 55.624194,38.265546 55.888274,38.141418 51.789181,29.43189 46.21427,17.484904 39.844129,3.9072522 l -0.924354,0 z m 4.225618,0 C 48.481272,17.13048 53.300252,29.047781 56.779616,37.712201 57.049559,37.59494 57.331344,37.492363 57.604932,37.382075 54.141879,28.851396 49.420849,17.140516 44.069747,3.9072522 l -0.924354,0 z m 4.027543,0 C 51.589035,16.846308 55.576234,28.56342 58.463261,37.051948 58.749367,36.94578 59.031839,36.820384 59.32159,36.721822 56.398676,28.196953 52.48175,16.731371 48.09729,3.9072522 l -0.924354,0 z m 3.928505,0 c 3.570352,12.6999908 6.732868,24.0147188 9.11149,32.5175088 0.303114,-0.09402 0.617616,-0.145995 0.924354,-0.231142 -2.252233,-7.94955 -4.315952,-15.296633 -9.11149,-32.2863668 l -0.924354,0 z m 3.796454,0 c 2.779401,12.5103668 5.264329,23.7444908 7.097719,32.0553318 0.310636,-0.07712 0.610348,-0.129727 0.924354,-0.198076 C 61.070056,27.541348 58.57375,16.382969 55.789237,3.9072522 l -0.891342,0 z m 3.730429,0 c 2.034266,12.3594058 3.875959,23.4447888 5.215998,31.6591798 0.294853,-0.05599 0.593805,-0.117472 0.891341,-0.165116 -1.391158,-8.324574 -3.207329,-19.170364 -5.24901,-31.4940638 l -0.858329,0 z m 3.664404,0 c 1.327573,12.2440468 2.476413,23.0476858 3.36729,31.3620128 0.305131,-0.04014 0.616686,-0.100358 0.924354,-0.13205 C 65.676994,26.915429 64.515551,16.13408 63.184069,3.9072522 l -0.891341,0 z m 3.631391,0 c 0.591343,11.2473288 1.077733,20.8934658 1.485569,28.8530518 l 0.759291,-3.862426 C 67.818263,22.903309 67.410459,15.299625 66.81546,3.9072522 l -0.891341,0 z m 3.598378,0 c -0.0042,7.3169758 -0.02102,13.3132338 -0.03296,18.3550308 l 0.627241,-3.169214 c -0.0032,0.06338 0.158281,1.000732 0.297113,1.782683 0.01331,-5.598734 0.02018,-10.315369 0.03296,-16.9684998 l -0.924354,0 z m 3.598378,0 C 72.359778,17.030545 72.088462,21.899831 71.734344,27.907498 c 0.327687,1.741272 0.426017,2.357473 0.660253,3.598326 0.444345,-7.838628 0.961064,-16.828527 1.584607,-27.5985718 l -0.858329,0 z m 3.631391,0 C 75.358911,16.110839 74.148652,26.776617 73.186901,35.104255 c 0.298212,0.02747 0.595474,0.09613 0.891341,0.132051 0.910674,-8.147627 2.146224,-19.110466 3.532353,-31.3290538 l -0.858329,0 z m 3.631391,0 C 78.279564,16.212782 76.407931,27.188087 75.002596,35.335291 c 0.313752,0.04648 0.613518,0.10976 0.924354,0.165116 1.390641,-8.240062 3.248371,-19.267025 5.348049,-31.5931548 l -0.891342,0 z m 3.730429,0 C 81.27034,16.343248 78.717401,27.41796 76.818292,35.665417 c 0.31147,0.06444 0.616137,0.158144 0.924354,0.231141 1.889158,-8.344329 4.418993,-19.494785 7.262782,-31.9893058 l -0.891342,0 z m 3.796455,0 C 84.297605,16.482376 81.078032,27.737628 78.667,36.094634 c 0.300389,0.08029 0.594354,0.17568 0.891341,0.264101 2.391415,-8.412572 5.616228,-19.786459 9.243541,-32.4514828 l -0.891341,0 z m 3.928505,0 C 87.393209,16.696826 83.36068,28.193044 80.41667,36.622837 c 0.297262,0.09719 0.597841,0.191737 0.891342,0.297061 C 84.268691,28.339779 88.258605,16.7956 92.730387,3.9072522 l -0.891341,0 z m 4.060555,0 C 90.559158,16.928073 85.738879,28.649622 82.199353,37.250024 c 0.275352,0.107859 0.553598,0.21519 0.825316,0.330127 C 86.538525,28.978587 91.3917,17.162278 96.823955,3.9072522 l -0.924354,0 z m 4.192609,0 C 93.616066,17.523463 87.975679,29.333116 83.849985,37.976302 c 0.262538,0.119585 0.533474,0.237058 0.792304,0.363192 4.191623,-8.807985 8.426169,-17.715589 16.374271,-34.4322418 l -0.92435,0 z m 4.45672,0 C 97.051969,17.698087 90.427509,29.891215 85.566643,38.801671 c 0.246639,0.129938 0.483347,0.260193 0.726278,0.396152 C 90.875879,30.781658 96.397146,20.6313 105.47328,3.9072522 l -0.92435,0 z m 4.65478,0 C 100.24642,18.457747 92.689684,30.672743 87.118237,39.69296 c 0.25564,0.153073 0.508163,0.30266 0.759291,0.462177 4.758617,-7.744186 10.553493,-17.208093 22.283542,-36.2478848 l -0.95736,0 z m 4.91888,0 C 100.22903,23.980314 93.743025,33.311431 88.636819,40.650379 c 0.239423,0.161419 0.491334,0.327697 0.726278,0.495137 C 94.19525,34.142293 100.66954,24.811704 115.14598,3.9072522 l -1.02339,0 z m 5.31504,0 C 106.78298,20.257016 97.106976,32.710865 90.122388,41.706784 c 0.237807,0.179695 0.460487,0.375341 0.693266,0.561162 5.524341,-7.122808 14.052456,-18.142482 29.711386,-38.3606938 l -1.08941,0 z m 5.7442,0 c -0.84372,0.9769634 -1.35606,1.5505911 -2.21185,2.5420269 C 109.7469,21.767991 99.679036,33.403972 92.169172,42.06987 l 2.8721,-1.980758 C 102.37659,31.567623 111.35012,21.176933 123.46517,7.1424918 124.54831,5.8878 125.17543,5.1390204 126.23823,3.9072522 l -1.0564,0 z m 6.23939,0 C 129.52787,5.8793488 128.3775,7.0619938 126.30426,9.2223414 114.94439,21.059566 107.1092,29.214799 99.696055,36.919898 l 3.433315,-2.376911 c 7.8166,-8.149105 15.68952,-16.33603 29.41428,-30.6357348 l -1.12243,0 z M 3.6952824,5.4918596 l 0,1.1224299 C 21.186501,23.169735 32.706467,34.088839 40.834508,41.838835 l -2.37691,-3.466381 C 35.664527,35.738626 33.910251,34.074894 28.058614,28.534686 17.544451,18.58029 11.039618,12.442051 3.6952824,5.4918596 z M 135.97696,6.0200619 C 118.61278,22.299468 110.00344,30.330891 102.13899,37.679241 c -0.93154,1.3822 -1.43923,2.134149 -2.37691,3.532301 8.93507,-8.417644 20.10117,-18.919574 36.21488,-34.0359847 l 0,-1.1554954 z M 3.6952824,11.797327 l 0,1.056405 c 0.9761919,0.83308 1.4929533,1.278883 2.5089611,2.145769 C 22.967177,29.302903 35.39564,39.926214 44.10276,47.384959 c 0.182504,-0.226176 0.372985,-0.439042 0.561215,-0.660253 -0.0095,-0.01056 -0.05673,-0.02535 -0.06603,-0.03275 -0.195161,0.123599 -0.326968,0.164588 -0.396152,0.0993 l -0.759291,-1.08947 C 36.633366,39.894733 25.218756,30.143379 5.4449526,13.283372 4.5000515,12.477757 4.6272109,12.592483 3.6952824,11.797856 z M 135.97696,12.226439 c -1.80894,1.526821 -1.57358,1.335506 -3.43331,2.905113 -18.96892,16.010235 -28.07329,23.707093 -35.290531,29.810471 -0.229081,0.340902 -1.031061,1.549429 -1.056404,1.584607 -0.155102,-0.131416 -0.28486,-0.214978 -0.429165,-0.330126 -0.09233,0.07817 -0.370692,0.318823 -0.462177,0.396152 0.183487,0.213288 0.383095,0.409251 0.561215,0.627187 8.932082,-7.568822 21.277332,-17.988142 37.304302,-31.527024 1.14274,-0.965342 1.71352,-1.453824 2.80607,-2.37691 l 0,-1.08947 z m -132.2816776,5.249063 0,0.99038 C 20.916125,31.67506 33.857272,41.637906 43.079368,48.738425 43.241199,48.51584 43.407403,48.296636 43.574558,48.078172 36.685067,42.793613 24.715009,33.600252 3.6952824,17.475502 z M 135.97696,17.904614 c -19.80931,15.046477 -32.61965,24.774591 -39.549157,30.041507 0.167388,0.216563 0.333074,0.43957 0.49519,0.660253 7.584727,-5.790576 18.592977,-14.172619 39.053967,-29.711381 l 0,-0.990379 z M 3.6952824,22.6915 l 0,0.99038 C 24.304564,37.874782 34.493693,44.901457 42.088989,50.158021 42.243509,49.92033 42.423816,49.698168 42.584178,49.464703 35.398598,44.526751 25.580468,37.765655 3.6952824,22.6915 z M 135.97696,23.087652 c -18.81154,12.815984 -30.19448,20.574537 -38.525765,26.245 0.168,0.242234 0.333507,0.479502 0.49519,0.726279 7.820155,-5.364951 18.989315,-13.002546 38.030575,-25.9809 l 0,-0.990379 z m -132.2816776,4.456654 0,0.95742 C 19.714285,38.362418 32.13547,46.011422 41.197647,51.610578 41.339596,51.365703 41.478862,51.125054 41.626812,50.8843 34.106975,46.264642 22.95862,39.406991 3.6952824,27.544306 z M 135.97696,27.940458 C 116.4098,39.85797 106.09513,46.138824 98.408562,50.818274 c 0.147537,0.238959 0.287543,0.483411 0.429164,0.726278 7.665564,-4.682724 17.764584,-10.85329 37.139234,-22.646674 l 0,-0.95742 z m -132.2816776,4.126634 0,0.891288 c 15.5627416,8.519692 27.7672156,15.2192 36.7100616,20.137714 0.12324,-0.239804 0.2343,-0.489855 0.363139,-0.726278 C 32.548397,47.869954 21.602883,41.86947 3.6952824,32.067092 z M 135.97696,32.397218 c -18.82433,10.183741 -28.82965,15.586406 -36.710069,19.840547 0.141674,0.257235 0.261122,0.530949 0.396152,0.792304 9.114277,-4.940805 21.470687,-11.640206 36.313917,-19.675537 l 0,-0.957314 z M 3.6952824,36.29271 l 0,0.924354 c 15.1366406,7.3193 27.1667336,13.149175 35.9837826,17.430677 0.117124,-0.259981 0.20658,-0.535914 0.330127,-0.792303 C 33.028016,50.488253 23.925843,46.075757 3.6952824,36.29271 z M 135.97696,36.655796 c -15.80562,7.548857 -29.03596,13.875981 -35.91777,17.166576 0.12157,0.251424 0.24775,0.504433 0.36314,0.759344 8.7925,-4.225091 20.76931,-9.971087 35.55463,-17.034525 l 0,-0.891395 z m -132.2816776,3.664457 0,0.924354 C 18.155233,47.368162 30.122512,52.433623 38.9858,56.199283 39.097758,55.91268 39.229343,55.623753 39.348939,55.340954 30.523629,51.630016 18.537503,46.587479 3.6952824,40.320253 z M 135.97696,40.650379 c -14.49052,6.039994 -26.43239,11.007209 -35.2245,14.657615 0.11355,0.267799 0.19043,0.553979 0.29712,0.825263 8.80952,-3.689915 20.80454,-8.697168 34.92738,-14.591589 l 0,-0.891289 z m -43.906826,1.518582 c -0.137882,0.159095 -0.425182,0.503271 -0.561215,0.660253 0.228289,0.192477 0.47028,0.362769 0.693266,0.561162 0.08134,-0.09402 0.248107,-0.300758 0.330126,-0.396152 -0.301783,-0.363086 -0.518293,-0.688564 -0.462177,-0.825263 z m -43.708743,0.792304 c -0.04585,0.05599 -0.0881,0.109971 -0.13205,0.16501 0.05409,-0.04543 0.111345,-0.08663 0.165063,-0.132051 -0.0063,-0.01056 -0.02704,-0.02641 -0.03296,-0.03275 z m 44.79816,0.726278 c -0.07479,0.07817 -0.222817,0.252903 -0.297113,0.330126 0.208418,0.195858 0.423924,0.393088 0.62724,0.594228 0.05493,-0.05705 0.208619,-0.239276 0.264101,-0.297167 -0.15582,-0.156031 -0.367576,-0.392032 -0.594228,-0.627187 z m -89.4642686,0.462177 0,0.891288 c 14.2501906,5.201314 26.0449696,9.52539 34.7293026,12.709922 0.09814,-0.294103 0.191104,-0.567923 0.297114,-0.858329 C 31.274405,54.191269 21.036692,50.482654 9.7365966,46.361514 6.4833773,45.175172 6.6911193,45.242148 3.6952824,44.14972 z M 135.97696,44.479846 c -13.84483,4.970279 -25.84386,9.235935 -34.63027,12.37969 0.10564,0.288398 0.19931,0.566232 0.29712,0.858328 8.63294,-3.125267 20.38451,-7.35976 34.33315,-12.379689 l 0,-0.858329 z m -41.595941,0.495137 c -0.05335,0.04965 -0.244262,0.214873 -0.297114,0.264101 0.222595,0.231881 0.444377,0.455099 0.660253,0.693319 0.07046,-0.06655 0.259041,-0.230085 0.330127,-0.297167 -0.24142,-0.198287 -0.45998,-0.420766 -0.693266,-0.660253 z m -90.6857366,2.905113 0,0.858329 c 13.9283886,4.310553 25.6527796,7.921344 34.2671256,10.597112 0.07923,-0.28449 0.144548,-0.577008 0.231088,-0.858329 C 29.509269,55.816759 17.732903,52.207341 3.6952824,47.880096 z M 135.97696,48.144197 c -13.70539,4.159065 -25.45109,7.726755 -34.06905,10.333011 0.0865,0.281321 0.15184,0.573839 0.23108,0.858329 8.5525,-2.616081 20.23651,-6.163065 33.83797,-10.299946 l 0,-0.891394 z m -132.2816776,3.268305 0,0.858329 c 13.6643506,3.491628 25.3162616,6.454104 33.8709736,8.649313 0.06412,-0.28375 0.0937,-0.577431 0.165063,-0.858329 C 29.130411,57.877065 17.408481,54.906772 3.6952824,51.412502 z M 135.97696,51.709563 c -13.41002,3.349753 -25.06882,6.259514 -33.60688,8.385212 0.0717,0.283433 0.13371,0.572149 0.19808,0.858329 8.46428,-2.129712 20.03461,-5.001865 33.4088,-8.352147 l 0,-0.891394 z m -132.2816776,3.169214 0,0.858329 C 17.249429,58.493054 28.779959,60.839857 37.23613,62.570776 37.28758,62.27456 37.342024,61.972957 37.401193,61.679382 28.861006,59.962724 17.216596,57.613597 3.6952824,54.878777 z M 135.97696,55.175943 c -13.21999,2.612278 -24.79316,4.909535 -33.24374,6.569464 0.0585,0.293786 0.11427,0.594967 0.16507,0.891394 8.36323,-1.67345 19.82356,-3.971447 33.07867,-6.602529 l 0,-0.858329 z m -132.2816776,3.103189 0,0.792304 c 13.9686166,2.125063 25.3241316,3.857884 33.2767466,5.083947 0.03539,-0.284384 0.08948,-0.576269 0.13205,-0.858329 C 28.651997,62.032221 17.139964,60.314507 3.6952824,58.279132 z M 135.97696,58.576193 c -13.16859,1.928784 -24.57659,3.608995 -32.94662,4.819846 0.0432,0.292413 0.0635,0.596658 0.099,0.891395 7.80563,-1.169335 14.59632,-2.190772 32.84759,-4.885872 l 0,-0.825369 z m -132.2816776,3.004204 0,0.825263 c 17.3103836,1.761027 24.1031396,2.469346 31.5270756,3.235239 0.341895,-0.06655 1.543682,-0.31671 1.61762,-0.330126 0.0095,-0.131945 0.01965,-0.264207 0.03296,-0.396152 C 28.4966,64.081963 17.141454,62.939673 3.6952296,61.580397 z M 135.97696,61.877458 c -15.30409,1.476114 -23.98455,2.293032 -32.78156,3.136254 0.0293,0.296744 0.0446,0.592326 0.066,0.891288 0.0252,0 0.0737,0 0.099,0 0.0511,-0.270967 0.12491,-0.459113 0.23109,-0.462177 l 1.51859,0.297167 c 8.26019,-0.804769 18.79192,-1.835609 30.86682,-3.004204 l 0,-0.858328 z m -132.2816776,2.971138 0,0.858329 c 11.5330336,0.593593 17.8351416,0.928262 24.7264706,1.287546 1.589858,-0.31164 2.022804,-0.414851 3.433315,-0.693319 C 24.052538,65.89581 16.412904,65.50251 3.6952824,64.848596 z M 135.97696,65.178722 c -14.04942,0.649267 -20.3551,0.946539 -27.23543,1.254481 l 3.63139,0.660253 23.60404,-1.089365 0,-0.825369 z m -132.2816776,2.938179 0,0.825263 c 3.5908673,0 7.7589956,0.03275 10.9601976,0.03275 3.785764,0 6.423669,-0.01056 9.705718,0 l -3.235239,-0.594229 c 0.04564,0 0.847849,-0.151806 1.287493,-0.231036 -6.144134,-0.01056 -11.357312,-0.02324 -18.7181696,-0.03275 z M 119.27256,68.413962 c -0.16371,0 -2.33976,0.396679 -4.88587,0.891394 6.78675,0.01056 13.11508,0.02113 21.59027,0.03275 l 0,-0.858328 c -6.22189,-0.01056 -11.65392,-0.04543 -16.67138,-0.0655 l -0.033,0 z M 30.303474,70.097659 C 22.519335,70.474584 14.086236,70.8944 3.6952824,71.3851 l 0,0.825369 C 16.110847,71.630397 25.871888,71.158606 33.901853,70.790872 l -3.598379,-0.693213 z m 78.867216,0.231036 c -1.55795,0.307414 -2.55151,0.519751 -3.43331,0.693318 7.04483,0.351783 13.26619,0.647154 30.23958,1.518582 l 0,-0.825369 C 123.62788,71.078425 116.45845,70.70636 109.17069,70.328695 z m -5.87625,0.198076 c -0.0106,0.120641 -0.0237,0.241388 -0.033,0.363192 0.0155,7.39e-4 0.0505,-8.45e-4 0.066,0 -0.0139,-0.122438 -0.0193,-0.24572 -0.033,-0.363192 z M 36.839978,71.3851 c -8.270265,0.828643 -19.614762,1.980758 -33.1446956,3.301264 l 0,0.825369 C 21.311009,73.824549 29.24615,73.067741 36.972029,72.342519 36.933681,72.024964 36.869346,71.705402 36.839978,71.3851 z m 66.355422,0.231141 c -0.0303,0.307731 -0.0604,0.619053 -0.099,0.924354 7.8641,0.781845 14.74553,1.467029 32.8806,3.301265 l 0,-0.858329 c -12.82387,-1.304977 -24.3362,-2.498925 -32.78161,-3.36729 z m -66.124334,1.452556 c -8.630086,1.279835 -20.20994,2.978111 -33.3757836,4.918832 l 0,0.825369 C 17.062424,76.856114 28.680382,75.160056 37.203117,73.927126 c -0.04859,-0.286391 -0.09085,-0.569508 -0.132051,-0.858329 z m 65.926254,0.231036 c -0.0452,0.301709 -0.0788,0.592326 -0.13205,0.891394 8.58783,1.285645 20.08786,3.01931 33.11169,4.984857 l 0,-0.858329 C 123.07555,76.3558 111.49332,74.596253 102.99732,73.299833 z m -65.662152,1.386531 c -8.521753,1.69553 -20.186605,4.003034 -33.6398856,6.668555 l 0,0.858328 c 13.8003416,-2.71908 25.2940456,-4.963306 33.8379616,-6.635489 -0.06634,-0.2978 -0.139742,-0.590635 -0.198076,-0.891394 z m 65.365042,0.231142 c -0.0578,0.286708 -0.0999,0.574367 -0.16506,0.858328 8.49548,1.707678 20.12549,4.072335 33.44181,6.76754 l 0,-0.825263 c -13.34717,-2.713587 -24.86875,-5.07856 -33.27675,-6.800605 z M 37.665294,76.238011 C 29.23098,78.370047 17.745411,81.300514 3.6952824,84.821299 l 0,0.825264 C 17.474264,82.205958 29.245221,79.243166 37.896383,77.09634 37.818737,76.811745 37.735524,76.525565 37.665294,76.238011 z m 64.704786,0.297061 c -0.0736,0.289772 -0.18298,0.571727 -0.2641,0.858329 8.57338,2.169644 20.26824,5.149973 33.87098,8.616353 l 0,-0.858328 C 122.5084,81.709659 110.88098,78.721091 102.37008,76.535072 z M 38.127471,77.855578 C 29.465048,80.502189 17.663952,84.106747 3.6952824,88.353599 l 0,0.858329 C 18.117751,84.841265 29.79321,81.303366 38.391572,78.713907 c -0.09339,-0.284279 -0.178205,-0.57067 -0.264101,-0.858329 z m 63.780439,0.297167 c -0.0893,0.289138 -0.20028,0.572571 -0.29712,0.858329 7.77005,2.383671 15.39455,4.73977 34.36617,10.597006 l 0,-0.891289 C 122.18541,84.449867 110.49418,80.821646 101.90791,78.152745 z m -63.318262,1.25448 C 29.99306,82.506928 18.281864,86.742688 3.6952824,91.98499 l 0,0.891395 C 18.209109,87.669789 30.141062,83.399907 38.919775,80.265554 38.810384,79.980959 38.691401,79.695518 38.589648,79.407225 z m 62.757042,0.330127 c -0.0968,0.265052 -0.19383,0.530315 -0.29711,0.792303 8.7396,3.170376 20.59504,7.520545 34.92738,12.742881 l 0,-0.858328 C 122.0417,87.328042 110.10354,82.946604 101.34669,79.737352 z m -62.129802,1.221415 c -8.780413,3.67819 -20.731656,8.688083 -35.5216056,14.85569 l 0,0.891395 C 23.491238,88.455965 31.73093,85.036383 39.580028,81.784136 c -0.120843,-0.273081 -0.24947,-0.548485 -0.36314,-0.825369 z m 61.535572,0.330126 c -0.12086,0.285758 -0.2346,0.576797 -0.36314,0.858329 7.86289,3.303377 15.95466,6.695282 35.58764,14.987741 l 0,-0.924354 C 121.39823,90.044903 109.49647,85.002367 100.75246,81.288893 z m -60.875319,1.188456 c -7.746288,3.71791 -16.198909,7.789082 -36.1818586,17.331693 l 0,0.891278 C 14.570292,95.51053 26.04517,90.047122 40.24028,83.269652 40.109086,83.008614 40.001628,82.742295 39.877141,82.477349 z m 60.182049,0.363191 c -0.126278,0.26051 -0.263336,0.502532 -0.396147,0.759239 7.673897,3.713896 18.579207,8.994334 36.313917,17.562721 l 0,-0.92435 C 121.31863,93.149888 109.06212,87.202435 100.05919,82.84054 z m -59.422758,1.15539 c -8.119589,4.408694 -17.852161,9.680787 -36.9411496,20.00566 l 0,0.92435 C 23.669401,94.109948 33.842726,88.59615 41.032584,84.722208 40.895251,84.480186 40.767838,84.241756 40.636432,83.99593 z m 58.630459,0.330127 c -0.139868,0.254488 -0.282905,0.508975 -0.429165,0.759343 7.061394,3.859575 16.365044,8.961587 37.139234,20.33578 l 0,-0.95742 C 120.80046,96.153986 108.39145,89.339648 99.266891,84.326057 z m -57.805143,1.12243 C 34.20577,89.892358 24.431502,95.869073 3.6952824,108.49131 l 0,0.92435 C 23.824407,97.155563 33.998841,90.991548 41.923925,86.174765 41.770546,85.93401 41.609075,85.693467 41.461748,85.448487 z m 56.946814,0.363192 c -0.151436,0.244769 -0.304625,0.485734 -0.462177,0.726278 7.503175,4.621453 18.952705,11.662602 38.030575,23.405903 l 0,-0.95731 C 119.92934,99.111072 107.48114,91.416645 98.408562,85.811679 z m -56.02246,1.056404 C 34.716858,92.095173 24.371994,99.135692 3.6952824,113.21217 l 0,1.02334 C 25.174999,99.597332 35.595924,92.485092 42.848279,87.561296 42.688498,87.335965 42.54038,87.097534 42.386102,86.868083 z m 55.065093,0.363087 c -0.16595,0.239803 -0.323154,0.491122 -0.495189,0.726278 7.668674,5.272515 18.278244,12.557052 39.020954,26.839322 l 0,-1.02344 C 119.40364,102.36997 106.67365,93.592099 97.451195,87.23117 z M 43.343469,88.254614 C 34.190642,95.206813 21.172134,105.09951 3.6952824,118.36214 l 0,1.08936 C 25.231929,103.0896 36.384256,94.593571 43.871671,88.914867 43.696858,88.693022 43.512726,88.480896 43.343469,88.254614 z m 53.117347,0.363087 c -0.177635,0.230718 -0.344716,0.467459 -0.528202,0.693318 9.850536,7.578224 24.009236,18.418191 40.044346,30.701751 l 0,-1.02344 C 114.51065,102.51492 103.88653,94.337392 96.460816,88.617701 z M 44.399874,89.57512 c -7.131207,6.048551 -17.322427,14.70599 -38.0635799,32.22033 -1.0305228,0.87016 -1.6258913,1.38738 -2.6410117,2.24486 l 0,1.02334 c 1.2836056,-1.08334 2.0592285,-1.7343 3.3672899,-2.83908 C 26.678791,105.65792 35.952926,97.830183 43.079368,91.81998 c 0.40754,-0.607644 1.347687,-2.008753 1.419544,-2.112809 -0.03528,-0.04226 -0.06381,-0.0898 -0.09898,-0.132051 z m 52.027929,1.254481 1.61762,2.508961 c 7.045887,6.01527 18.288477,15.641438 37.073207,31.659068 0.46122,0.3933 0.40013,0.33562 0.85833,0.72628 l 0,-1.05641 c -1.0988,-0.93777 -1.68918,-1.42857 -2.83909,-2.40987 -16.1548,-13.78597 -27.99804,-23.953227 -36.710067,-31.428029 z m -5.083947,3.103188 c -0.111176,0.08768 -0.221201,0.17568 -0.330127,0.264102 7.463753,8.712069 17.968261,20.996349 31.923241,37.337239 0.99933,1.17029 1.59277,1.85441 2.57498,3.00421 l 1.05641,0 C 109.54535,114.61254 99.389391,102.69081 92.796412,94.956129 92.490435,94.73777 91.388214,93.965961 91.343856,93.932789 z m -42.949452,0.231036 -2.839088,1.947799 C 39.239464,103.44106 30.684847,113.3588 14.65548,131.93028 c -0.875633,1.01457 -1.382929,1.60912 -2.24486,2.60806 l 1.089418,0 c 0.970434,-1.12349 1.55508,-1.79484 2.541973,-2.93818 17.428607,-20.19043 26.407391,-30.57372 32.352393,-37.436335 z m 0.924354,0.231141 c -5.704849,7.371274 -14.765981,19.074544 -30.239583,39.053904 -0.325341,0.42013 -0.501867,0.67176 -0.825317,1.08947 l 1.056405,0 c 0.150665,-0.19459 0.245097,-0.30013 0.396152,-0.49525 16.414775,-21.19486 24.747029,-31.92993 30.305609,-39.086961 -0.238061,-0.179378 -0.460223,-0.375658 -0.693266,-0.561163 z m 40.968693,0.396152 c -0.225077,0.1723 -0.463709,0.328542 -0.693265,0.495137 6.941444,9.030455 16.660624,21.703405 29.546324,38.525805 0.21675,0.2829 0.34528,0.44432 0.56122,0.72628 l 1.0564,0 c -0.11826,-0.15424 -0.17818,-0.24108 -0.29711,-0.39616 C 102.65928,110.9316 95.592758,101.7299 90.287451,94.791118 z M 40.801495,95.22023 c -2.657343,2.511074 -4.54872,4.304322 -10.332958,9.73878 -11.52492,10.82804 -18.846185,17.70396 -26.7732546,25.15563 l 0,1.18846 c 2.3486622,-2.20451 3.8925871,-3.65495 6.5034916,-6.1074 12.29357,-11.54724 20.458406,-19.17247 28.258824,-26.47613 0.875083,-1.29737 1.425818,-2.130874 2.343897,-3.49934 z m 9.903794,0.231141 c -5.023775,7.280009 -12.3224,17.838439 -27.037357,39.086969 l 1.056405,0 c 11.740681,-16.96132 20.5171,-29.61018 26.740243,-38.558767 -0.25902,-0.174201 -0.50549,-0.347029 -0.759291,-0.528202 z m 38.162618,0.363086 c -0.23655,0.162264 -0.485386,0.305935 -0.726278,0.462177 6.329945,9.229066 15.017191,21.909086 26.212051,38.261706 l 1.02339,0 C 102.31788,115.44784 94.472081,103.9794 88.867907,95.814457 z M 52.190858,96.44175 c -4.181661,6.80546 -9.867147,16.06125 -23.438978,38.09659 l 0.990379,0 c 9.812288,-15.9496 17.522447,-28.47328 23.174877,-37.634412 -0.245698,-0.147369 -0.484741,-0.308682 -0.726278,-0.462178 z m 35.19148,0.330127 c -0.239275,0.146101 -0.483072,0.288927 -0.726278,0.429111 5.504228,9.017992 13.022385,21.407932 22.71271,37.337352 l 0.99038,0 C 97.289766,113.07156 91.708294,103.8894 87.382338,96.771877 z m 13.106022,0.429111 2.0798,3.202272 c 3.92047,3.70323 7.30081,6.89167 12.04962,11.38931 9.30228,8.81031 14.67861,13.90968 21.35918,20.2368 l 0,-1.12243 C 119.17059,114.98048 108.41202,104.77086 100.48836,97.200988 z M 53.70944,97.366105 C 49.669421,104.81914 44.005,115.23191 33.505701,134.53834 l 0.990379,0 C 42.958135,118.97538 49.616252,106.74137 54.501743,97.795216 54.237547,97.655559 53.969368,97.512628 53.70944,97.366105 z m 32.121304,0.297061 c -0.267334,0.144199 -0.520649,0.292201 -0.792303,0.429217 4.897333,9.087607 11.553559,21.447117 19.609529,36.445957 l 0.95736,0 C 95.201582,115.16651 89.725064,104.9513 85.830744,97.663166 z m 11.026224,0.198075 c 6.345752,6.657559 13.693432,14.367199 29.744402,31.263019 2.00291,2.10837 3.21614,3.38102 5.14997,5.41408 l 1.15545,0 c -2.19521,-2.31279 -3.58732,-3.79715 -5.87626,-6.20638 -14.17777,-14.92299 -20.12099,-21.14796 -26.3771,-27.73062 -1.363795,-0.977598 -2.323866,-1.690877 -3.796462,-2.740099 z M 55.261034,98.191368 C 51.014192,107.1521 45.216126,119.34185 37.995421,134.53834 l 0.957366,0 c 7.019535,-14.7621 12.838888,-26.9865 17.133563,-35.98378 -0.274063,-0.126663 -0.555341,-0.22924 -0.825316,-0.363192 z m 28.985103,0.297166 c -0.270725,0.127509 -0.550651,0.242762 -0.825316,0.363087 4.157068,8.831319 9.789195,20.862719 16.737409,35.686719 l 0.99039,0 C 94.283915,119.89921 88.493211,107.56167 84.246137,98.488534 z m -27.334471,0.462178 c -3.66716,8.980378 -8.689562,21.192208 -14.591589,35.587628 l 0.924354,0 c 5.913616,-14.41465 10.852403,-26.43209 14.492552,-35.257498 -0.274761,-0.10934 -0.554201,-0.21371 -0.825317,-0.33013 z m -15.614981,0.0328 -3.433315,2.343838 c -7.171287,7.4823 -14.199135,14.82833 -25.155636,26.2451 -2.695934,2.80919 -4.2731984,4.46764 -6.6685538,6.96562 l 1.1554426,0 c 3.1399942,-3.27443 2.7944439,-2.91431 6.1403512,-6.40445 15.131993,-15.78428 21.676896,-22.61213 27.961711,-29.150108 z m 41.29882,0.19808 c -0.283074,0.11514 -0.571431,0.22258 -0.858329,0.33012 3.592272,8.842308 8.487039,20.912578 14.195438,35.026358 l 0.891341,0 C 90.959663,120.00559 86.134893,108.01212 82.595505,99.181532 z m -24.033206,0.4291 c -3.045087,8.810728 -7.2058,20.787508 -12.115641,34.927378 l 0.891341,0 c 4.851813,-13.94845 9.022626,-25.88192 12.082629,-34.630208 -0.286223,-0.0961 -0.575635,-0.19332 -0.858329,-0.29717 z m 22.316548,0.19808 c -0.285483,0.0982 -0.569391,0.206628 -0.858329,0.297168 2.985643,8.67445 7.018066,20.49139 11.785515,34.43213 l 0.924354,0 C 87.998022,120.67434 83.878033,108.63143 80.878847,99.808872 z m -20.599891,0.363188 c -2.485107,8.72833 -5.910246,20.6638 -9.837768,34.36611 l 0.858329,0 c 3.87804,-13.50962 7.319817,-25.41879 9.837768,-34.10201 -0.287574,-0.0792 -0.573923,-0.17695 -0.858329,-0.2641 z m 18.883234,0.19808 c -0.284142,0.0803 -0.571146,0.15782 -0.858329,0.23103 0.0053,0.019 -0.0053,0.0137 0,0.0327 2.447858,8.67023 5.814483,20.66686 9.540654,33.90404 l 0.891342,0 C 84.889023,120.84543 81.579043,109.025 79.16219,100.36967 z m -17.166576,0.29706 c -1.953493,8.64804 -4.626778,20.55066 -7.658934,33.87097 l 0.891342,0 c 3.042529,-13.32929 5.724139,-25.10747 7.691946,-33.6729 -0.314006,-0.0687 -0.613718,-0.12085 -0.924354,-0.19807 z m 15.416905,0.16511 c -0.307614,0.0697 -0.61357,0.13712 -0.924354,0.19808 1.903705,8.46623 4.493872,20.05447 7.493871,33.50778 l 0.924354,0 C 81.982262,121.39101 79.32944,109.4904 77.412519,100.83221 z m -13.667235,0.19808 c -1.347085,8.01937 -2.664855,15.95076 -5.645162,33.50778 l 0.891341,0 c 2.25366,-13.16978 4.248638,-24.83829 5.711188,-33.3097 -0.320682,-0.0518 -0.639812,-0.13744 -0.957367,-0.19808 z m 11.884553,0.13205 c -0.309062,0.0518 -0.612462,0.12149 -0.924355,0.16501 1.430267,8.54156 3.363403,20.23585 5.513112,33.21072 l 0.858329,0 C 78.880732,121.18358 77.00237,109.62831 75.629837,101.16229 z m -10.068857,0.16501 c -0.948271,8.47247 -2.240656,20.10105 -3.730429,33.21072 l 0.891341,0 c 2.093181,-18.2888 2.885231,-24.94341 3.829467,-33.07867 -0.329894,-0.0349 -0.663412,-0.0877 -0.990379,-0.13205 z m 8.220148,0.0993 c -0.218337,0.0243 -0.440003,0.0201 -0.660253,0.0327 l -0.165063,0.89139 c 0.924354,8.35511 2.159207,19.57148 3.532353,32.18728 l 0.891342,0 c -1.400096,-12.91529 -2.678483,-24.57303 -3.598379,-33.11163 z m -6.437466,1.18847 c -0.437414,7.80819 -0.792873,14.30254 -1.815695,31.92327 l 0.858329,0 c 0.80161,-13.82982 1.213893,-20.94439 1.650632,-28.45691 -0.284775,-1.44241 -0.579755,-2.88482 -0.693266,-3.46636 z m 4.885872,3.53239 -0.759291,4.02754 c 0.40399,7.40529 0.815946,14.85791 1.320506,24.36334 l 0.891341,0 c -0.585036,-11.19694 -1.050351,-20.41006 -1.452556,-28.39088 z m -3.070176,5.61215 c -0.0053,7.05731 -0.02092,13.83404 -0.03296,22.77873 l 0.924354,0 c 0.0063,-4.55226 -2.1e-5,-9.57853 0,-13.56825 1.1e-5,-1.6724 -0.0021,-2.74972 0,-4.29165 -0.08821,-0.57722 -0.413276,-2.46417 -0.891341,-4.91883 z"
     id="path8284-6-9-1"
     style="fill:#000000"
     inkscape:connector-curvature="0" />
  <g
     transform="matrix(0.22200604,0,0,0.22200604,-62.096724,49.26293)"
     id="g3115-7-9-8-4-68"
     style="fill:#000000">
    <path
       d="m 594.04775,350.76742 c -0.4382,-1.0946 -2.7655,-50.7114 -6.1435,-70.4153 -3.3778,-19.7039 -6.6413,-37.081 -7.2522,-38.6157 -0.8947,-2.2479 -2.6171,-2.9368 -8.8572,-3.5426 -18.7273,-1.8178 -49.5083,-14.313 -66.1246,-26.8422 -4.3763,-3.3 -8.5813,-5.7603 -9.3445,-5.4674 -0.763,0.2928 -15.5952,10.4979 -32.9601,22.6782 -17.3649,12.1802 -31.8432,21.8749 -32.1742,21.5442 -0.3309,-0.331 9.5733,-15.0302 22.0093,-32.665 12.4359,-17.6348 22.6109,-32.387 22.6109,-32.783 0,-0.3959 -3.8164,-6.4928 -8.4808,-13.5488 -12.6889,-19.1951 -20.0938,-37.6719 -23.7333,-59.2193 -1.5612,-9.2433 -2.1589,-10.6126 -5.014,-11.4876 -1.7826,-0.546203 -19.36269,-3.782503 -39.06659,-7.191603 -33.9487,-5.873602 -71.0933,-5.868502 -69.773,-6.867902 0.3041,-0.2302 50.6661,-4.0454 71.0999,-7.5065 20.4337,-3.4614 38.19699,-6.5973 39.47419,-6.9689 1.5144,-0.4407 2.3219,-1.9987 2.3219,-4.48 0,-2.0926 0.8678,-7.8739 1.9285,-12.8476 4.6352,-21.7357 14.4892,-43.2714 27.6755,-60.4847995 2.1075,-2.7509 3.5057,-5.8510995 3.1073,-6.8891995 -0.3983,-1.038 -10.6797,-15.981701 -22.8475,-33.208001 -12.1677,-17.2264 -21.9023,-31.5313 -21.6325,-31.7889 0.2697,-0.2574 15.3493,9.9554 33.5101,22.6951 l 33.0196,23.1631 3.469,-3.1036 c 15.1848,-13.5855 44.8062,-26.6888 68.7683,-30.4201 l 10.898,-1.697 1.2334,-6.0174 c 0.6785,-3.3095 3.8323,-21.0939 7.0085,-39.520695 3.1762,-18.4267 6.9116,-58.9469 7.3292,-58.9469 0.4177,0 1.8894,36.6391 4.2424,50.3223 2.353,13.6833 5.4941,31.481195 6.9802,39.550895 l 2.7022,14.6722 10.4883,1.5287 c 11.382,1.6589 30.2508,7.5474 42.0088,13.1099 4.0669,1.9239 12.6234,6.9956 19.0145,11.2705 6.3911,4.2749 11.9791,7.7725 12.418,7.7725 0.4389,0 15.21,-10.1643 32.8251,-22.5874 17.615,-12.4231 32.2692,-22.3456 32.5646,-22.0501 0.2955,0.2954 -9.2322,14.4901 -21.1728,31.5438 -11.9404,17.0534 -22.1439,31.734701 -22.6742,32.624701 -0.5679,0.953 2.1238,6.1277995 6.5464,12.5854995 12.5409,18.3117995 21.2663,39.5450995 24.9332,60.6756995 1.0476,6.0376 2.4105,11.4165 3.0283,11.9531 0.6178,0.5367 5.0043,1.6303 9.7479,2.4307 4.7436,0.8004 21.7606,3.6681 37.8156,6.3726 16.0551,2.7045 64.6214,5.3082 65.1659,5.786 0.5445,0.4779 -50.5619,3.7354 -70.8103,7.239102 -20.2485,3.5037 -38.143,6.6718 -39.7659,7.040003 -2.1771,0.4942 -3.1592,1.9387 -3.7464,5.5104 -4.1969,25.5325 -14.991,52.882 -27.6936,70.1677 -3.3432,4.5496 -6.0786,8.573 -6.0786,8.941 0,0.3677 7.252,10.9755 16.1156,23.5726 8.8638,12.5971 19.4231,27.6179 23.4653,33.3794 4.0423,5.7615 6.7601,10.2397 6.0399,9.9514 -0.7206,-0.2882 -16.0954,-10.8927 -34.1665,-23.5651 l -32.8565,-23.0413 -4.8896,3.8501 c -18.0356,14.2017 -46.6328,26.313 -69.5758,29.4663 -4.1973,0.577 -7.9361,1.3538 -8.3086,1.7262 -0.3724,0.3724 -3.6601,17.6374 -7.3061,38.3667 -8.0235,45.6194 -8.1035,74.8096 -9.1169,72.2793 z m 0.2352,-134.6814 c 0.2853,19.2744 0.9437,77.4942 1.5535,85.8876 1.9493,-10.2407 6.5172,-53.1087 11.0826,-85.709 -4.1412,0.1155 -7.8295,0.2597 -12.6361,-0.1786 z m -14.9761,16.9394 c 0,-0.8523 -0.6355,-5.1984 -1.4119,-9.6579 l -1.412,-8.108 -12.1883,-3.0324 c -6.7038,-1.6678 -13.0317,-3.1434 -14.0624,-3.279 -1.9564,-0.2573 -8.6823,14.287 -7.4953,16.208 1.2159,1.9673 25.3068,8.3595 34.9113,9.2632 0.9123,0.086 1.6586,-0.5414 1.6586,-1.3939 z m 46.6258,-1.031 c 15.9792,-3.3205 23.1427,-5.9218 22.6409,-8.2208 -0.8202,-3.7578 -6.1033,-15.7355 -6.9405,-15.7355 -0.4814,0 -4.2298,1.1542 -8.3299,2.5648 -4.1001,1.4108 -10.0974,2.9611 -13.3272,3.4455 -5.6756,0.8511 -5.9009,1.0654 -6.7206,6.3915 -0.4664,3.0309 -1.1969,7.4513 -1.6235,9.8231 -0.4515,2.5102 -0.2204,4.3124 0.5528,4.3124 0.7308,0 6.9173,-1.1615 13.748,-2.581 z m -86.7634,-16.6913 c 1.642,-4.0296 2.9855,-8.1063 2.9855,-9.0593 0,-0.953 -3.0966,-3.1781 -6.8813,-4.9449 -3.7846,-1.7666 -9.2263,-4.9072 -12.0926,-6.9787 l -5.2114,-3.7666 -8.3188,5.6412 -8.3188,5.6411 3.4939,2.8521 c 7.2334,5.9046 27.7893,17.9171 30.6947,17.9374 0.3648,0 2.0068,-3.2926 3.6488,-7.3223 z m 122.7877,4.5106 c 3.0725,-1.5512 10.5771,-6.0582 16.6768,-10.0156 l 11.0905,-7.1953 -8.2123,-5.7153 -8.2124,-5.715 -10.7194,6.4426 c -5.8956,3.5434 -11.5197,6.4423 -12.4979,6.4423 -0.9781,0 -1.7803,0.4479 -1.7823,0.9952 0,1.4279 6.9345,17.5809 7.5535,17.5809 0.2845,0 3.0309,-1.2689 6.1035,-2.8198 z m -174.4814,-16.4197 24.0126,-17.2492 -3.9165,-3.9652 -3.9164,-3.9653 -21.5514,21.6903 c -11.8532,11.9295 -20.8964,21.476 -20.0962,21.2144 0.8004,-0.2615 12.2608,-8.2378 25.4679,-17.725 z m 227.0153,-6.3025 c -9.541,-13.3184 -17.9022,-24.7974 -18.5802,-25.5089 -0.7862,-0.8248 -2.4411,0.1128 -4.568,2.588 l -3.3353,3.8814 21.5976,21.6273 c 11.8786,11.8952 21.7407,21.6275 21.9155,21.6275 0.1749,0 -7.4884,-10.8969 -17.0296,-24.2153 z m 4.422,-27.148 c 5.504,-8.2416 12.9833,-21.8238 12.9833,-23.5771 0,-0.8102 -14.2843,-7.3252 -16.0606,-7.3252 -0.624,0 -2.4137,2.507 -3.9767,5.571 -1.5633,3.064 -4.9213,8.7023 -7.4625,12.5297 l -4.6204,6.9587 5.6177,8.0085 c 3.0896,4.4046 6.0417,7.7463 6.5601,7.4259 0.5185,-0.3205 3.6499,-4.6367 6.9591,-9.5915 z m -233.1645,1.3655 c 3.9776,-5.9905 4.701,-7.9657 3.5239,-9.6198 -1.7795,-2.5009 -11.9373,-20.2029 -12.4778,-21.7453 -0.2096,-0.5984 -4.1398,0.5422 -8.7336,2.5347 -7.569,3.2825 -8.2769,3.924 -7.5453,6.8384 1.5109,6.0204 16.7618,29.5301 19.1562,29.5301 0.5893,0 3.3239,-3.3921 6.0766,-7.5381 z m -18.3653,-35.1827 6.8305,-2.657 -3.0769,-9.4875 c -1.6923,-5.218 -3.4334,-11.6409 -3.8694,-14.2729 -0.7923,-4.7835 -0.7961,-4.7859 -10.2351,-6.3446 -5.1935,-0.8576 -9.6682,-1.334 -9.944,-1.0582 -0.8761,0.8761 3.3972,21.115 6.3005,29.8393 2.2424,6.7384 3.2279,8.2265 4.9798,7.5194 1.2012,-0.4847 5.2578,-2.077 9.0146,-3.5385 z m 271.5506,-9.0269 c 1.7715,-6.203 3.6256,-14.4535 4.1202,-18.3343 l 0.8993,-7.0558 -6.3342,0.9497 c -13.1477,1.9717 -12.4431,1.2622 -16.4306,16.5471 -1.9893,7.6253 -3.5284,13.9574 -3.4205,14.0713 1.192,1.2565 16.3505,6.5194 17.0318,5.9131 0.5023,-0.447 2.3626,-5.888 4.134,-12.0911 z m -271.729,-40.824205 c -63.38319,0.1181 -57.58869,1.7737 -53.09219,2.6289 52.96369,11.472005 53.75779,14.496605 53.09219,-2.6289 z m 303.1705,-3.6646 c -15.7271,-1.6859 -29.2819,-2.5969 -43.1356,-3.7904 -1.0147,6.7708 -0.079,7.6443 0.093,11.2673 14.0567,9e-4 52.7353,-4.0149 68.8282,-4.7154 z m -177.7099,-125.1636 1.9005,-63.705895 -9.8881,64.572795 c 15.9857,-0.1846 1.8722,0.029 7.9876,-0.8669 z m 150.5107,106.9581 c -0.8275,-6.3276 -6.7259,-29.5118 -8.0557,-31.6635 -0.3036,-0.491 -4.4539,0.6854 -9.223,2.6143 -7.3631,2.9781 -8.5558,3.9076 -7.9055,6.1609 0.4213,1.4594 2.0356,7.729 3.5873,13.9321 1.5518,6.203 2.9393,11.4512 3.0836,11.6627 0.1441,0.2112 4.3682,1.2001 9.3869,2.1972 5.0187,0.9972 9.3302,1.8692 9.581,1.9378 0.2511,0.069 0.046,-3.0101 -0.4546,-6.8415 z m -283.5512,4.2451 6.5006,-1.394 2.7877,-10.8795 c 1.5332,-5.9836 3.1856,-12.2246 3.672,-13.8689 0.7804,-2.6381 0,-3.379 -6.6069,-6.3026 -4.1204,-1.8221 -8.0067,-3.3131 -8.6364,-3.3131 -2.3467,0 -4.8707,8.4906 -10.1571,34.1668 -0.7223,3.5087 1.9223,3.847 12.4401,1.5913 z m 136.5415,-97.2886 c -74.0968,-1.3609 -113.2494,42.6399 -114.2825,112.728 -1.6106,67.838005 44.7612,115.626005 112.862,115.930005 67.813,2.6213 112.0987,-41.2328 116.5147,-102.175403 -2.9955,-87.256102 -48.6109,-121.098502 -115.0942,-126.482602 z m -119.0279,60.4155 c 0,-0.6133 2.986,-6.0834 6.6356,-12.1554 l 6.6355,-11.0403998 -4.0546,-6.3187 c -6.6613,-10.3805997 -6.8895,-10.3966997 -13.5891,-0.9505 -3.2611,4.598 -7.8029,12.0981998 -10.0927,16.6672998 l -4.1633,8.3072 6.9921,3.194 c 7.303,3.3359 11.6365,4.1913 11.6365,2.2965 z m 245.8872,-1.7555 c 3.7841,-1.5788 7.3766,-3.2991 7.983,-3.8228 1.4401,-1.2436 -2.954,-9.8713 -12.0045,-23.5708998 l -7.2834,-11.0247997 -5.9156,8.12970002 -5.9156,8.12989968 5.8935,9.5292998 c 3.2415,5.2411 6.3034,10.8727 6.8046,12.5147 1.125,3.6855 1.8605,3.6936 10.438,0.1154 z m -241.8471,-57.2833 c -11.8784,-11.7965 -21.08,-20.5056 -20.448,-19.3536 0.6319,1.152 8.7995,12.647 18.1501,25.5446 l 17.0011,23.4500002 3.4469,-4.0963997 3.4468,-4.0963 z m 226.4362,0.7768 c 10.3044,-10.7642 19.5354,-20.3928 20.5133,-21.397 1.3469,-1.3829 -45.1366,31.495201 -47.8741,33.861901 -0.8809,0.7615 5.4985,7.1062995 7.145,7.1062995 0.8141,0 9.9113,-8.8070995 20.2158,-19.5712005 z m -178.8779,1.085 c 5.989,-3.5995 11.5086,-6.7511 12.2658,-7.0035 0.8227,-0.2743 -0.065,-4.0607 -2.2068,-9.41 l -3.5834,-8.9512 -10.0956,5.4456 c -11.2572,6.072 -22.7679,14.1239 -22.7679,15.9264 0,1.1468 13.098,10.5371 14.6976,10.5371 0.4407,0 5.7013,-2.9449 11.6903,-6.5444 z m 153.098,1.1124 7.6571,-5.432 -5.6668,-4.2599 c -10.5088,-7.8998 -26.7329,-16.6858 -28.1435,-15.2407 -0.8497,0.8702 -7.4327,16.1634 -7.0631,16.4088 0.1918,0.1273 4.5283,2.4753 9.6368,5.2173 5.1085,2.7421 10.1622,5.8302 11.2309,6.8621 2.8379,2.740901 3.9069,2.433101 12.3486,-3.5556 z m -124.4211,-13.9207 c 3.6489,-1.1412 9.2786,-2.4795 12.5105,-2.974 6.4643,-0.9891 6.9217,-1.7548 8.6792,-14.5345 l 0.8932,-6.4935 -4.4071,0.5405 c -6.6634,0.8174 -25.3033,5.3709 -29.9032,7.3051 l -4.065,1.7091 3.311,8.2754 c 1.8208,4.5516 3.994,8.2691 4.8289,8.261 0.8349,-0.013 4.5037,-0.948 8.1525,-2.0891 z m 89.1229,-6.3811 c 3.8771,-9.207 4.242,-8.7739 -10.8167,-12.8407 -13.3903,-3.6163 -24.5683,-5.2015 -24.5683,-3.4843 0,0.7059 0.7032,5.0994 1.5624,9.7632 1.3765,7.47 1.969,8.5691 4.9758,9.2289 1.8773,0.412 7.593,1.8346 12.7013,3.1615 5.1085,1.3271 10.0901,2.3179 11.07,2.2026 0.9802,-0.1154 3.2641,-3.7295 5.0755,-8.0312 z"
       id="path4466-2-4-8-5-5-7-9-5-1"
       style="fill:#000000"
       inkscape:connector-curvature="0" />
    <g
       transform="translate(448.59396,-60.236733)"
       id="g3032-0-3-7-7-5"
       style="fill:#000000">
      <g
         transform="translate(-451.17391,-70.82263)"
         id="g4413-9-5-7-7-0"
         style="fill:#000000">
        <path
           d="m 534.12054,161.88159 0,10.40612 47.25268,0 -19.71898,19.71898 -8.90796,8.86746 12.59261,0 c 20.11218,0 36.40116,16.32948 36.40116,36.44165 0,20.11218 -16.28898,36.40117 -36.40116,36.40117 -20.11217,0 -36.44165,-16.28899 -36.44165,-36.40117 l -10.40612,0 c 0,25.8585 20.98928,46.8073 46.84777,46.8073 25.85849,0 46.80728,-20.9488 46.80728,-46.8073 0,-21.99252 -15.15229,-40.48031 -35.59135,-45.51157 l 29.96314,-29.92264 z"
           id="path4996-4-0-4-8-9-7-2-6-0-9-9-2-3-1-8-2-8"
           style="color:#000000;fill:#000000;fill-opacity:1;fill-rule:evenodd;stroke:none;stroke-width:19.99983215;marker:none;visibility:visible;display:inline;overflow:visible;enable-background:accumulate"
           inkscape:connector-curvature="0" />
        <g
           transform="matrix(-1,0,0,-1,1130.6373,475.18252)"
           id="g4409-68-5-8-6-3"
           style="fill:#000000">
          <path
             d="m 565.33889,208.68886 c -15.80241,0 -28.62694,12.82454 -28.62694,28.62694 0,12.13086 7.56029,22.4873 18.22083,26.6429 l 0,-11.74231 c -4.72379,-3.28183 -7.81471,-8.71082 -7.81471,-14.90059 0,-10.05608 8.16474,-18.22082 18.22082,-18.22082 10.05608,0 18.18034,8.16474 18.18034,18.22082 0,6.17974 -3.07517,11.61703 -7.77422,14.90059 l 0,11.74231 c 10.64945,-4.1556 18.18033,-14.51204 18.18033,-26.6429 0,-15.8024 -12.78404,-28.62694 -28.58645,-28.62694 z"
             id="path4996-4-0-4-2-1-9-8-5-8-9-47-1-5-3-6"
             style="color:#000000;fill:#000000;fill-opacity:1;fill-rule:evenodd;stroke:none;stroke-width:20;marker:none;visibility:visible;display:inline;overflow:visible;enable-background:accumulate"
             inkscape:connector-curvature="0" />
          <path
             d="m 565.33889,232.0925 c -2.87317,0 -5.2233,2.35013 -5.2233,5.2233 l 0,31.17786 10.40612,0 0,-31.17786 c 0,-2.87317 -2.30965,-5.2233 -5.18282,-5.2233 z"
             id="rect5023-1-6-7-7-5-2-9-1-8-8-8-6-9-2-50"
             style="color:#000000;fill:#000000;fill-opacity:1;fill-rule:evenodd;stroke:none;stroke-width:20;marker:none;visibility:visible;display:inline;overflow:visible;enable-background:accumulate"
             inkscape:connector-curvature="0" />
        </g>
        <path
           d="m 630.85289,149.49143 c -5.72232,0.0544 -10.36388,0.85328 -11.49937,1.53864 -2.27103,1.37086 -2.80747,4.65767 -2.10552,5.42576 0.70195,0.76784 11.43046,7.65845 16.11531,9.92023 12.61445,6.09045 -1.28767,29.39594 -12.14722,25.22572 -7.69621,-2.95537 -16.42692,-11.75721 -17.8969,-11.82329 -1.46996,-0.0648 -3.36351,0.9263 -3.84662,3.4822 -0.48303,2.55591 3.00841,14.89689 11.7828,24.49689 10.52926,11.52022 26.92634,-1.20851 26.92634,9.31286 l 0,48.87231 a 13.017768,13.017768 0 0 0 26.03553,0 l 0,-62.4367 0,-14.57666 c 0,-5.46709 6.70282,-27.38877 -15.46745,-36.56312 -5.37441,-2.22388 -12.17459,-2.92922 -17.8969,-2.87484 z"
           id="path5018-1-3-2-1-4-7-5-6-89-1-7-3-1"
           style="fill:#000000;fill-opacity:1;stroke:none"
           inkscape:connector-curvature="0" />
      </g>
      <path
         d="M 146.87871,20 C 76.80785,20 20,76.8078 20,146.8787 c 0,70.0708 56.80785,126.87868 126.87871,126.87868 70.07082,0 126.87872,-56.80788 126.87872,-126.87868 C 273.75743,76.8078 216.94953,20 146.87871,20 z m 0,17.3855 c 60.46032,0 109.45402,49.0329 109.45402,109.4932 0,60.4603 -48.9937,109.454 -109.45402,109.454 -60.47222,0.3888 -108.64533,-55.933 -109.49316,-109.454 0,-60.4603 49.03291,-109.4932 109.49322,-109.4932 z"
         id="path7438-70-0-9-0-2-8-0-2-7-3"
         style="color:#000000;fill:#000000;fill-opacity:1;fill-rule:evenodd;stroke:none;stroke-width:10.41600037;marker:none;visibility:visible;display:inline;overflow:visible;enable-background:accumulate"
         inkscape:connector-curvature="0" />
    </g>
  </g>
  <text
     x="69.654449"
     y="142.42612"
     id="text3150-0-3-2-6-83"
     xml:space="preserve"
     style="font-size:9.50764179px;font-style:normal;font-variant:normal;font-weight:600;font-stretch:normal;text-align:center;line-height:125%;letter-spacing:0px;word-spacing:0px;text-anchor:middle;fill:#000000;fill-opacity:1;stroke:none;font-family:Galette;-inkscape-font-specification:Galette Semi-Bold"
     sodipodi:linespacing="125%"><tspan
       x="69.654449"
       y="142.42612"
       id="tspan3154-2-2-1-9-9"
       style="font-size:9.50764179px;font-style:normal;font-variant:normal;font-weight:bold;font-stretch:normal;font-family:Cantarell;-inkscape-font-specification:Cantarell Bold">Hackerspace Magdeburg</tspan></text>
  <text
     x="5.8491282"
     y="181.46152"
     id="text4647-90"
     xml:space="preserve"
     style="font-size:8.45123768px;font-style:normal;font-variant:normal;font-weight:normal;font-stretch:normal;line-height:125%;letter-spacing:0px;word-spacing:0px;fill:#000000;fill-opacity:1;stroke:none;font-family:Cantarell;-inkscape-font-specification:Cantarell"
     sodipodi:linespacing="125%"><tspan
       x="5.8491282"
       y="181.46152"
       id="tspan4649-9">Entry</tspan></text>
  <text
     x="5.9531951"
     y="219.15524"
     id="text4651-71"
     xml:space="preserve"
     style="font-size:8.45123768px;font-style:normal;font-variant:normal;font-weight:600;font-stretch:normal;line-height:125%;letter-spacing:0px;word-spacing:0px;fill:#000000;fill-opacity:1;stroke:none;font-family:Galette;-inkscape-font-specification:Galette Semi-Bold"
     sodipodi:linespacing="125%"><tspan
       x="5.9531951"
       y="219.15524"
       id="tspan4653-3"
       style="font-size:8.45123768px;font-style:normal;font-variant:normal;font-weight:normal;font-stretch:normal;fill:#000000;font-family:Cantarell;-inkscape-font-specification:Cantarell">Exit</tspan></text>
  <text
     x="-116.31376"
     y="156.06564"
     transform="matrix(0,-1,1,0,0,0)"
     id="text4081-6"
     xml:space="preserve"
     style="font-size:21.12809372px;font-style:normal;font-variant:normal;font-weight:normal;font-stretch:normal;line-height:125%;letter-spacing:0px;word-spacing:0px;fill:#000000;fill-opacity:1;stroke:none;font-family:Cantarell;-inkscape-font-specification:Cantarell"
     sodipodi:linespacing="125%"><tspan
       x="-116.31376"
       y="156.06564"
       id="tspan4083-8"
       style="font-size:21.12809372px">Embassy</tspan></text>
  <g
     id="g3712"
     transform="matrix(1.0564047,0,0,1.0564047,-3.1070128,-3.1867163)">
    <rect
       width="151.41495"
       height="207.53595"
       ry="2.6832564"
       x="6.4074497"
       y="6.4327393"
       id="rect3221-7-8"
       style="fill:none;stroke:#000000;stroke-width:2.83464575;stroke-linecap:round;stroke-linejoin:round;stroke-miterlimit:4;stroke-opacity:1;stroke-dasharray:none" />
    <path
       d="m 132.28608,5.5581 0,135.7101"
       id="path4014-3-9"
       style="fill:none;stroke:#000000;stroke-width:1.77165353;stroke-linecap:butt;stroke-linejoin:miter;stroke-miterlimit:4;stroke-opacity:1;stroke-dasharray:none"
       inkscape:connector-curvature="0" />
    <path
       d="m 5.71618,130.487 126.36774,0"
       id="path4012-8-4-2"
       style="fill:none;stroke:#000000;stroke-width:1.77165353;stroke-linecap:butt;stroke-linejoin:miter;stroke-miterlimit:4;stroke-opacity:1;stroke-dasharray:none"
       inkscape:connector-curvature="0" />
    <path
       d="m 6.50062,177.3987 151.23855,0"
       id="path4051-1-0-6-8"
       style="fill:none;stroke:#000000;stroke-width:1px;stroke-linecap:butt;stroke-linejoin:miter;stroke-opacity:1"
       inkscape:connector-curvature="0" />
    <path
       d="m 6.263161,141.0856 151.933609,0"
       id="path4012-8-4-2-6"
       style="fill:none;stroke:#000000;stroke-width:1.77165353;stroke-linecap:butt;stroke-linejoin:miter;stroke-miterlimit:4;stroke-opacity:1;stroke-dasharray:none"
       inkscape:connector-curvature="0" />
  </g>
  <text
     x="-108.09734"
     y="93.630898"
     id="text3560"
     xml:space="preserve"
     style="font-size:40px;font-style:normal;font-variant:normal;font-weight:600;font-stretch:normal;line-height:125%;letter-spacing:0px;word-spacing:0px;fill:#000000;fill-opacity:1;stroke:none;font-family:Galette;-inkscape-font-specification:Galette Semi-Bold"
     sodipodi:linespacing="125%"><tspan
       x="-108.09734"
       y="93.630898"
       id="tspan3562" /></text>
</svg>
