<?xml version="1.0" encoding="UTF-8" standalone="no"?>
<!-- Created with Inkscape (http://www.inkscape.org/) -->

<svg
   xmlns:dc="http://purl.org/dc/elements/1.1/"
   xmlns:cc="http://creativecommons.org/ns#"
   xmlns:rdf="http://www.w3.org/1999/02/22-rdf-syntax-ns#"
   xmlns:svg="http://www.w3.org/2000/svg"
   xmlns="http://www.w3.org/2000/svg"
   version="1.1"
   width="512"
   height="512"
   id="svg4411">
  <defs
     id="defs4413">
    <marker
       refX="0"
       refY="0"
       orient="auto"
       id="TriangleInM"
       style="overflow:visible">
      <path
         d="m 5.77,0 -8.65,5 0,-10 8.65,5 z"
         transform="scale(-0.4,-0.4)"
         id="path4129"
         style="fill-rule:evenodd;stroke:#000000;stroke-width:1pt" />
    </marker>
    <marker
       refX="0"
       refY="0"
       orient="auto"
       id="Arrow2Mend"
       style="overflow:visible">
      <path
         d="M 8.7185878,4.0337352 -2.2072895,0.01601326 8.7185884,-4.0017078 c -1.7454984,2.3720609 -1.7354408,5.6174519 -6e-7,8.035443 z"
         transform="scale(-0.6,-0.6)"
         id="path4020"
         style="fill-rule:evenodd;stroke-width:0.625;stroke-linejoin:round" />
    </marker>
    <marker
       refX="0"
       refY="0"
       orient="auto"
       id="Club"
       style="overflow:visible">
      <path
         d="m -1.5971367,-7.0977635 c -1.8892507,0 -3.426382,1.5371314 -3.426382,3.4263822 0,0.6566798 0.2383531,1.2269257 0.5594092,1.7481542 -0.038751,0.032111 -0.079672,0.058463 -0.1165436,0.093235 -0.6224234,-0.8549928 -1.5893983,-1.4451409 -2.7271199,-1.4451409 -1.8892515,-1e-7 -3.426382,1.5371314 -3.426382,3.42638214 0,1.88925076 1.5371305,3.42638216 3.426382,3.42638216 0.9934462,0 1.868619,-0.4420611 2.4940326,-1.1188187 -0.124687,0.3548915 -0.2097783,0.7214874 -0.2097783,1.1188187 0,1.8892506 1.5371313,3.4263822 3.426382,3.4263822 1.88925064,0 3.4263821,-1.5371316 3.4263821,-3.4263822 0,-0.7933959 -0.3155586,-1.4938285 -0.7691878,-2.0744763 C 2.4152718,1.7663868 3.7718375,2.2973711 4.7661444,3.8340272 4.0279463,3.0958289 3.5540908,1.7534117 3.5540908,-0.05852936 l -0.6293354,-0.04661745 0.5827179,-0.0233087 c 0,-1.81194109 0.4505466,-3.15435829 1.188745,-3.89255659 -0.9590906,1.4822308 -2.2571634,2.0263625 -3.5662345,2.3075635 0.4041964,-0.5619092 0.6992616,-1.213407 0.6992616,-1.9579327 0,-1.8892506 -1.53713146,-3.4263822 -3.4263821,-3.4263822 z"
         transform="scale(0.6,0.6)"
         id="path4222"
         style="fill-rule:evenodd;stroke:#000000;stroke-width:0.74587913pt" />
    </marker>
    <linearGradient
       id="linearGradient7384">
      <stop
         id="stop7386"
         style="stop-color:#000000;stop-opacity:1"
         offset="0" />
    </linearGradient>
    <linearGradient
       id="linearGradient7986">
      <stop
         id="stop7988"
         style="stop-color:#000000;stop-opacity:1"
         offset="0" />
    </linearGradient>
    <filter
       x="-0.228"
       y="-0.228"
       width="1.456"
       height="1.456"
       color-interpolation-filters="sRGB"
       id="filter8045">
      <feGaussianBlur
         id="feGaussianBlur8047"
         stdDeviation="0.95" />
    </filter>
    <filter
       x="-0.228"
       y="-0.228"
       width="1.456"
       height="1.456"
       color-interpolation-filters="sRGB"
       id="filter8041">
      <feGaussianBlur
         id="feGaussianBlur8043"
         stdDeviation="0.95" />
    </filter>
    <filter
       x="-0.228"
       y="-0.228"
       width="1.456"
       height="1.456"
       color-interpolation-filters="sRGB"
       id="filter8037">
      <feGaussianBlur
         id="feGaussianBlur8039"
         stdDeviation="0.95" />
    </filter>
    <filter
       x="-0.228"
       y="-0.228"
       width="1.456"
       height="1.456"
       color-interpolation-filters="sRGB"
       id="filter8033">
      <feGaussianBlur
         id="feGaussianBlur8035"
         stdDeviation="0.95" />
    </filter>
    <filter
       x="-0.228"
       y="-0.228"
       width="1.456"
       height="1.456"
       color-interpolation-filters="sRGB"
       id="filter8029">
      <feGaussianBlur
         id="feGaussianBlur8031"
         stdDeviation="0.95" />
    </filter>
    <filter
       x="-0.228"
       y="-0.228"
       width="1.456"
       height="1.456"
       color-interpolation-filters="sRGB"
       id="filter8025">
      <feGaussianBlur
         id="feGaussianBlur8027"
         stdDeviation="0.95" />
    </filter>
    <filter
       x="-0.228"
       y="-0.228"
       width="1.456"
       height="1.456"
       color-interpolation-filters="sRGB"
       id="filter8021">
      <feGaussianBlur
         id="feGaussianBlur8023"
         stdDeviation="0.95" />
    </filter>
    <filter
       x="-0.228"
       y="-0.228"
       width="1.456"
       height="1.456"
       color-interpolation-filters="sRGB"
       id="filter8017">
      <feGaussianBlur
         id="feGaussianBlur8019"
         stdDeviation="0.95" />
    </filter>
    <filter
       x="-0.228"
       y="-0.228"
       width="1.456"
       height="1.456"
       color-interpolation-filters="sRGB"
       id="filter8013">
      <feGaussianBlur
         id="feGaussianBlur8015"
         stdDeviation="0.95" />
    </filter>
    <filter
       x="-0.228"
       y="-0.228"
       width="1.456"
       height="1.456"
       color-interpolation-filters="sRGB"
       id="filter8009">
      <feGaussianBlur
         id="feGaussianBlur8011"
         stdDeviation="0.95" />
    </filter>
    <filter
       x="-0.228"
       y="-0.228"
       width="1.456"
       height="1.456"
       color-interpolation-filters="sRGB"
       id="filter8005">
      <feGaussianBlur
         id="feGaussianBlur8007"
         stdDeviation="0.95" />
    </filter>
    <filter
       x="-0.228"
       y="-0.228"
       width="1.456"
       height="1.456"
       color-interpolation-filters="sRGB"
       id="filter8001">
      <feGaussianBlur
         id="feGaussianBlur8003"
         stdDeviation="0.95" />
    </filter>
    <filter
       x="-0.228"
       y="-0.228"
       width="1.456"
       height="1.456"
       color-interpolation-filters="sRGB"
       id="filter7997">
      <feGaussianBlur
         id="feGaussianBlur7999"
         stdDeviation="0.95" />
    </filter>
    <filter
       x="-0.228"
       y="-0.228"
       width="1.456"
       height="1.456"
       color-interpolation-filters="sRGB"
       id="filter7993">
      <feGaussianBlur
         id="feGaussianBlur7995"
         stdDeviation="0.95" />
    </filter>
    <filter
       x="-0.228"
       y="-0.228"
       width="1.456"
       height="1.456"
       color-interpolation-filters="sRGB"
       id="filter7989">
      <feGaussianBlur
         id="feGaussianBlur7991"
         stdDeviation="0.95" />
    </filter>
    <filter
       x="-0.228"
       y="-0.228"
       width="1.456"
       height="1.456"
       color-interpolation-filters="sRGB"
       id="filter7985">
      <feGaussianBlur
         id="feGaussianBlur7987"
         stdDeviation="0.95" />
    </filter>
    <filter
       x="-0.228"
       y="-0.228"
       width="1.456"
       height="1.456"
       color-interpolation-filters="sRGB"
       id="filter7981">
      <feGaussianBlur
         id="feGaussianBlur7983"
         stdDeviation="0.95" />
    </filter>
    <filter
       x="-0.228"
       y="-0.228"
       width="1.456"
       height="1.456"
       color-interpolation-filters="sRGB"
       id="filter7977">
      <feGaussianBlur
         id="feGaussianBlur7979"
         stdDeviation="0.95" />
    </filter>
    <filter
       x="-0.228"
       y="-0.228"
       width="1.456"
       height="1.456"
       color-interpolation-filters="sRGB"
       id="filter7973">
      <feGaussianBlur
         id="feGaussianBlur7975"
         stdDeviation="0.95" />
    </filter>
    <filter
       x="-0.228"
       y="-0.228"
       width="1.456"
       height="1.456"
       color-interpolation-filters="sRGB"
       id="filter7969">
      <feGaussianBlur
         id="feGaussianBlur7971"
         stdDeviation="0.95" />
    </filter>
    <filter
       x="-0.228"
       y="-0.228"
       width="1.456"
       height="1.456"
       color-interpolation-filters="sRGB"
       id="filter7965">
      <feGaussianBlur
         id="feGaussianBlur7967"
         stdDeviation="0.95" />
    </filter>
    <filter
       x="-0.228"
       y="-0.228"
       width="1.456"
       height="1.456"
       color-interpolation-filters="sRGB"
       id="filter7961">
      <feGaussianBlur
         id="feGaussianBlur7963"
         stdDeviation="0.95" />
    </filter>
    <filter
       x="-0.228"
       y="-0.228"
       width="1.456"
       height="1.456"
       color-interpolation-filters="sRGB"
       id="filter7957">
      <feGaussianBlur
         id="feGaussianBlur7959"
         stdDeviation="0.95" />
    </filter>
    <filter
       x="-0.228"
       y="-0.228"
       width="1.456"
       height="1.456"
       color-interpolation-filters="sRGB"
       id="filter7953">
      <feGaussianBlur
         id="feGaussianBlur7955"
         stdDeviation="0.95" />
    </filter>
    <filter
       x="-0.228"
       y="-0.228"
       width="1.456"
       height="1.456"
       color-interpolation-filters="sRGB"
       id="filter7949">
      <feGaussianBlur
         id="feGaussianBlur7951"
         stdDeviation="0.95" />
    </filter>
    <filter
       x="-0.228"
       y="-0.228"
       width="1.456"
       height="1.456"
       color-interpolation-filters="sRGB"
       id="filter7945">
      <feGaussianBlur
         id="feGaussianBlur7947"
         stdDeviation="0.95" />
    </filter>
    <filter
       x="-0.228"
       y="-0.228"
       width="1.456"
       height="1.456"
       color-interpolation-filters="sRGB"
       id="filter7941">
      <feGaussianBlur
         id="feGaussianBlur7943"
         stdDeviation="0.95" />
    </filter>
    <filter
       x="-0.228"
       y="-0.228"
       width="1.456"
       height="1.456"
       color-interpolation-filters="sRGB"
       id="filter7937">
      <feGaussianBlur
         id="feGaussianBlur7939"
         stdDeviation="0.95" />
    </filter>
    <filter
       x="-0.228"
       y="-0.228"
       width="1.456"
       height="1.456"
       color-interpolation-filters="sRGB"
       id="filter7933">
      <feGaussianBlur
         id="feGaussianBlur7935"
         stdDeviation="0.95" />
    </filter>
    <filter
       x="-0.228"
       y="-0.228"
       width="1.456"
       height="1.456"
       color-interpolation-filters="sRGB"
       id="filter7929">
      <feGaussianBlur
         id="feGaussianBlur7931"
         stdDeviation="0.95" />
    </filter>
    <filter
       x="-0.228"
       y="-0.228"
       width="1.456"
       height="1.456"
       color-interpolation-filters="sRGB"
       id="filter7925">
      <feGaussianBlur
         id="feGaussianBlur7927"
         stdDeviation="0.95" />
    </filter>
    <filter
       x="-0.228"
       y="-0.228"
       width="1.456"
       height="1.456"
       color-interpolation-filters="sRGB"
       id="filter7921">
      <feGaussianBlur
         id="feGaussianBlur7923"
         stdDeviation="0.95" />
    </filter>
    <filter
       x="-0.228"
       y="-0.228"
       width="1.456"
       height="1.456"
       color-interpolation-filters="sRGB"
       id="filter7917">
      <feGaussianBlur
         id="feGaussianBlur7919"
         stdDeviation="0.95" />
    </filter>
    <filter
       x="-0.228"
       y="-0.228"
       width="1.456"
       height="1.456"
       color-interpolation-filters="sRGB"
       id="filter7913">
      <feGaussianBlur
         id="feGaussianBlur7915"
         stdDeviation="0.95" />
    </filter>
    <filter
       x="-0.228"
       y="-0.228"
       width="1.456"
       height="1.456"
       color-interpolation-filters="sRGB"
       id="filter7909">
      <feGaussianBlur
         id="feGaussianBlur7911"
         stdDeviation="0.95" />
    </filter>
    <filter
       x="-0.228"
       y="-0.228"
       width="1.456"
       height="1.456"
       color-interpolation-filters="sRGB"
       id="filter7905">
      <feGaussianBlur
         id="feGaussianBlur7907"
         stdDeviation="0.95" />
    </filter>
    <filter
       x="-0.228"
       y="-0.228"
       width="1.456"
       height="1.456"
       color-interpolation-filters="sRGB"
       id="filter7901">
      <feGaussianBlur
         id="feGaussianBlur7903"
         stdDeviation="0.95" />
    </filter>
    <filter
       x="-0.228"
       y="-0.228"
       width="1.456"
       height="1.456"
       color-interpolation-filters="sRGB"
       id="filter7897">
      <feGaussianBlur
         id="feGaussianBlur7899"
         stdDeviation="0.95" />
    </filter>
    <filter
       x="-0.228"
       y="-0.228"
       width="1.456"
       height="1.456"
       color-interpolation-filters="sRGB"
       id="filter7893">
      <feGaussianBlur
         id="feGaussianBlur7895"
         stdDeviation="0.95" />
    </filter>
    <filter
       x="-0.228"
       y="-0.228"
       width="1.456"
       height="1.456"
       color-interpolation-filters="sRGB"
       id="filter7889">
      <feGaussianBlur
         id="feGaussianBlur7891"
         stdDeviation="0.95" />
    </filter>
    <filter
       x="-0.228"
       y="-0.228"
       width="1.456"
       height="1.456"
       color-interpolation-filters="sRGB"
       id="filter7885">
      <feGaussianBlur
         id="feGaussianBlur7887"
         stdDeviation="0.95" />
    </filter>
    <linearGradient
       id="linearGradient5415">
      <stop
         id="stop5417"
         style="stop-color:#000000;stop-opacity:1"
         offset="0" />
    </linearGradient>
  </defs>
  <metadata
     id="metadata4416">
    <rdf:RDF>
      <cc:Work
         rdf:about="">
        <dc:format>image/svg+xml</dc:format>
        <dc:type
           rdf:resource="http://purl.org/dc/dcmitype/StillImage" />
        <dc:title></dc:title>
      </cc:Work>
    </rdf:RDF>
  </metadata>
  <g
     transform="translate(0,464)"
     id="layer1">
    <text
       x="376.25677"
       y="-219.90495"
       id="text3024"
       xml:space="preserve"
       style="font-size:11px;font-style:normal;font-weight:normal;line-height:125%;letter-spacing:0px;word-spacing:0px;fill:#000000;fill-opacity:1;stroke:none;font-family:Sans"><tspan
         x="376.25677"
         y="-219.90495"
         id="tspan3026"
         style="font-size:5.5px;font-style:normal;font-variant:normal;font-weight:normal;font-stretch:normal;font-family:DejaVu Sans Mono;-inkscape-font-specification:DejaVu Sans Mono">member@netz39:/lounge$modprobe -l</tspan><tspan
         x="376.25677"
         y="-213.02995"
         id="tspan3028"
         style="font-size:5.5px;font-style:normal;font-variant:normal;font-weight:normal;font-stretch:normal;font-family:DejaVu Sans Mono;-inkscape-font-specification:DejaVu Sans Mono">magdeburg/l32/hackerspace.ko</tspan><tspan
         x="376.25677"
         y="-206.15495"
         id="tspan3032"
         style="font-size:5.5px;font-style:normal;font-variant:normal;font-weight:normal;font-stretch:normal;font-family:DejaVu Sans Mono;-inkscape-font-specification:DejaVu Sans Mono">magdeburg/l32/members.ko</tspan><tspan
         x="376.25677"
         y="-199.27995"
         id="tspan3067"
         style="font-size:5.5px;font-style:normal;font-variant:normal;font-weight:normal;font-stretch:normal;font-family:DejaVu Sans Mono;-inkscape-font-specification:DejaVu Sans Mono">stuff/tools.ko</tspan><tspan
         x="376.25677"
         y="-192.40495"
         id="tspan3034"
         style="font-size:5.5px;font-style:normal;font-variant:normal;font-weight:normal;font-stretch:normal;font-family:DejaVu Sans Mono;-inkscape-font-specification:DejaVu Sans Mono">stuff/foobars.ko</tspan><tspan
         x="376.25677"
         y="-185.52995"
         id="tspan3036"
         style="font-size:5.5px;font-style:normal;font-variant:normal;font-weight:normal;font-stretch:normal;font-family:DejaVu Sans Mono;-inkscape-font-specification:DejaVu Sans Mono">member@netz39:/lounge$ █</tspan></text>
    <g
       transform="translate(153.7184,-242.84211)"
       id="g4544">
      <g
         transform="matrix(0.22885356,0,0,0.22658848,33.640295,45.20275)"
         id="g7335">
        <path
           d="m 14.729719,37.42947 c -0.05786,-4.424719 4.572036,-14.334949 8.21235,-17.92853 l 5.937077,-7.556109 20.268344,-23.291817 6.023137,8.3040574 -19.92609,21.1943046 C 28.499849,24.439417 22.696078,29.948408 21.583995,42.392134 z"
           id="path3112"
           style="fill:none;stroke:#000000;stroke-width:2.43221903px;stroke-linecap:butt;stroke-linejoin:miter;stroke-opacity:1" />
        <path
           d="M 51.366205,-6.9229096 C 43.075345,5.7834831 44.185933,1.1960126 26.264959,20.320081"
           id="path3148"
           style="fill:none;stroke:#000000;stroke-width:1px;stroke-linecap:butt;stroke-linejoin:miter;stroke-opacity:1" />
        <path
           d="M 52.394243,-3.4961183 C 46.226019,2.1009742 30.550274,17.553744 24.123215,26.145626"
           id="path3150"
           style="fill:none;stroke:#000000;stroke-width:1px;stroke-linecap:butt;stroke-linejoin:miter;stroke-opacity:1" />
        <path
           d="M 47.853743,-4.3528161 C 43.292728,0.58460912 22.659786,18.488935 18.726018,31.371483"
           id="path3152"
           style="fill:none;stroke:#000000;stroke-width:1px;stroke-linecap:butt;stroke-linejoin:miter;stroke-opacity:1" />
        <path
           d="M 46.280647,-5.6068222 C 45.733602,-3.9036613 26.587017,16.534268 26.587017,16.534268"
           id="path3154"
           style="fill:none;stroke:#000000;stroke-width:0.89074177px;stroke-linecap:butt;stroke-linejoin:miter;stroke-opacity:1" />
        <path
           d="M 48.624772,-6.9229096 C 47.680358,-5.0573119 41.157814,0.60913112 33.63256,17.749987"
           id="path3156"
           style="fill:none;stroke:#000000;stroke-width:1px;stroke-linecap:butt;stroke-linejoin:miter;stroke-opacity:1" />
        <path
           d="M 42.492615,-19.737903 C 48.614537,-9.4898813 56.312866,-4.5673921 63.225831,3.0082707 87.087628,-19.671632 111.45612,-40.544815 136.40189,-59.359617"
           id="path3114"
           style="fill:none;stroke:#000000;stroke-width:2.22900009;stroke-linecap:butt;stroke-linejoin:miter;stroke-miterlimit:4;stroke-opacity:1;stroke-dasharray:none;stroke-dashoffset:0;marker-start:none;marker-mid:none" />
        <path
           d="M 59.160495,1.0318424 C 84.415988,-17.590242 107.66142,-37.371604 129.08428,-58.204112"
           id="path3116"
           style="fill:none;stroke:#000000;stroke-width:2.22900009;stroke-linecap:butt;stroke-linejoin:miter;stroke-miterlimit:4;stroke-opacity:1;stroke-dasharray:none;stroke-dashoffset:0;marker-start:none;marker-mid:none" />
        <path
           d="m 127.45815,-54.060683 c -1.62614,0.46134 -64.827674,47.5519513 -64.827674,47.5519513"
           id="path3118"
           style="fill:none;stroke:#000000;stroke-width:2.22900009;stroke-linecap:butt;stroke-linejoin:miter;stroke-miterlimit:4;stroke-opacity:1;stroke-dasharray:none;stroke-dashoffset:0;marker-start:none;marker-mid:none" />
        <path
           d="M 56.314759,-10.587868 C 74.88324,-29.068056 103.76035,-46.498446 122.62556,-54.442488"
           id="path3120"
           style="fill:none;stroke:#000000;stroke-width:2.22900009;stroke-linecap:butt;stroke-linejoin:miter;stroke-miterlimit:4;stroke-opacity:1;stroke-dasharray:none;stroke-dashoffset:0;marker-start:none;marker-mid:none" />
        <path
           d="M 112.4164,-48.412509 C 106.56347,-49.287557 52.316217,-4.2323651 53.469024,-3.7971275"
           id="path3122"
           style="fill:none;stroke:#000000;stroke-width:2.22900009;stroke-linecap:butt;stroke-linejoin:miter;stroke-miterlimit:4;stroke-opacity:1;stroke-dasharray:none;stroke-dashoffset:0;marker-start:none;marker-mid:none" />
        <path
           d="M 48.590619,-7.9362445 C 64.281513,-21.094312 89.678718,-40.476621 106.9282,-51.135921"
           id="path3124"
           style="fill:none;stroke:#000000;stroke-width:2.22900009;stroke-linecap:butt;stroke-linejoin:miter;stroke-miterlimit:4;stroke-opacity:1;stroke-dasharray:none;stroke-dashoffset:0;marker-start:none;marker-mid:none" />
        <path
           d="M 45.744884,-11.455357 C 68.156159,-27.326986 74.269496,-40.962732 113.63601,-59.16042"
           id="path3126"
           style="fill:none;stroke:#000000;stroke-width:2.22900009;stroke-linecap:butt;stroke-linejoin:miter;stroke-miterlimit:4;stroke-opacity:1;stroke-dasharray:none;stroke-dashoffset:0;marker-start:none;marker-mid:none" />
        <path
           d="m 39.240346,-19.183434 c 31.032069,-23.501567 52.425482,-45.86912 93.096214,-70.504707"
           id="path3128"
           style="fill:none;stroke:#000000;stroke-width:2.22900009;stroke-linecap:butt;stroke-linejoin:miter;stroke-miterlimit:4;stroke-opacity:1;stroke-dasharray:none;stroke-dashoffset:0;marker-start:none;marker-mid:none" />
        <path
           d="m 137.21496,-59.037973 c -9.11851,-4.276455 -15.33603,-11.721919 -22.76588,-17.843044"
           id="path3130"
           style="fill:none;stroke:#000000;stroke-width:2.22900009;stroke-linecap:butt;stroke-linejoin:miter;stroke-miterlimit:4;stroke-opacity:1;stroke-dasharray:none;stroke-dashoffset:0;marker-start:none;marker-mid:none" />
        <path
           d="m 138.02803,-55.770657 c -4.2164,0.578163 -29.245,-19.573846 -28.45736,-20.094551"
           id="path3132"
           style="fill:none;stroke:#000000;stroke-width:2.22900009;stroke-linecap:butt;stroke-linejoin:miter;stroke-miterlimit:4;stroke-opacity:1;stroke-dasharray:none;stroke-dashoffset:0;marker-start:none;marker-mid:none" />
        <path
           d="m 139.65416,-57.704831 c -9.07108,-8.693117 -19.31069,-14.788111 -30.08349,-21.842467"
           id="path3134"
           style="fill:none;stroke:#000000;stroke-width:2.22900009;stroke-linecap:butt;stroke-linejoin:miter;stroke-miterlimit:4;stroke-opacity:1;stroke-dasharray:none;stroke-dashoffset:0;marker-start:none;marker-mid:none" />
        <path
           d="m 124.61241,-82.618008 c -23.57895,14.595081 -47.157903,30.208311 -70.736853,47.499833"
           id="path3136"
           style="fill:none;stroke:#000000;stroke-width:2.22900009;stroke-linecap:butt;stroke-linejoin:miter;stroke-miterlimit:4;stroke-opacity:1;stroke-dasharray:none;stroke-dashoffset:0;marker-start:none;marker-mid:none" />
        <path
           d="m 60.786629,-43.614578 c 17.3304,-12.756085 34.608189,-25.613991 53.255911,-35.82062"
           id="path3138"
           style="fill:none;stroke:#000000;stroke-width:2.22900009;stroke-linecap:butt;stroke-linejoin:miter;stroke-miterlimit:4;stroke-opacity:1;stroke-dasharray:none;stroke-dashoffset:0;marker-start:none;marker-mid:none" />
        <path
           d="m 125.83201,-72.746212 c -1.62612,1.197757 -71.956453,57.143114 -71.956453,57.143114"
           id="path3140"
           style="fill:none;stroke:#000000;stroke-width:2.22900009;stroke-linecap:butt;stroke-linejoin:miter;stroke-miterlimit:4;stroke-opacity:1;stroke-dasharray:none;stroke-dashoffset:0;marker-start:none;marker-mid:none" />
        <path
           d="m 113.22947,-67.237736 c -1.85299,-2.21881 -55.787102,42.310141 -56.508177,43.739271"
           id="path3142"
           style="fill:none;stroke:#000000;stroke-width:2.22900009;stroke-linecap:butt;stroke-linejoin:miter;stroke-miterlimit:4;stroke-opacity:1;stroke-dasharray:none;stroke-dashoffset:0;marker-start:none;marker-mid:none" />
        <path
           d="m 51.842889,-20.641611 c -0.456446,-2.079213 40.703919,-36.800987 42.279499,-36.296618"
           id="path3144"
           style="fill:none;stroke:#000000;stroke-width:2.22900009;stroke-linecap:butt;stroke-linejoin:miter;stroke-miterlimit:4;stroke-opacity:1;stroke-dasharray:none;stroke-dashoffset:0;marker-start:none;marker-mid:none" />
        <path
           d="M 46.964485,-19.994012 C 51.710016,-28.409487 107.60639,-67.790296 107.538,-67.648197"
           id="path3146"
           style="fill:none;stroke:#000000;stroke-width:2.22900009;stroke-linecap:butt;stroke-linejoin:miter;stroke-miterlimit:4;stroke-opacity:1;stroke-dasharray:none;stroke-dashoffset:0;marker-start:none;marker-mid:none" />
        <path
           d="M 72.169572,-24.383203 C 89.213818,-39.211371 103.49008,-46.673247 118.51441,-56.125928"
           id="path3158"
           style="fill:none;stroke:#000000;stroke-width:2.22900009;stroke-linecap:butt;stroke-linejoin:miter;stroke-miterlimit:4;stroke-opacity:1;stroke-dasharray:none;stroke-dashoffset:0;marker-start:none;marker-mid:none" />
        <path
           d="m 66.071567,-27.347846 c 1.626134,-1.565967 41.059903,-28.862588 41.059903,-28.862588"
           id="path3160"
           style="fill:none;stroke:#000000;stroke-width:2.22900009;stroke-linecap:butt;stroke-linejoin:miter;stroke-miterlimit:4;stroke-opacity:1;stroke-dasharray:none;stroke-dashoffset:0;marker-start:none;marker-mid:none" />
        <path
           d="m 126.94243,-74.642037 c 2.32229,-1.282424 3.53359,-3.660551 6.85236,-5.646414 1.43697,-0.688098 5.29444,-3.804738 6.7301,-4.495553 5.90164,-3.335799 8.90767,-6.912506 15.24862,-9.307559 4.66398,-1.761641 13.54922,-5.855376 17.57818,-8.763657 2.65718,-1.91807 13.08706,-4.21367 15.75361,-4.9878 7.6261,-2.08764 9.92635,-2.21213 17.50687,-4.46125 5.14523,-1.52658 7.59122,1.64313 12.46388,-0.38878 1.74722,-0.72859 5.61207,0.82286 7.32771,0.0227 4.38317,-2.05574 6.22249,0.34577 10.24087,-2.32736 l 14.67435,2.78222 -17.44637,-2.42311 c -5.5838,3.66844 -5.19035,-1.48555 -11.21921,1.42009 -1.6901,0.7714 -8.50637,-0.62499 -9.18957,1.10264 -1.41007,3.56569 -9.60413,-1.38723 -14.70892,-0.0133 -7.59524,2.04416 -10.05523,3.03484 -17.64272,5.10639 -2.6684,0.77778 -9.956,5.38185 -12.6091,6.21032 -4.80182,1.499431 -9.44893,9.201027 -17.66552,9.339427 -5.51514,0.0929 -0.75396,1.80542 -5.6227,4.288637 -1.81943,0.927972 -7.2295,1.939847 -7.57305,5.090568 -7.16307,5.67542 -8.37148,8.286308 -16.22622,11.663553 8.67418,-6.437189 -2.50088,0.526877 5.52683,-4.211742 z"
           id="path7307"
           style="fill:#000000;fill-opacity:1;stroke:#000000;stroke-width:2.22900009;stroke-miterlimit:4;stroke-opacity:1;stroke-dasharray:none;stroke-dashoffset:0" />
        <path
           d="m 129.54477,-64.834436 c 0.53025,-1.394003 -0.45191,-0.425285 0.49113,-1.603649 0.98128,-1.22615 -0.66825,-2.95548 0.48751,-3.99808 5.90982,-4.41206 17.54284,-9.98997 23.72383,-13.02958 7.9861,-3.75596 -5.13731,-3.82854 2.54948,-6.48894 2.73296,-0.94408 19.19048,-4.57857 21.92731,-5.51138 2.90479,-0.99005 9.74229,-5.944525 12.64542,-6.939405 5.29822,-1.81566 12.41902,-1.55185 17.768,-3.11951 3.20942,-0.9406 8.1747,-1.90109 11.40535,-2.76597 8.757,-2.10573 17.74089,0.26338 26.63419,-1.17883 6.23636,-1.01134 11.82394,-3.92741 18.107,-4.55976 5.12036,-0.49211 4.61207,1.44376 9.06331,1.04047 l -5.58362,1.01683 0,0 c -4.24976,0.25376 -1.96041,0.10673 -6.86736,0.45148 -4.58357,0.37532 -11.39592,-1.39997 -16.14839,-0.81747 -11.23039,1.37649 -19.68279,2.2841 -28.5361,7.10589 -3.23797,0.87724 -16.77777,1.16474 -19.99427,2.11769 -5.07704,1.50417 -5.94802,2.13305 -10.99103,3.874245 -2.92955,1.01148 -9.621,2.55882 -12.55079,3.5696 -2.76238,0.95302 0.45906,3.92427 -2.29825,4.89187 -5.17704,1.81381 -19.94946,5.57042 -24.62524,7.60641 -5.65866,2.47466 -2.79732,2.66034 -8.04568,5.41617 -4.328,2.57264 -0.47602,3.49216 -3.71897,7.31606 -0.91,1.09445 -7.07289,2.61158 -7.53039,3.93763 z"
           id="path7333"
           style="fill:#000000;fill-opacity:1;stroke:#000000;stroke-width:2.22900009;stroke-miterlimit:4;stroke-opacity:1;stroke-dasharray:none;stroke-dashoffset:0" />
      </g>
      <path
         d="m 37.814364,54.984464 c -1.010114,-0.988005 -1.584817,-4.324954 -2.15866,-5.624714 -0.510255,-3.086165 -0.812701,-4.513922 0.09157,-5.956649 0.516344,-1.206376 4.441535,-3.036335 6.895169,-5.921451 0.422999,-0.522195 1.437415,-2.223136 1.78051,-2.831165 4.785641,-7.810442 1.959507,-11.344176 0.244624,-14.54194 -0.879704,-1.698891 -0.216268,-0.248063 -0.998194,-1.990986 -0.362881,-0.913607 0.322421,-3.989222 0.193747,-5.122833 1.046306,-4.6227472 2.434192,-1.090446 0.52918,-6.4204629 l 0.232896,-1.0470601 0,0 c 0.350378,0.9636677 0.747805,1.9023683 1.051134,2.8910028 0.751575,2.4495982 -2.005101,2.9469082 -1.558153,5.5006882 -0.359588,2.171208 -0.0284,3.204016 0.02437,4.176924 0.05314,0.979626 1.06655,1.606968 1.414242,2.628398 1.884943,4.950017 0.237752,10.612535 -0.01756,13.681268 -0.06308,0.740965 -2.030314,2.857569 -2.448394,3.385136 -2.861093,2.65779 -4.082938,2.523693 -6.512716,5.49428 -1.998427,2.148509 -0.424909,9.447982 2.358243,10.833988 z"
         id="path7364"
         style="opacity:0.32000002;fill:#000000;fill-opacity:1;stroke:#000000;stroke-width:0.02385075;stroke-miterlimit:4;stroke-opacity:1;stroke-dasharray:none;stroke-dashoffset:0" />
      <path
         d="m 24.410069,39.837101 a 6.8964176,2.3559191 0 1 1 -1.763353,0.0065"
         transform="matrix(1.132058,0,0,1.1495056,11.862001,6.0940748)"
         id="path7952"
         style="fill:none;stroke:#000000;stroke-width:0.2112648;stroke-miterlimit:4;stroke-opacity:1;stroke-dasharray:none" />
    </g>
    <g
       transform="translate(28.23657,-251.40716)"
       id="the-invader">
      <rect
         width="10"
         height="10"
         x="20"
         y="0"
         id="01-03"
         style="fill:#000000;fill-opacity:1;filter:url(#filter8045)" />
      <rect
         width="10"
         height="10"
         x="80"
         y="0"
         id="01-09"
         style="fill:#000000;fill-opacity:1;filter:url(#filter8041)" />
      <rect
         width="10"
         height="10"
         x="30"
         y="10"
         id="02-04"
         style="fill:#000000;fill-opacity:1;filter:url(#filter8037)" />
      <rect
         width="10"
         height="10"
         x="70"
         y="10"
         id="02-08"
         style="fill:#000000;fill-opacity:1;filter:url(#filter8033)" />
      <rect
         width="10"
         height="10"
         x="20"
         y="20"
         id="03-03"
         style="fill:#000000;fill-opacity:1;filter:url(#filter8029)" />
      <rect
         width="10"
         height="10"
         x="30"
         y="20"
         id="03-04"
         style="fill:#000000;fill-opacity:1;filter:url(#filter8025)" />
      <rect
         width="10"
         height="10"
         x="40"
         y="20"
         id="03-05"
         style="fill:#000000;fill-opacity:1;filter:url(#filter8021)" />
      <rect
         width="10"
         height="10"
         x="50"
         y="20"
         id="03-06"
         style="fill:#000000;fill-opacity:1;filter:url(#filter8017)" />
      <rect
         width="10"
         height="10"
         x="60"
         y="20"
         id="03-07"
         style="fill:#000000;fill-opacity:1;filter:url(#filter8013)" />
      <rect
         width="10"
         height="10"
         x="70"
         y="20"
         id="03-08"
         style="fill:#000000;fill-opacity:1;filter:url(#filter8009)" />
      <rect
         width="10"
         height="10"
         x="80"
         y="20"
         id="03-09"
         style="fill:#000000;fill-opacity:1;filter:url(#filter8005)" />
      <rect
         width="10"
         height="10"
         x="10"
         y="30"
         id="04-02"
         style="fill:#000000;fill-opacity:1;filter:url(#filter8001)" />
      <rect
         width="10"
         height="10"
         x="20"
         y="30"
         id="04-03"
         style="fill:#000000;fill-opacity:1;filter:url(#filter7997)" />
      <rect
         width="10"
         height="10"
         x="40"
         y="30"
         id="04-05"
         style="fill:#000000;fill-opacity:1;filter:url(#filter7993)" />
      <rect
         width="10"
         height="10"
         x="50"
         y="30"
         id="04-06"
         style="fill:#000000;fill-opacity:1;filter:url(#filter7989)" />
      <rect
         width="10"
         height="10"
         x="60"
         y="30"
         id="04-07"
         style="fill:#000000;fill-opacity:1;filter:url(#filter7985)" />
      <rect
         width="10"
         height="10"
         x="80"
         y="30"
         id="04-09"
         style="fill:#000000;fill-opacity:1;filter:url(#filter7981)" />
      <rect
         width="10"
         height="10"
         x="90"
         y="30"
         id="04-10"
         style="fill:#000000;fill-opacity:1;filter:url(#filter7977)" />
      <rect
         width="10"
         height="10"
         x="0"
         y="40"
         id="05-01"
         style="fill:#000000;fill-opacity:1;filter:url(#filter7973)" />
      <rect
         width="10"
         height="10"
         x="10"
         y="40"
         id="05-02"
         style="fill:#000000;fill-opacity:1;filter:url(#filter7969)" />
      <rect
         width="10"
         height="10"
         x="20"
         y="40"
         id="05-03"
         style="fill:#000000;fill-opacity:1;filter:url(#filter7965)" />
      <rect
         width="10"
         height="10"
         x="30"
         y="40"
         id="05-04"
         style="fill:#000000;fill-opacity:1;filter:url(#filter7961)" />
      <rect
         width="10"
         height="10"
         x="40"
         y="40"
         id="05-05"
         style="fill:#000000;fill-opacity:1;filter:url(#filter7957)" />
      <rect
         width="10"
         height="10"
         x="50"
         y="40"
         id="05-06"
         style="fill:#000000;fill-opacity:1;filter:url(#filter7953)" />
      <rect
         width="10"
         height="10"
         x="60"
         y="40"
         id="05-07"
         style="fill:#000000;fill-opacity:1;filter:url(#filter7949)" />
      <rect
         width="10"
         height="10"
         x="70"
         y="40"
         id="05-08"
         style="fill:#000000;fill-opacity:1;filter:url(#filter7945)" />
      <rect
         width="10"
         height="10"
         x="80"
         y="40"
         id="05-09"
         style="fill:#000000;fill-opacity:1;filter:url(#filter7941)" />
      <rect
         width="10"
         height="10"
         x="90"
         y="40"
         id="05-10"
         style="fill:#000000;fill-opacity:1;filter:url(#filter7937)" />
      <rect
         width="10"
         height="10"
         x="100"
         y="40"
         id="05-11"
         style="fill:#000000;fill-opacity:1;filter:url(#filter7933)" />
      <rect
         width="10"
         height="10"
         x="0"
         y="50"
         id="06-01"
         style="fill:#000000;fill-opacity:1;filter:url(#filter7929)" />
      <rect
         width="10"
         height="10"
         x="20"
         y="50"
         id="06-03"
         style="fill:#000000;fill-opacity:1;filter:url(#filter7925)" />
      <rect
         width="10"
         height="10"
         x="80"
         y="50"
         id="06-09"
         style="fill:#000000;fill-opacity:1;filter:url(#filter7921)" />
      <rect
         width="10"
         height="10"
         x="100"
         y="50"
         id="06-11"
         style="fill:#000000;fill-opacity:1;filter:url(#filter7917)" />
      <rect
         width="10"
         height="10"
         x="0"
         y="60"
         id="07-01"
         style="fill:#000000;fill-opacity:1;filter:url(#filter7913)" />
      <rect
         width="10"
         height="10"
         x="20"
         y="60"
         id="07-03"
         style="fill:#000000;fill-opacity:1;filter:url(#filter7909)" />
      <rect
         width="10"
         height="10"
         x="80"
         y="60"
         id="07-09"
         style="fill:#000000;fill-opacity:1;filter:url(#filter7905)" />
      <rect
         width="10"
         height="10"
         x="100"
         y="60"
         id="07-11"
         style="fill:#000000;fill-opacity:1;filter:url(#filter7901)" />
      <rect
         width="10"
         height="10"
         x="30"
         y="70"
         id="08-04"
         style="fill:#000000;fill-opacity:1;filter:url(#filter7897)" />
      <rect
         width="10"
         height="10"
         x="40"
         y="70"
         id="08-05"
         style="fill:#000000;fill-opacity:1;filter:url(#filter7893)" />
      <rect
         width="10"
         height="10"
         x="60"
         y="70"
         id="08-07"
         style="fill:#000000;fill-opacity:1;filter:url(#filter7889)" />
      <rect
         width="10"
         height="10"
         x="70"
         y="70"
         id="08-08"
         style="fill:#000000;fill-opacity:1;filter:url(#filter7885)" />
    </g>
    <g
       transform="translate(258.93998,-243.66484)"
       id="g4871">
      <path
         d="m 30.222084,32.624476 a 26.516504,26.516504 0 1 1 -0.0027,0.0061"
         transform="translate(0.35355339,-4.2426407)"
         id="path3795"
         style="fill:none;stroke:#000000;stroke-width:1;stroke-miterlimit:4;stroke-opacity:1;stroke-dasharray:none" />
      <path
         d="m 47.535446,39.350881 a 3.8890872,3.8890872 0 1 1 -4e-4,8.99e-4"
         transform="translate(3.1819805,-2.1213204)"
         id="path3797"
         style="fill:none;stroke:#000000;stroke-width:1;stroke-miterlimit:4;stroke-opacity:1;stroke-dasharray:none" />
      <path
         d="M 50.825675,64.762473 C 44.857757,63.760264 39.880371,61.087601 35.782467,56.684856 29.414203,49.842862 27.285198,39.993837 30.23421,31.017978 c 1.291838,-3.931948 3.990247,-8.138405 6.926919,-10.798139 5.185543,-4.696527 11.952458,-7.229002 18.505222,-6.925461 6.871688,0.318314 12.638671,2.842983 17.418522,7.625479 6.391679,6.395219 9.01081,15.590003 6.900625,24.225504 -1.178772,4.823884 -3.333706,8.64239 -6.894947,12.217734 -5.093357,5.113522 -11.344804,7.704947 -18.458232,7.651521 -1.327213,-0.01 -3.040202,-0.123432 -3.806644,-0.252143 l 0,0 z M 56.31547,42.788459 c 2.530781,-1.291108 3.151467,-4.767243 1.252742,-7.015947 -1.180678,-1.398303 -3.495738,-1.794661 -5.30683,-0.908577 -3.4474,1.686655 -3.144701,6.812369 0.481577,8.154749 0.956573,0.354104 2.639748,0.245635 3.572511,-0.230225 z"
         id="path3803"
         style="fill:#000000;fill-opacity:1;stroke:#000000;stroke-width:0.17677669;stroke-miterlimit:4;stroke-opacity:1;stroke-dasharray:none" />
      <path
         d="M 36.415999,20.249477 30.405591,20.60303"
         id="path3805"
         style="fill:none;stroke:#000000;stroke-width:1px;stroke-linecap:butt;stroke-linejoin:miter;stroke-opacity:1" />
      <path
         d="m 33.234018,23.608234 -5.126524,0.883884"
         id="path3807"
         style="fill:none;stroke:#000000;stroke-width:1px;stroke-linecap:butt;stroke-linejoin:miter;stroke-opacity:1" />
      <path
         d="m 30.759145,27.497321 -4.065864,1.237437"
         id="path3809"
         style="fill:none;stroke:#000000;stroke-width:1px;stroke-linecap:butt;stroke-linejoin:miter;stroke-opacity:1" />
      <path
         d="m 29.168154,31.739962 -4.419418,2.65165"
         id="path3811"
         style="fill:none;stroke:#000000;stroke-width:1px;stroke-linecap:butt;stroke-linejoin:miter;stroke-opacity:1" />
      <path
         d="M 28.28427,36.336156 25.809397,40.40202"
         id="path3813"
         style="fill:none;stroke:#000000;stroke-width:1px;stroke-linecap:butt;stroke-linejoin:miter;stroke-opacity:1" />
      <path
         d="m 28.284271,42.169787 -2.828427,4.596194"
         id="path3815"
         style="fill:none;stroke:#000000;stroke-width:1px;stroke-linecap:butt;stroke-linejoin:miter;stroke-opacity:1" />
      <path
         d="m 29.698484,47.826641 -1.767767,5.303301"
         id="path3817"
         style="fill:none;stroke:#000000;stroke-width:1px;stroke-linecap:butt;stroke-linejoin:miter;stroke-opacity:1" />
      <path
         d="M 32.703688,53.660272 31.289475,59.14035"
         id="path3819"
         style="fill:none;stroke:#000000;stroke-width:1px;stroke-linecap:butt;stroke-linejoin:miter;stroke-opacity:1" />
      <path
         d="M 35.178562,57.019029 35.001785,62.32233"
         id="path3821"
         style="fill:none;stroke:#000000;stroke-width:1px;stroke-linecap:butt;stroke-linejoin:miter;stroke-opacity:1" />
      <path
         d="m 38.890872,60.377787 0.883884,5.3033"
         id="path3823"
         style="fill:none;stroke:#000000;stroke-width:1px;stroke-linecap:butt;stroke-linejoin:miter;stroke-opacity:1" />
      <path
         d="m 43.663843,63.559767 1.414214,3.889087"
         id="path3825"
         style="fill:none;stroke:#000000;stroke-width:1px;stroke-linecap:butt;stroke-linejoin:miter;stroke-opacity:1" />
      <path
         d="m 49.143921,65.150757 3.535534,3.712311"
         id="path3827"
         style="fill:none;stroke:#000000;stroke-width:1px;stroke-linecap:butt;stroke-linejoin:miter;stroke-opacity:1" />
      <path
         d="m 55.861435,65.857864 3.889087,3.358757"
         id="path3829"
         style="fill:none;stroke:#000000;stroke-width:1px;stroke-linecap:butt;stroke-linejoin:miter;stroke-opacity:1" />
      <path
         d="m 62.402173,64.973981 5.480077,2.12132"
         id="path3831"
         style="fill:none;stroke:#000000;stroke-width:1px;stroke-linecap:butt;stroke-linejoin:miter;stroke-opacity:1" />
      <path
         d="m 66.998367,62.32233 5.833631,0.883884"
         id="path3833"
         style="fill:none;stroke:#000000;stroke-width:1px;stroke-linecap:butt;stroke-linejoin:miter;stroke-opacity:1" />
      <path
         d="m 71.948114,59.493903 4.065864,0.707107"
         id="path3835"
         style="fill:none;stroke:#000000;stroke-width:1px;stroke-linecap:butt;stroke-linejoin:miter;stroke-opacity:1" />
      <path
         d="m 75.130095,56.135146 5.126524,-1.767767"
         id="path3837"
         style="fill:none;stroke:#000000;stroke-width:1px;stroke-linecap:butt;stroke-linejoin:miter;stroke-opacity:1" />
      <path
         d="m 78.842405,50.478292 5.480078,-1.767767"
         id="path3839"
         style="fill:none;stroke:#000000;stroke-width:1px;stroke-linecap:butt;stroke-linejoin:miter;stroke-opacity:1" />
      <path
         d="m 80.610172,46.058874 5.480078,-4.24264"
         id="path3841"
         style="fill:none;stroke:#000000;stroke-width:1px;stroke-linecap:butt;stroke-linejoin:miter;stroke-opacity:1" />
      <path
         d="m 81.670833,38.987806 3.71231,-4.065863"
         id="path3843"
         style="fill:none;stroke:#000000;stroke-width:1px;stroke-linecap:butt;stroke-linejoin:miter;stroke-opacity:1" />
      <path
         d="M 81.140503,34.391612 83.96893,29.795418"
         id="path3845"
         style="fill:none;stroke:#000000;stroke-width:1px;stroke-linecap:butt;stroke-linejoin:miter;stroke-opacity:1" />
      <path
         d="m 79.019182,27.850875 1.59099,-4.949748"
         id="path3847"
         style="fill:none;stroke:#000000;stroke-width:1px;stroke-linecap:butt;stroke-linejoin:miter;stroke-opacity:1" />
      <path
         d="m 76.190755,23.254681 0.707107,-6.187185"
         id="path3849"
         style="fill:none;stroke:#000000;stroke-width:1px;stroke-linecap:butt;stroke-linejoin:miter;stroke-opacity:1" />
      <path
         d="m 72.655221,19.365593 -0.53033,-6.540737"
         id="path3851"
         style="fill:none;stroke:#000000;stroke-width:1px;stroke-linecap:butt;stroke-linejoin:miter;stroke-opacity:1" />
      <path
         d="M 67.175144,15.830059 65.76093,10.349982"
         id="path3853"
         style="fill:none;stroke:#000000;stroke-width:1px;stroke-linecap:butt;stroke-linejoin:miter;stroke-opacity:1" />
      <path
         d="M 62.402173,13.355185 59.573745,9.6428757"
         id="path3855"
         style="fill:none;stroke:#000000;stroke-width:1px;stroke-linecap:butt;stroke-linejoin:miter;stroke-opacity:1" />
      <path
         d="M 57.275649,12.471302 54.623998,8.2286623"
         id="path3857"
         style="fill:none;stroke:#000000;stroke-width:1px;stroke-linecap:butt;stroke-linejoin:miter;stroke-opacity:1" />
      <path
         d="M 51.618794,12.824856 47.55293,10.703536"
         id="path3859"
         style="fill:none;stroke:#000000;stroke-width:1px;stroke-linecap:butt;stroke-linejoin:miter;stroke-opacity:1" />
      <path
         d="M 45.96194,13.885516 41.18897,11.764195"
         id="path3861"
         style="fill:none;stroke:#000000;stroke-width:1px;stroke-linecap:butt;stroke-linejoin:miter;stroke-opacity:1" />
      <path
         d="M 42.072853,15.830059 36.769552,14.946176"
         id="path3863"
         style="fill:none;stroke:#000000;stroke-width:1px;stroke-linecap:butt;stroke-linejoin:miter;stroke-opacity:1" />
      <path
         d="M 38.183765,18.128157 33.234018,17.067496"
         id="path3865"
         style="fill:none;stroke:#000000;stroke-width:1px;stroke-linecap:butt;stroke-linejoin:miter;stroke-opacity:1" />
    </g>
  </g>
</svg>
