<?xml version="1.0" encoding="UTF-8" standalone="no"?>
<!-- Created with Inkscape (http://www.inkscape.org/) -->

<svg
   xmlns:dc="http://purl.org/dc/elements/1.1/"
   xmlns:cc="http://creativecommons.org/ns#"
   xmlns:rdf="http://www.w3.org/1999/02/22-rdf-syntax-ns#"
   xmlns:svg="http://www.w3.org/2000/svg"
   xmlns="http://www.w3.org/2000/svg"
   version="1.2"
   width="110"
   height="80"
   id="space-invader">
  <defs
     id="defs4142" />
  <metadata
     id="metadata4145">
    <rdf:RDF>
      <cc:Work
         rdf:about="Space Invader Pixelwise">
        <dc:format>image/svg+xml</dc:format>
        <dc:type
           rdf:resource="http://purl.org/dc/dcmitype/StillImage" />
        <dc:title></dc:title>
      </cc:Work>
    </rdf:RDF>
  </metadata>
  <path
     d="m 30.222084,32.624476 a 26.516504,26.516504 0 1 1 -0.0027,0.0061"
     transform="translate(-0.35355058,-6.3639615)"
     id="path3795"
     style="fill:none;stroke:#000000;stroke-width:1;stroke-miterlimit:4;stroke-opacity:1;stroke-dasharray:none" />
  <path
     d="m 47.535446,39.350881 a 3.8890872,3.8890872 0 1 1 -4e-4,8.99e-4"
     transform="translate(3.181981,-3.3587573)"
     id="path3797"
     style="fill:none;stroke:#000000;stroke-width:1;stroke-miterlimit:4;stroke-opacity:1;stroke-dasharray:none" />
  <path
     d="m 49.941792,119.03292 c -5.967918,-1.00221 -10.945304,-3.67487 -15.043208,-8.07762 -6.368264,-6.84199 -8.497269,-16.691018 -5.548257,-25.666877 1.291838,-3.931948 3.990247,-8.138405 6.926919,-10.798139 5.185543,-4.696527 11.952458,-7.229002 18.505222,-6.925461 6.871688,0.318314 12.638671,2.842983 17.418522,7.625479 6.391679,6.395219 9.01081,15.590003 6.900625,24.225504 -1.178772,4.823884 -3.333706,8.642394 -6.894947,12.217734 -5.093357,5.11352 -11.344804,7.70495 -18.458232,7.65152 -1.327213,-0.01 -3.040202,-0.12343 -3.806644,-0.25214 l 0,0 z m 5.489795,-21.974016 c 2.530781,-1.291108 3.151467,-4.767243 1.252742,-7.015947 -1.180678,-1.398303 -3.495738,-1.794661 -5.30683,-0.908577 -3.4474,1.686655 -3.144701,6.812369 0.481577,8.154749 0.956573,0.354104 2.639748,0.245635 3.572511,-0.230225 z"
     id="path3803"
     style="fill:#000000;fill-opacity:1;stroke:#000000;stroke-width:0.17677669;stroke-miterlimit:4;stroke-opacity:1;stroke-dasharray:none" />
  <path
     d="M 52.289917,62.911631 C 47.691168,62.473018 43.754281,61.151784 40.126344,58.829488 31.396239,53.24122 26.736902,42.617982 28.588579,32.523506 c 1.524724,-8.312084 6.87961,-15.290005 14.508562,-18.906026 5.456855,-2.586476 11.98379,-3.164115 17.766445,-1.572345 4.423582,1.217664 8.125978,3.398026 11.49703,6.770669 3.762539,3.764316 6.022536,7.942427 7.175624,13.26576 0.4673,2.157328 0.468044,7.771261 0.0012,9.899495 -1.659003,7.564853 -6.162094,13.838711 -12.557382,17.495374 -2.728628,1.560158 -6.250493,2.797968 -9.0334,3.174914 -1.516576,0.20542 -4.697516,0.351782 -5.656855,0.260284 l 7.7e-5,0 z m 3.800698,-21.298429 c 1.521049,-0.688524 2.429333,-1.943 2.597828,-3.587981 0.191168,-1.866366 -0.7265,-3.537429 -2.422265,-4.410915 -0.858232,-0.442072 -1.114835,-0.491598 -2.208495,-0.426253 -1.378082,0.08234 -2.071428,0.373418 -2.926667,1.228657 -2.105522,2.105522 -1.53471,5.791061 1.100278,7.104132 1.174552,0.585302 2.690209,0.621575 3.859321,0.09236 l 0,0 z"
     id="path5286"
     style="fill:#000000;fill-opacity:1" />
</svg>
